<svg version="1.1" xmlns="http://www.w3.org/2000/svg" viewBox="0 0 750.1562094214179 424.6521445109695" width="1500.3124188428358" height="849.304289021939">
  <!-- svg-source:excalidraw -->
  
  <defs>
    <style class="style-fonts">
      @font-face {
        font-family: "Virgil";
        src: url("https://excalidraw.com/Virgil.woff2");
      }
      @font-face {
        font-family: "Cascadia";
        src: url("https://excalidraw.com/Cascadia.woff2");
      }
    </style>
  </defs>
  <rect x="0" y="0" width="750.1562094214179" height="424.6521445109695" fill="#ffffff"></rect><g stroke-linecap="round" transform="translate(187.50538249922113 155.92398760310493) rotate(0 48.02441435389869 47.10086792401597)"><path d="M0.29 1.45 L96.2 1.85 L96.37 94.33 L-1.79 94.49" stroke="none" stroke-width="0" fill="#868e96"></path><path d="M-0.92 0.16 C35.25 -1.67, 67.82 1.05, 95.24 1.22 M0.33 0.61 C21.7 0.42, 45.73 -0.73, 95.23 -0.74 M97.8 1.4 C98.08 22.54, 96.21 44.64, 96.18 94.23 M96.18 0.56 C95.84 28.91, 95.95 58.13, 96.94 94.61 M97.15 92.78 C60.88 94.07, 24.24 95.13, 1.26 92.37 M95.23 94.93 C64 93.81, 33.43 93.54, 0.92 94.47 M-1.05 95.99 C-1.58 67.49, 0.99 36.97, -0.87 -1.04 M0.9 94.96 C0.55 71.98, -0.05 49.75, -0.7 -0.14" stroke="#000000" stroke-width="1" fill="none"></path></g><g stroke-linecap="round" transform="translate(181.23450224032115 149.7639329157871) rotate(0 48.02441435389869 47.10086792401597)"><path d="M1.45 0.15 L97.9 0.32 L96.18 92.41 L0.28 92.66" stroke="none" stroke-width="0" fill="#ced4da"></path><path d="M0.16 1.48 C18.3 0.71, 40.77 -0.37, 97.27 -1.29 M0.61 -0.91 C22.28 0.2, 42.96 -1.13, 95.31 -0.72 M97.45 1.24 C97.74 35.49, 98.4 72.35, 96.08 94.43 M96.61 -0.12 C96.15 27.37, 96.02 55.66, 96.46 94.88 M94.63 94.31 C76.45 93.49, 57.13 95.99, -1.83 94.8 M96.77 93.85 C60.97 94.21, 25.29 94.34, 0.27 94.19 M1.78 92.34 C1.87 69.44, -0.45 42.39, -1.04 -1.38 M0.76 94.89 C-1 64.66, -1.46 34.23, -0.14 0.15" stroke="#000000" stroke-width="1" fill="none"></path></g><g stroke-linecap="round" transform="translate(174.26172669470782 142.874276548863) rotate(0 48.02441435389869 47.10086792401597)"><path d="M0.15 1.85 L96.37 0.13 L94.26 94.49 L-1.54 93.23" stroke="none" stroke-width="0" fill="#eeeeee"></path><path d="M1.48 -1.45 C31.27 1.19, 61.18 1.14, 94.76 -1.45 M-0.91 0.45 C29.61 -1.29, 57.36 -1.32, 95.33 0.83 M97.29 1.09 C96.25 35.98, 97 68.48, 96.28 94.02 M95.93 -0.44 C96.15 33.11, 97.06 67.78, 96.72 93.32 M96.16 95 C75.28 95.38, 58.27 91.69, 0.6 95.57 M95.7 94.53 C75.2 94.96, 53.69 95.17, -0.01 93.91 M-1.86 95.68 C1.2 69.01, -0.38 44.47, -1.38 0.29 M0.69 93.75 C-0.76 59.49, -1.55 26.46, 0.15 0.73" stroke="#000000" stroke-width="1" fill="none"></path></g><g transform="translate(191.2861410486065 183.97514447287926) rotate(0 32 15)"><text x="32" y="12" font-family="Helvetica, Segoe UI Emoji" font-size="14.876839160052583px" fill="#000000" text-anchor="middle" style="white-space: pre;" direction="ltr">Ad server</text><text x="32" y="27" font-family="Helvetica, Segoe UI Emoji" font-size="14.876839160052583px" fill="#000000" text-anchor="middle" style="white-space: pre;" direction="ltr"></text></g><g stroke-linecap="round"><g transform="translate(404.68440510583207 42.943325263598354) rotate(0 38.62156873264604 41.87284077812427)" fill-rule="evenodd"><path d="M0.5 -1.1 L0.22 82.65 L-0.45 84.81 L18.48 90.98 L39.33 92.95 L62.14 88.75 L75.57 85.52 L76.58 -2.67 L66.54 -6.41 L37.28 -8.4 L11.53 -3.29 L3.87 -4.99 L1.5 0.21" stroke="none" stroke-width="0" fill="#ced4da" fill-rule="evenodd"></path><path d="M0.64 0.94 C0.84 13.64, 0.62 61.43, 0.35 75.33 C0.07 89.23, -1.49 82.21, -1.02 84.33 C-0.54 86.46, -0.08 86.93, 3.18 88.08 C6.44 89.23, 12.33 90.56, 18.53 91.25 C24.73 91.94, 32.82 92.4, 40.37 92.2 C47.92 92, 57.89 90.98, 63.84 90.04 C69.79 89.11, 73.93 87.73, 76.09 86.58 C78.25 85.43, 76.65 84.92, 76.78 83.15 C76.91 81.38, 76.73 88.84, 76.87 75.96 C77.01 63.08, 77.92 18.74, 77.65 5.87 C77.38 -7, 76.3 0.42, 75.25 -1.25 C74.2 -2.91, 73.58 -3.44, 71.35 -4.14 C69.12 -4.84, 67.71 -4.79, 61.85 -5.45 C55.99 -6.1, 43.61 -7.84, 36.19 -8.07 C28.77 -8.31, 22.9 -7.82, 17.33 -6.86 C11.77 -5.9, 5.89 -3.38, 2.81 -2.33 C-0.28 -1.27, -0.88 -0.85, -1.18 -0.55 C-1.48 -0.25, 0.7 -0.49, 1.01 -0.52 M-0.49 0.39 C-0.35 12.78, -0.86 59.67, -0.55 73.33 C-0.25 86.99, 0.75 80.25, 1.34 82.34 C1.93 84.44, 0.32 84.29, 3.01 85.9 C5.7 87.52, 11.07 91.1, 17.48 92.05 C23.88 92.99, 33.56 92.1, 41.45 91.55 C49.33 91.01, 59.1 89.62, 64.8 88.77 C70.49 87.92, 73.88 87.61, 75.61 86.45 C77.33 85.29, 74.81 83.67, 75.14 81.82 C75.48 79.98, 77.05 87.94, 77.59 75.4 C78.14 62.87, 78.55 18.94, 78.43 6.63 C78.32 -5.69, 78.06 3.44, 76.91 1.49 C75.76 -0.45, 74.1 -3.92, 71.54 -5.05 C68.99 -6.18, 67.52 -4.67, 61.59 -5.28 C55.66 -5.89, 43.24 -8.66, 35.95 -8.71 C28.67 -8.77, 23.05 -6.27, 17.88 -5.62 C12.71 -4.96, 7.84 -5.63, 4.96 -4.77 C2.08 -3.91, 1.4 -1.16, 0.6 -0.45 C-0.2 0.26, 0 -0.74, 0.15 -0.53" stroke="#000000" stroke-width="1" fill="none"></path></g></g><mask></mask><g stroke-linecap="round" transform="translate(404.19073736389214 34.17239863996417) rotate(0 38.252112724462336 7.736202016062123)"><path d="M33.99 -0.83 C41.65 -1.26, 53.27 0.42, 59.94 1.37 C66.6 2.32, 71.63 3.31, 73.99 4.87 C76.34 6.44, 76.98 9.03, 74.05 10.77 C71.12 12.5, 63.85 14.59, 56.42 15.28 C48.99 15.98, 37.58 15.59, 29.46 14.94 C21.34 14.29, 12.58 12.61, 7.69 11.38 C2.79 10.15, -0.51 8.95, 0.09 7.55 C0.7 6.16, 4.99 4.14, 11.33 3.02 C17.68 1.89, 33.07 1.39, 38.17 0.82 C43.26 0.25, 41.9 -0.46, 41.9 -0.39 M33.6 0.65 C41.18 0.7, 51.05 1.39, 57.75 2.29 C64.45 3.19, 71 4.64, 73.81 6.04 C76.62 7.44, 77.34 9.18, 74.6 10.67 C71.85 12.17, 64.86 14.11, 57.34 15.01 C49.82 15.91, 37.73 16.41, 29.46 16.07 C21.18 15.73, 12.53 14.48, 7.69 12.96 C2.85 11.44, 0.24 8.46, 0.44 6.97 C0.64 5.48, 3.25 4.93, 8.91 4.01 C14.56 3.1, 30.2 1.95, 34.37 1.48 C38.53 1.02, 34.17 1.42, 33.88 1.23" stroke="none" stroke-width="0" fill="#fff"></path><path d="M41.16 0.64 C49.21 0.7, 60.34 1.76, 66.12 2.94 C71.91 4.12, 75.21 6.16, 75.85 7.73 C76.48 9.29, 74.46 11.03, 69.95 12.33 C65.44 13.63, 56.8 15.14, 48.79 15.55 C40.79 15.97, 29.49 15.61, 21.93 14.81 C14.37 14.02, 6.72 12.38, 3.42 10.79 C0.11 9.21, 0.07 7.03, 2.09 5.33 C4.12 3.63, 7.76 1.44, 15.57 0.58 C23.38 -0.27, 42.19 0.02, 48.96 0.18 C55.73 0.35, 56.5 1.44, 56.18 1.57 M24.99 -0.86 C31.92 -1.23, 41.89 0.75, 49.39 1.64 C56.9 2.53, 65.71 3.24, 70.02 4.5 C74.33 5.75, 76.43 7.63, 75.27 9.18 C74.11 10.73, 69.1 12.95, 63.06 13.8 C57.02 14.66, 47.24 14.2, 39.05 14.3 C30.87 14.39, 20.26 15.43, 13.96 14.39 C7.65 13.36, 2.62 9.94, 1.22 8.09 C-0.18 6.24, 1.95 4.67, 5.58 3.29 C9.21 1.9, 19.83 0.25, 23.02 -0.22 C26.2 -0.68, 24.5 0.35, 24.7 0.49" stroke="#000000" stroke-width="1" fill="none"></path></g><g transform="translate(423.19331572553097 68.85935481481545) rotate(0 8.5 18)"><text x="0" y="29" font-family="Cascadia, Segoe UI Emoji" font-size="29.219434366479078px" fill="#495057" text-anchor="start" style="white-space: pre;" direction="ltr">{</text></g><g transform="translate(445.20418907127646 69.33606478673448) rotate(0 8.472599895867177 17.972181597293968)"><text x="0" y="28.94436319458793" font-family="Cascadia, Segoe UI Emoji" font-size="29.384515916572173px" fill="#495057" text-anchor="start" style="white-space: pre;" direction="ltr">}</text></g><g stroke-linecap="round" transform="translate(619.6597284803091 241.3801601863861) rotate(0 60.24824047055438 44.11983981361402)"><path d="M21.31 1.92 L98.25 0.71 L109.2 3.09 L114.03 3.93 L119.89 13.46 L121.17 22.63 L120.56 72.08 L115.86 84.71 L106.3 88.43 L98.27 89.69 L22.44 88.62 L14.16 88.67 L6.61 84.69 L-0.85 73.2 L-1.12 16.05 L2.28 9.01 L7.51 3.86 L21.13 0.25" stroke="none" stroke-width="0" fill="#eeeeee"></path><path d="M22.06 0 M22.06 0 C46.57 1.63, 71.05 -1.35, 98.44 0 M22.06 0 C42.63 -0.13, 62.15 -0.3, 98.44 0 M98.44 0 C114.64 1.09, 121.53 6.69, 120.5 22.06 M98.44 0 C115.18 1.97, 121.47 7.88, 120.5 22.06 M120.5 22.06 C120.28 32.76, 120.96 44.01, 120.5 66.18 M120.5 22.06 C119.51 39.07, 119.85 55.57, 120.5 66.18 M120.5 66.18 C120.77 78.91, 113.55 90.18, 98.44 88.24 M120.5 66.18 C121.78 82.89, 112.35 90.42, 98.44 88.24 M98.44 88.24 C79.76 88.73, 59.73 86.83, 22.06 88.24 M98.44 88.24 C68.26 88.37, 37.77 87.85, 22.06 88.24 M22.06 88.24 C5.78 88.74, -1.38 81.9, 0 66.18 M22.06 88.24 C7.38 88.13, -0.82 83.05, 0 66.18 M0 66.18 C1.69 51.75, 0.81 40.02, 0 22.06 M0 66.18 C-0.48 50.53, -0.75 33.4, 0 22.06 M0 22.06 C-1.22 7.18, 7.59 -1.9, 22.06 0 M0 22.06 C0.91 7.34, 8.32 -1.77, 22.06 0" stroke="#000000" stroke-width="1" fill="none"></path></g><g stroke-linecap="round" transform="translate(627.3906973902493 248.31137369184762) rotate(0 12.52950133679667 4.9318249942710395)"><path d="M1.13 -0.65 L24.46 -1.94 L23.43 8.29 L0.5 8.48" stroke="none" stroke-width="0" fill="#868e96"></path><path d="M1.11 1.71 C8.97 -1.67, 20.61 0.96, 25.73 0.57 M0.99 -0.89 C8.81 -0.19, 16.79 0.08, 25.25 0.88 M24.47 0.91 C24.39 3.44, 24.71 7.89, 24.51 10.24 M24.96 -0.33 C25.13 2.77, 25.18 4.54, 24.85 9.71 M26.33 9.37 C18.86 10.94, 10.7 9.18, 1.77 11.58 M25.32 9.31 C16.32 9.9, 8.08 10.37, 0.9 9.43 M-0.45 9 C0.21 5.94, 0.28 4.92, 0.55 0.86 M-0.09 9.86 C0.13 7.37, 0.03 4.28, 0.45 -0.14" stroke="#000000" stroke-width="1" fill="none"></path></g><g stroke-linecap="round" transform="translate(667.2718335601352 247.90184436458685) rotate(0 33.05655671835723 5.33170269650924)"><path d="M2.48 0.71 L64.56 1.71 L65.16 1.09 L66.88 9.05 L64.12 11.24 L3.07 11.39 L0.87 9.98 L-1.78 4.23 L2.5 1.45" stroke="none" stroke-width="0" fill="#ced4da"></path><path d="M2.67 0 M2.67 0 C23.87 0.56, 43.43 -1.73, 63.45 0 M2.67 0 C26.1 0.45, 49.8 0.64, 63.45 0 M63.45 0 C64.29 0.25, 66.47 0.47, 66.11 2.67 M63.45 0 C63.68 0.27, 67.4 1.39, 66.11 2.67 M66.11 2.67 C66.13 4.22, 66.05 5.21, 66.11 8 M66.11 2.67 C66.29 4.05, 66.39 5.83, 66.11 8 M66.11 8 C66.96 10.23, 63.89 11.2, 63.45 10.66 M66.11 8 C64.83 9.4, 65.68 11.07, 63.45 10.66 M63.45 10.66 C41.1 8.82, 18.42 9.48, 2.67 10.66 M63.45 10.66 C50.76 11.03, 38.22 10.93, 2.67 10.66 M2.67 10.66 C0.2 12.56, -0.87 9.41, 0 8 M2.67 10.66 C0.86 11.72, 0.58 10.34, 0 8 M0 8 C0.25 6.6, -0.21 5.03, 0 2.67 M0 8 C-0.14 6.97, 0.04 5.66, 0 2.67 M0 2.67 C-0.71 2.77, 1.2 0.44, 2.67 0 M0 2.67 C-2.01 2.94, 0.31 1.05, 2.67 0" stroke="#000000" stroke-width="1" fill="none"></path></g><g stroke-linecap="round"><g transform="translate(654.0106916066351 253.65248280623382) rotate(0 7.743333732379199 0.09756028646893355)"><path d="M1.03 -0.57 C3.15 -0.63, 10.88 0.19, 13.16 0.33 M0.11 1.74 C2.57 1.26, 13.01 -0.95, 15.38 -1.55" stroke="#000000" stroke-width="1" fill="none"></path></g><g transform="translate(654.0106916066351 253.65248280623382) rotate(0 7.743333732379199 0.09756028646893355)"><path d="M9.11 1.72 C11.69 1.32, 13.64 -0.14, 15.52 -1.29 M9.73 2.25 C11.71 1.08, 13.55 0.01, 15.7 -1.36" stroke="#000000" stroke-width="1" fill="none"></path></g><g transform="translate(654.0106916066351 253.65248280623382) rotate(0 7.743333732379199 0.09756028646893355)"><path d="M8.04 -2.98 C11 -1.82, 13.31 -1.69, 15.52 -1.29 M8.65 -2.45 C11.05 -1.99, 13.26 -1.45, 15.7 -1.36" stroke="#000000" stroke-width="1" fill="none"></path></g></g><mask></mask><g stroke-linecap="round" transform="translate(627.8172336059714 261.5339963791912) rotate(0 12.52950133679667 4.9318249942710395)"><path d="M-1.94 -1.63 L23.49 0.5 L23.68 10.88 L0.02 9.77" stroke="none" stroke-width="0" fill="#868e96"></path><path d="M-1.58 0.77 C9.96 0.79, 18.39 0.53, 25.79 0.87 M-0.08 0.73 C10.19 -0.01, 20.88 0.71, 25.6 0.99 M24.65 -0.41 C25.34 1.82, 25.53 4.28, 25.18 10.04 M25.33 0.11 C24.53 2.55, 24.83 5.54, 25.47 9.83 M26.15 10.9 C15.29 11.82, 8.56 10.9, 0.46 8.53 M25.26 10.04 C17.55 10.72, 8.26 9.81, -0.79 9.68 M-0.98 10.06 C1.05 7.91, 0.95 4.51, 0.94 -0.43 M0.12 9.98 C-0.35 7.53, -0.14 4.59, -0.16 -0.15" stroke="#000000" stroke-width="1" fill="none"></path></g><g stroke-linecap="round" transform="translate(667.6983697758541 261.73025759859183) rotate(0 33.05655671835723 5.33170269650924)"><path d="M4.38 -0.95 L61.87 0.77 L67.16 3.34 L66.69 8.41 L64.17 11.54 L4.65 8.88 L1.57 7.83 L1.45 3.05 L3.04 1.75" stroke="none" stroke-width="0" fill="#ced4da"></path><path d="M2.67 0 M2.67 0 C25.19 1.25, 48.64 -1.44, 63.45 0 M2.67 0 C18.78 -0.13, 34.27 0.52, 63.45 0 M63.45 0 C64.81 -1.34, 66.35 2.01, 66.11 2.67 M63.45 0 C65.73 -2.15, 65.15 0.15, 66.11 2.67 M66.11 2.67 C66.5 4.17, 66.56 6.23, 66.11 8 M66.11 2.67 C66.32 4.65, 66.16 6.24, 66.11 8 M66.11 8 C66.64 8.66, 64.9 11.06, 63.45 10.66 M66.11 8 C66.51 11.33, 67.29 9.67, 63.45 10.66 M63.45 10.66 C44.35 8.8, 27.36 8.57, 2.67 10.66 M63.45 10.66 C44.85 10.66, 25.45 10.57, 2.67 10.66 M2.67 10.66 C0.52 10.64, 0.92 10.27, 0 8 M2.67 10.66 C1.45 9.05, 2.09 9.1, 0 8 M0 8 C-0.5 5.66, -0.4 4.33, 0 2.67 M0 8 C-0.04 6.67, 0.22 5.58, 0 2.67 M0 2.67 C0.44 -0.86, 2.68 -0.51, 2.67 0 M0 2.67 C1.05 2.84, 2.66 2.01, 2.67 0" stroke="#000000" stroke-width="1" fill="none"></path></g><g stroke-linecap="round"><g transform="translate(653.7124899655195 267.14938719075735) rotate(0 6.87702838854193 -0.4407055531034416)"><path d="M0.46 0.63 C2.97 0.85, 12.19 0.4, 14.51 0.37 M-0.76 -0.09 C1.69 -0.16, 11.36 -1.31, 13.77 -1.57" stroke="#000000" stroke-width="1" fill="none"></path></g><g transform="translate(653.7124899655195 267.14938719075735) rotate(0 6.87702838854193 -0.4407055531034416)"><path d="M7.83 1.81 C9.28 0.9, 10.93 0.27, 14.47 -2.2 M7.53 1.64 C10.16 0.65, 12.43 -0.5, 13.56 -1.24" stroke="#000000" stroke-width="1" fill="none"></path></g><g transform="translate(653.7124899655195 267.14938719075735) rotate(0 6.87702838854193 -0.4407055531034416)"><path d="M7.29 -2.99 C8.84 -2.69, 10.62 -2.11, 14.47 -2.2 M6.99 -3.16 C9.82 -2.33, 12.3 -1.68, 13.56 -1.24" stroke="#000000" stroke-width="1" fill="none"></path></g></g><mask></mask><g stroke-linecap="round" transform="translate(628.4037209025836 289.1864483094132) rotate(0 12.52950133679667 4.9318249942710395)"><path d="M0.5 -1.38 L26.07 0.02 L24.96 9.15 L1.88 10.18" stroke="none" stroke-width="0" fill="#868e96"></path><path d="M0.67 0.57 C5.95 0.6, 11.95 1.85, 23.28 1.57 M0.19 0.88 C8.22 0.5, 15.61 -0.65, 25.98 -0.73 M24.51 0.38 C24.56 2.67, 25.19 4.89, 24.4 9.98 M24.85 -0.16 C25.12 3.93, 25.04 7.33, 24.94 10.23 M26.83 11.58 C17.02 10.24, 5.95 10.31, -1.11 9.53 M25.96 9.43 C17.03 9.24, 8.85 9.57, -0.88 10 M0.55 10.72 C-0.36 8.82, -0.45 5.72, -0.01 0.45 M0.45 9.72 C0.25 6.5, -0.17 2.97, -0.4 -0.39" stroke="#000000" stroke-width="1" fill="none"></path></g><g stroke-linecap="round" transform="translate(668.2848570724717 289.07981425548314) rotate(0 33.05655671835723 5.33170269650924)"><path d="M3.43 1.05 L64.12 0.57 L66.52 3.39 L66.99 9.98 L61.66 12.23 L2.5 12.12 L0.38 8.37 L1.75 4.47 L3.76 1.97" stroke="none" stroke-width="0" fill="#ced4da"></path><path d="M2.67 0 M2.67 0 C16.42 -0.38, 32.24 -0.66, 63.45 0 M2.67 0 C23.39 -0.28, 43.09 0.04, 63.45 0 M63.45 0 C66.34 0.44, 64.25 0.05, 66.11 2.67 M63.45 0 C64.49 0.16, 68.05 0.71, 66.11 2.67 M66.11 2.67 C66.39 4.88, 65.92 7.01, 66.11 8 M66.11 2.67 C65.96 4.79, 65.99 6.74, 66.11 8 M66.11 8 C66.51 10.12, 66.57 12.46, 63.45 10.66 M66.11 8 C65.12 9.75, 63.4 10.25, 63.45 10.66 M63.45 10.66 C46.03 11.16, 34.52 11.87, 2.67 10.66 M63.45 10.66 C39.47 11.06, 16.36 11.7, 2.67 10.66 M2.67 10.66 C1.39 11.15, -1.4 11.59, 0 8 M2.67 10.66 C0.21 11.96, -0.75 9.09, 0 8 M0 8 C0.18 6.55, 0.31 5.84, 0 2.67 M0 8 C0.06 6.48, -0.21 5.09, 0 2.67 M0 2.67 C-0.51 1.8, 2.58 1.54, 2.67 0 M0 2.67 C2.01 1.05, 0.67 2.24, 2.67 0" stroke="#000000" stroke-width="1" fill="none"></path></g><g stroke-linecap="round"><g transform="translate(654.5433762824704 294.8146666206494) rotate(0 6.806591886207968 -0.4340028395134823)"><path d="M0.34 0.25 C2.66 0.25, 12.05 0.69, 14.55 0.46 M-0.93 -0.67 C1.21 -1.06, 11.15 -1.44, 13.83 -1.39" stroke="#000000" stroke-width="1" fill="none"></path></g><g transform="translate(654.5433762824704 294.8146666206494) rotate(0 6.806591886207968 -0.4340028395134823)"><path d="M7.38 1.38 C9.86 0.92, 11.24 -0.11, 13.77 -0.88 M7.55 1.32 C9.68 0.05, 11.76 -0.8, 13.68 -1.53" stroke="#000000" stroke-width="1" fill="none"></path></g><g transform="translate(654.5433762824704 294.8146666206494) rotate(0 6.806591886207968 -0.4340028395134823)"><path d="M7.31 -3.44 C9.83 -2.21, 11.24 -1.54, 13.77 -0.88 M7.48 -3.51 C9.64 -3.23, 11.75 -2.54, 13.68 -1.53" stroke="#000000" stroke-width="1" fill="none"></path></g></g><mask></mask><g stroke-linecap="round"><g transform="translate(640.5287627950755 271.7037563205713) rotate(0 0.4276384074373709 9.242927180522827)"><path d="M0.25 0.44 C0.27 3.39, 0.77 15.16, 0.56 18.05" stroke="#000000" stroke-width="1.5" fill="none" stroke-dasharray="1.5 7"></path></g></g><mask></mask><g stroke-linecap="round"><g transform="translate(702.1005430883305 273.25549351813197) rotate(0 0.8538356019892035 7.659787327322704)"><path d="M0.44 0.52 C0.59 2.95, 1.17 12.25, 1.27 14.8" stroke="#000000" stroke-width="1.5" fill="none" stroke-dasharray="1.5 7"></path></g></g><mask></mask><g transform="translate(634.9224267170729 249.55377381412654) rotate(0 4.997772009974824 4.089086189979355)"><text x="4.997772009974799" y="5.17817237995874" font-family="Virgil, Segoe UI Emoji" font-size="6.057905466636109px" fill="#000000" text-anchor="middle" style="white-space: pre;" direction="ltr">Key</text></g><g transform="translate(635.5282172637343 289.68711556635026) rotate(0 4.997772009974824 4.089086189979355)"><text x="4.997772009974799" y="5.17817237995874" font-family="Virgil, Segoe UI Emoji" font-size="6.057905466636109px" fill="#000000" text-anchor="middle" style="white-space: pre;" direction="ltr">Key</text></g><g transform="translate(692.6045608085295 249.84701746243445) rotate(0 7.723829469961061 4.089086189979355)"><text x="7.723829469961045" y="5.17817237995874" font-family="Virgil, Segoe UI Emoji" font-size="6.057905466636125px" fill="#000000" text-anchor="middle" style="white-space: pre;" direction="ltr">Value</text></g><g transform="translate(692.301665535202 290.3926176720129) rotate(0 7.723829469961061 4.089086189979355)"><text x="7.723829469961045" y="5.17817237995874" font-family="Virgil, Segoe UI Emoji" font-size="6.057905466636125px" fill="#000000" text-anchor="middle" style="white-space: pre;" direction="ltr">Value</text></g><g transform="translate(654.9079689508634 307.2054889876049) rotate(0 21 8.5)"><text x="21" y="13" font-family="Helvetica, Segoe UI Emoji" font-size="16px" fill="#000000" text-anchor="middle" style="white-space: pre;" direction="ltr">Redis</text></g><g stroke-linecap="round" transform="translate(10 90.34785548903051) rotate(0 18.407717007298515 28.152144510969492)"><path d="M-1.17 -1.48 L37.93 -0.26 L37.47 54.33 L0.61 55.91" stroke="none" stroke-width="0" fill="#ced4da"></path><path d="M1.27 1.53 C10.93 -1.21, 19.42 -0.08, 37.51 -0.42 M0.41 0.21 C8.96 0.51, 18.26 -0.22, 37.8 -0.73 M36.18 1.68 C39.07 20.14, 35.46 42.26, 35.58 57.81 M36.11 0.94 C35.84 11.76, 37.71 23.81, 37.06 57.09 M35.47 56.47 C25.72 57.86, 15.54 55.89, -1.75 56.7 M36.81 57.18 C21.81 56.13, 6.82 56.14, 0.02 56.68 M-0.33 56.61 C-0.86 35.12, -0.84 12.81, -1.53 0.81 M0.55 55.35 C0.51 39.88, 0.95 24.25, 0.96 0.45" stroke="#000000" stroke-width="1" fill="none"></path></g><g stroke-linecap="round" transform="translate(14.214962477620816 94.64052690082576) rotate(0 14.504711068306591 21.531193879131138)"><path d="M-1.48 1.12 L28.75 0.66 L27.03 43.67 L-0.39 42.43" stroke="none" stroke-width="0" fill="#fff"></path><path d="M1.53 0.26 C7.42 -2.11, 17.08 0.51, 28.59 -1.15 M0.21 0.03 C8.45 0.28, 15.65 0.86, 28.28 0.84 M30.69 1.94 C27.81 13.71, 28.28 29.53, 30.52 41.28 M29.94 -0.91 C28.98 13.35, 29.15 25, 29.79 42.93 M29.18 42.52 C22.18 42.7, 11.96 41.12, 0.39 44.99 M29.88 42.65 C17.88 42.25, 6.72 43.08, 0.37 43.94 M0.3 42.7 C0.56 25.96, 0.1 8, 0.81 -0.47 M-0.96 43.47 C-0.66 31.76, -0.73 19.71, 0.45 -0.58" stroke="#000000" stroke-width="1" fill="none"></path></g><g stroke-linecap="round" transform="translate(25.749174817017206 139.54580331692728) rotate(0 2.9704987289102007 2.970498728910229)"><path d="M2.18 1.12 C2.86 0.88, 4.21 0.3, 4.73 0.36 C5.25 0.43, 5.13 0.95, 5.29 1.5 C5.46 2.05, 5.82 3.04, 5.74 3.66 C5.66 4.28, 5.39 4.79, 4.83 5.24 C4.27 5.69, 3.01 6.36, 2.36 6.34 C1.72 6.33, 1.41 5.53, 0.95 5.17 C0.49 4.81, -0.12 4.72, -0.38 4.19 C-0.65 3.67, -0.91 2.57, -0.64 2.04 C-0.36 1.5, 0.92 1.14, 1.28 0.97 C1.65 0.81, 1.34 1.25, 1.58 1.05 M2.39 -1.28 C2.88 -1.55, 3.94 -0.52, 4.38 -0.14 C4.83 0.25, 4.96 0.27, 5.04 1.03 C5.11 1.79, 4.97 3.52, 4.84 4.42 C4.72 5.32, 4.44 5.99, 4.29 6.45 C4.15 6.92, 4.46 7.48, 3.96 7.22 C3.45 6.95, 2.07 5.27, 1.26 4.85 C0.45 4.44, -0.58 5.32, -0.9 4.71 C-1.21 4.11, -1.23 1.75, -0.6 1.21 C0.02 0.67, 2.58 1.51, 2.85 1.47 C3.13 1.42, 1.31 1.23, 1.05 0.93" stroke="none" stroke-width="0" fill="#fff"></path><path d="M2.5 -0.09 C3.14 -0.34, 3.08 -0.37, 3.61 -0.01 C4.13 0.36, 5.24 1.46, 5.65 2.08 C6.06 2.71, 6.13 3.1, 6.06 3.72 C5.99 4.33, 5.81 5.24, 5.23 5.77 C4.64 6.31, 3.39 6.88, 2.55 6.91 C1.7 6.94, 0.5 6.44, 0.17 5.95 C-0.15 5.46, 0.58 4.6, 0.59 3.97 C0.59 3.33, -0.32 2.93, 0.19 2.15 C0.71 1.36, 3.32 -0.31, 3.7 -0.74 C4.08 -1.17, 2.74 -0.73, 2.48 -0.43 M0.64 1.69 C0.97 1.31, 1.32 -0.02, 2.36 -0.08 C3.39 -0.15, 6.19 0.57, 6.84 1.31 C7.5 2.05, 6.62 3.79, 6.3 4.38 C5.97 4.96, 5.29 4.72, 4.89 4.81 C4.49 4.9, 4.46 4.88, 3.88 4.92 C3.3 4.95, 1.87 5.23, 1.41 5.01 C0.96 4.8, 1.42 4.4, 1.16 3.64 C0.9 2.87, -0.3 0.74, -0.16 0.42 C-0.02 0.11, 1.46 1.89, 1.99 1.73 C2.51 1.58, 3.02 -0.54, 2.99 -0.52" stroke="#000000" stroke-width="1" fill="none"></path></g><g stroke-linecap="round" transform="translate(18.51933569775872 100.12213109533536) rotate(0 10.200337848168658 5.169979605485537)"><path d="M0 0 C0 0, 0 0, 0 0 M0 0 C0 0, 0 0, 0 0 M0.06 5.69 C0.88 3.57, 3.7 1.61, 5.41 0.33 M0 6.3 C0.71 4.5, 2.15 3.09, 4.96 0.55 M0.84 10.41 C5.73 6.66, 9.87 1.17, 11.68 -0.12 M0.23 11.81 C4.22 7.63, 6.1 4.27, 9.99 -0.76 M6.77 11.91 C8.88 7.75, 9.74 4.86, 15.28 0.6 M5.83 11.21 C10.07 7.14, 14.06 2.99, 15.29 0.31 M10.96 10.51 C12.9 7.85, 16.65 5.47, 21.99 1.37 M11.68 11.93 C14.66 8.11, 17.37 5.14, 20.96 0.58 M17.44 11.1 C17.94 9.13, 19.66 7.75, 20.58 6.91 M16.86 10.78 C17.91 9.99, 19.26 8.42, 20.95 6.57 M0.16 10.48 C0.16 10.48, 0.16 10.48, 0.16 10.48 M0.16 10.48 C0.16 10.48, 0.16 10.48, 0.16 10.48 M6.08 9.96 C4.23 7.82, 2.03 6.15, 0.53 4.04 M5.77 10.24 C3.61 8.49, 2.21 6.46, -0.02 5.15 M11.89 9.99 C7.27 7.57, 3.08 1.19, 0.5 1.02 M12.39 9.91 C10.35 7.57, 7.87 6.37, -0.41 0.03 M18.88 11.84 C16.71 7.67, 10.59 6.21, 7.29 -1.47 M18.32 9.95 C16.21 7.61, 12.71 5.3, 5.99 -0.17 M21.8 7.56 C20.66 6.78, 16.37 5.07, 13.13 -0.46 M22.25 7.75 C19.96 6.02, 16.68 3.66, 12.3 -0.71 M22.79 3.71 C21.37 2.28, 19.99 0.98, 18.4 -0.17 M22.15 3.48 C21.05 2.03, 19.48 0.82, 18.56 -0.22" stroke="#fab005" stroke-width="0.5" fill="none"></path><path d="M-1.11 -1.93 C7.44 0.67, 14.41 -1.17, 19.87 0.02 M0.51 0.4 C6.75 0.97, 13.19 0.84, 20.97 0.69 M19.63 -0.87 C19.96 2.13, 21.27 4.63, 20.27 10.56 M20.34 0.5 C20.52 2.5, 20.9 4.68, 20.32 10.55 M21.8 10.18 C15.08 8.53, 11.31 12.21, 1.7 9.19 M20.44 9.53 C14.33 10.27, 8.55 11.14, 0.89 10.57 M0.34 10.16 C0.09 6.61, 0.4 4.23, -0.18 -0.48 M-0.44 10.78 C-0.38 7.16, 0.33 2.7, -0.38 0.29" stroke="#000000" stroke-width="1" fill="none"></path></g><g stroke-linecap="round" transform="translate(18.51933569775872 118.6075892117567) rotate(0 10.200337848168658 5.169979605485537)"><path d="M0 0 C0 0, 0 0, 0 0 M0 0 C0 0, 0 0, 0 0 M-0.97 5.7 C0.32 5.16, 1.77 3.75, 4.95 -0.06 M-0.36 6.07 C0.95 4.32, 2.65 2.62, 5.18 0.75 M-0.09 12.34 C3.89 8.86, 6.14 4.91, 10.55 0.04 M1.31 11.81 C4.38 6.39, 8.29 1.96, 9.9 -0.61 M7.46 11.36 C9.09 6.19, 11.99 2.62, 15.89 1.53 M6.76 10.96 C9.29 8.57, 11.75 4.82, 15.6 -0.11 M10.67 10.63 C13.94 8.3, 17.49 4.82, 21.29 0.79 M12.1 11.63 C13.97 8.69, 16.67 5.99, 20.5 0.63 M17.3 10.57 C17.68 9.94, 18.64 8.07, 21.58 6.02 M16.99 10.72 C18.42 9.85, 19.07 8.3, 21.24 6.26 M0.16 10.48 C0.16 10.48, 0.16 10.48, 0.16 10.48 M0.16 10.48 C0.16 10.48, 0.16 10.48, 0.16 10.48 M5.68 10.45 C3.48 8.72, 1.77 7.88, -1.03 4.93 M5.96 9.77 C4.02 8.71, 1.86 7.22, 0.08 5.2 M11.85 10.14 C9.85 7.31, 3.74 4.03, 1.3 -1.67 M11.77 11 C7.7 7.53, 4.64 2.85, 0.31 -0.27 M19.83 12.09 C15.82 7.02, 14.58 6.58, 4.94 -0.6 M17.95 11.29 C15.05 7.83, 11.96 4.03, 6.25 -0.31 M21.29 9.42 C18.8 4.33, 15.51 2.78, 12 -0.86 M21.48 8.7 C19.23 5.68, 16.42 3.85, 11.74 0.07 M22.8 3.61 C21.45 2.71, 20.29 1.34, 18.42 0.27 M22.56 3.3 C21.43 2.28, 20.52 1.71, 18.37 0.03" stroke="#fab005" stroke-width="0.5" fill="none"></path><path d="M-1.93 0.02 C8.38 -0.3, 14.21 -0.42, 20.42 0.83 M0.4 -0.21 C7.52 -0.83, 13.93 0.47, 21.09 -0.32 M19.53 -0.53 C19.86 4.75, 19.58 7.82, 20.62 9.61 M20.9 0.02 C20.43 4.47, 20.24 8.06, 20.62 9.99 M20.24 9.77 C12.36 10.88, 9.74 12.18, -1.15 10.33 M19.59 10.39 C12.52 10.72, 5.49 11.24, 0.23 10.18 M-0.18 10.44 C-0.77 7.5, -0.23 3.64, -0.48 0.57 M0.44 9.86 C0.45 8.46, -0.34 5.73, 0.29 -0.07" stroke="#000000" stroke-width="1" fill="none"></path></g><g stroke-linecap="round" transform="translate(15.000503887129298 182.3478554890305) rotate(0 18.407717007298515 28.152144510969492)"><path d="M-1.98 0.61 L36.42 -0.63 L36.28 54.89 L1.33 55.46" stroke="none" stroke-width="0" fill="#ced4da"></path><path d="M0.02 0.7 C11.1 -0.79, 22.5 0.37, 37.64 0.42 M-0.21 0.98 C10.41 0.7, 22.85 0.54, 36.5 0.84 M35.79 -1.24 C37.9 20.56, 36.14 45.11, 35.41 58.17 M36.86 0.24 C37.53 11.66, 36.59 24, 36.14 56.39 M36.24 54.55 C27.16 58.2, 18.41 55.12, -0.01 58.05 M36.86 56.32 C27.67 56.89, 18.66 56.24, -0.16 56.46 M0.2 54.77 C0.63 39.96, -0.54 23.63, 1.1 -1.92 M-0.93 57.26 C0.93 36.52, -0.26 18.46, -0.13 0.33" stroke="#000000" stroke-width="1" fill="none"></path></g><g stroke-linecap="round" transform="translate(19.215466364750114 186.64052690082576) rotate(0 14.504711068306591 21.531193879131138)"><path d="M0.61 -0.39 L28.38 -0.53 L27.59 44.39 L-0.84 44.73" stroke="none" stroke-width="0" fill="#fff"></path><path d="M0.7 -0.42 C5.94 -0.53, 14.2 0.82, 29.43 0.05 M0.98 -0.73 C11.04 0.63, 21.07 -0.25, 29.85 0.97 M27.77 1.51 C26.87 9.44, 29.08 17.97, 30.88 41.25 M29.25 0.78 C29.29 12.25, 29.84 24.14, 29.09 42.79 M27.26 43.46 C20.2 44.68, 6.38 42.97, 1.74 42.24 M29.03 43.44 C21.07 43.97, 11.61 42.91, 0.15 42.88 M-1.53 43.88 C-0.4 28.36, -0.85 15.46, -1.92 0.82 M0.96 43.51 C-0.95 33.1, 0.19 24.49, 0.33 -0.99" stroke="#000000" stroke-width="1" fill="none"></path></g><g stroke-linecap="round" transform="translate(30.749678704146504 231.54580331692728) rotate(0 2.9704987289102007 2.970498728910229)"><path d="M4.4 0.11 C4.98 0.34, 5.75 1.09, 6.01 1.57 C6.26 2.05, 6.09 2.4, 5.93 3 C5.77 3.6, 5.63 4.77, 5.06 5.18 C4.49 5.6, 3.11 5.65, 2.51 5.46 C1.9 5.28, 1.75 4.61, 1.4 4.09 C1.05 3.57, 0.42 2.97, 0.42 2.34 C0.42 1.71, 0.95 0.61, 1.41 0.31 C1.87 0.02, 2.7 0.6, 3.19 0.54 C3.68 0.49, 3.87 -0.13, 4.33 -0.01 C4.8 0.1, 5.83 1.23, 5.95 1.23 M3.02 -1.03 C3.84 -1, 5.5 -0.43, 6.2 0.38 C6.89 1.19, 7.13 3.06, 7.19 3.83 C7.25 4.59, 7.24 4.8, 6.57 4.98 C5.89 5.17, 3.76 4.99, 3.12 4.93 C2.48 4.87, 3.25 4.59, 2.71 4.6 C2.17 4.62, 0.09 5.58, -0.12 5 C-0.34 4.43, 1.05 2.03, 1.42 1.15 C1.79 0.27, 1.9 -0.19, 2.1 -0.28 C2.3 -0.36, 2.61 0.79, 2.61 0.64 C2.61 0.48, 2.2 -1.27, 2.08 -1.22" stroke="none" stroke-width="0" fill="#fff"></path><path d="M2.54 0.33 C3.16 0.21, 3.6 0.58, 4.18 0.76 C4.77 0.95, 5.59 1.07, 6.03 1.44 C6.47 1.8, 6.91 2.19, 6.84 2.94 C6.76 3.69, 6.14 5.49, 5.58 5.93 C5.02 6.38, 4.11 5.59, 3.48 5.62 C2.84 5.65, 2.47 6.62, 1.77 6.09 C1.06 5.56, -0.43 3.36, -0.73 2.47 C-1.03 1.57, -0.68 1.26, -0.02 0.71 C0.65 0.16, 2.8 -0.78, 3.27 -0.85 C3.73 -0.93, 3.02 -0.08, 2.78 0.28 M1.74 0.66 C2.49 0.09, 4.3 -0.31, 4.87 -0.11 C5.43 0.09, 5.13 1.28, 5.13 1.85 C5.14 2.42, 4.99 2.6, 4.92 3.31 C4.85 4.01, 5 5.72, 4.7 6.09 C4.41 6.45, 3.94 5.56, 3.15 5.5 C2.37 5.44, 0.26 5.8, -0.01 5.73 C-0.27 5.65, 1.66 5.72, 1.56 5.06 C1.46 4.4, -0.84 2.65, -0.6 1.75 C-0.37 0.86, 2.58 0.11, 2.98 -0.32 C3.37 -0.76, 1.94 -1.01, 1.76 -0.86" stroke="#000000" stroke-width="1" fill="none"></path></g><g stroke-linecap="round" transform="translate(23.519839584888132 192.12213109533536) rotate(0 10.200337848168658 5.169979605485537)"><path d="M0 0 C0 0, 0 0, 0 0 M0 0 C0 0, 0 0, 0 0 M-0.91 6.82 C0.88 4.68, 2.09 4.47, 5.51 0.17 M-0.53 6.37 C1.13 5.49, 2.2 3.66, 5 0.13 M-0.35 12.33 C4.37 7.08, 9.4 3.35, 9.5 1.01 M0.71 10.64 C3.73 6.6, 8.66 3.44, 10.81 0.51 M5.18 10.56 C9.83 8.62, 12.27 4.05, 14.42 0.97 M6.7 10.57 C9.21 7.11, 12.58 3.91, 15.39 -0.05 M10.61 12.64 C14.52 8.6, 15.68 4.57, 21.12 2.04 M11.73 11.61 C14.56 7.42, 17.63 3.72, 21.04 0.97 M16.6 10.44 C18.67 9.39, 18.96 8.59, 20.6 6.18 M16.87 10.81 C18.27 9.61, 19.15 8.56, 20.7 6.53 M0.16 10.48 C0.16 10.48, 0.16 10.48, 0.16 10.48 M0.16 10.48 C0.16 10.48, 0.16 10.48, 0.16 10.48 M5.23 10.85 C2.96 8.38, 1.62 6.83, -0.29 5.15 M5.42 10.3 C4.78 9.31, 3.2 7.5, -0.31 4.75 M11.32 10.72 C9.81 5.84, 5.7 3.3, 0.51 -1.02 M12.61 9.81 C7.85 6.32, 2.49 2.63, 0.27 0.47 M20.16 11.38 C12.27 5.69, 8.9 0.77, 5.96 -1.2 M18.77 10.08 C13.7 6.19, 9.94 3.16, 6.41 -0.31 M22.94 9.2 C17.94 4.29, 13.87 2.01, 12.72 -1.28 M21.71 8.38 C17.94 5.39, 14.54 2.28, 12.75 0.31 M22.36 3.09 C20.78 2.35, 19.19 0.68, 18.18 0.43 M22.25 3.25 C20.96 2.25, 20.2 1.2, 18.8 0.1" stroke="#fab005" stroke-width="0.5" fill="none"></path><path d="M-1.15 -0.53 C6.16 0.87, 12.71 0.09, 21.43 0.8 M0.84 0.57 C6.38 -0.17, 12.22 1.12, 19.65 -0.84 M19.48 -0.13 C20.56 1.84, 21.3 4.21, 20.28 11.34 M20.33 -0.08 C20.64 2.8, 20.47 6.15, 20.76 10.3 M22.33 12.04 C13.71 10.37, 11.07 9.55, 0.08 8.73 M21.28 11.23 C14.42 10.25, 8.13 10.24, 0.33 10.17 M-0.24 10.16 C-0.4 7.7, -0.91 4.35, -0.89 0.88 M-0.3 9.96 C0.19 8.13, 0.07 5.54, 0.16 -0.1" stroke="#000000" stroke-width="1" fill="none"></path></g><g stroke-linecap="round" transform="translate(23.519839584888132 210.6075892117567) rotate(0 10.200337848168658 5.169979605485537)"><path d="M0 0 C0 0, 0 0, 0 0 M0 0 C0 0, 0 0, 0 0 M0.16 6.36 C0.36 5.28, 2.5 4.52, 4.79 -0.29 M-0.29 6.59 C1.27 5.27, 1.86 3.9, 4.75 0.64 M1.84 11.21 C3.61 9.39, 6.92 3.68, 11.67 1.02 M0.15 10.56 C3.03 8.72, 6.78 5.21, 11.18 0.22 M6.1 11.17 C9.97 8.01, 11.21 4.53, 16.26 0.47 M6.11 10.87 C9.12 7.67, 12.39 3.26, 15.24 0.01 M12.81 11.94 C13.59 8.35, 14.4 6.91, 21.96 1.44 M11.78 11.15 C14.12 7.71, 16.96 5.21, 20.88 0.35 M16.65 11.44 C17.64 9.72, 18.9 8.38, 20.85 6.05 M17.01 11.1 C18.48 9.26, 20.1 7.08, 21.2 6.03 M0.16 10.48 C0.16 10.48, 0.16 10.48, 0.16 10.48 M0.16 10.48 C0.16 10.48, 0.16 10.48, 0.16 10.48 M6.57 9.29 C4.53 8.8, 3.43 7.61, 0.08 4.21 M6.02 10.4 C4.32 8.51, 1.85 6.78, -0.32 4.79 M12.57 11.52 C5.98 6.74, 1.77 2.52, -0.75 1.16 M11.66 10.53 C9.21 7.42, 6.73 5.69, 0.74 0.59 M19.37 9.02 C14.33 7.34, 9.9 3.83, 5.21 1.47 M18.07 10.33 C14.82 8.36, 12.51 4.75, 6.1 0.83 M22.94 8.07 C18.07 4.97, 15.75 3, 11.17 0.63 M22.12 7.82 C19.56 5.58, 16.79 3.9, 12.76 0.18 M22.17 3.11 C21.36 1.83, 19.66 0.7, 19.01 0.06 M22.33 3.06 C21.35 2.56, 20.28 1.63, 18.69 0.2" stroke="#fab005" stroke-width="0.5" fill="none"></path><path d="M-0.53 0.02 C7.66 0.53, 13.71 1.14, 21.2 -0.42 M0.57 0.69 C7.8 0.67, 17.21 -0.92, 19.56 -0.51 M20.27 0.22 C19.75 3.43, 19.54 4.8, 21.4 10.38 M20.32 0.21 C20.13 3.4, 20.34 7.07, 20.36 10.19 M22.1 9.19 C16.06 12.28, 10.91 10.62, -1.61 10.43 M21.29 10.57 C14.08 10.67, 7.91 10.85, -0.17 10.44 M-0.18 9.86 C0.53 7.04, 0.38 4.83, 0.88 -0.96 M-0.38 10.63 C-0.11 6.42, -0.56 2.31, -0.1 -0.16" stroke="#000000" stroke-width="1" fill="none"></path></g><g stroke-linecap="round" transform="translate(17.000503887129298 358.3478554890305) rotate(0 18.407717007298515 28.152144510969492)"><path d="M-1.42 1.33 L35.97 1.66 L38.04 58.01 L0.2 55.73" stroke="none" stroke-width="0" fill="#ced4da"></path><path d="M0.02 0.83 C10.7 0.15, 21.59 0.89, 36.39 1.96 M0.69 -0.32 C9.2 0.76, 15.96 -1.05, 36.3 -0.62 M37.25 -1.41 C38.19 19.33, 36.08 44.22, 36.9 56.79 M37.23 -0.67 C36.83 21.03, 37.44 42.51, 36.53 55.43 M35.67 56.3 C26.79 55.79, 13.35 55, 0.09 56.34 M37.05 56.14 C24.54 56.45, 12.3 56.46, 0.1 55.54 M-0.92 57.4 C-1.78 37.94, -1.58 19.65, -1.86 1.91 M0.56 56.17 C0.66 35.9, 0.63 17.27, -0.32 -0.27" stroke="#000000" stroke-width="1" fill="none"></path></g><g stroke-linecap="round" transform="translate(21.215466364750114 362.64052690082576) rotate(0 14.504711068306591 21.531193879131138)"><path d="M1.33 -0.84 L30.67 1.23 L30.71 43.27 L-0.58 41.79" stroke="none" stroke-width="0" fill="#fff"></path><path d="M0.83 0.42 C7.09 1.02, 14.87 -0.43, 30.97 -1.46 M-0.32 0.84 C12.12 -0.95, 21.46 -0.71, 28.39 0.75 M27.6 1.87 C27.14 8.85, 30.89 18.26, 29.5 44.63 M28.34 0.08 C28.67 13.05, 28.86 24.41, 28.13 43.26 M29 44.8 C16.68 42.98, 4.4 42.99, 0.03 43.81 M28.85 43.21 C17.57 43.46, 6.33 43.23, -0.77 43.47 M1.1 41.15 C0.9 29.44, 1.79 17.4, 1.91 0.9 M-0.13 43.39 C-0.67 32.96, 0.12 21.93, -0.27 -0.71" stroke="#000000" stroke-width="1" fill="none"></path></g><g stroke-linecap="round" transform="translate(32.749678704146504 407.5458033169273) rotate(0 2.9704987289102007 2.970498728910229)"><path d="M2.7 0.45 C3.29 0.46, 4.53 0.36, 4.99 0.87 C5.46 1.37, 5.59 2.76, 5.48 3.5 C5.36 4.23, 4.78 4.73, 4.3 5.27 C3.83 5.81, 3.27 6.54, 2.65 6.75 C2.03 6.95, 0.91 7.07, 0.58 6.51 C0.24 5.96, 0.83 4.09, 0.64 3.43 C0.45 2.76, -0.69 2.98, -0.57 2.53 C-0.45 2.09, 0.76 1.09, 1.33 0.74 C1.9 0.39, 2.4 0.56, 2.84 0.43 C3.28 0.31, 3.86 0.12, 3.96 0 M4.86 1.44 C5.57 1.32, 5.65 0.48, 5.67 1.01 C5.69 1.54, 5.24 3.95, 4.95 4.6 C4.67 5.25, 4.11 4.45, 3.95 4.89 C3.79 5.32, 4.6 7.03, 3.98 7.21 C3.36 7.38, 1.01 6.7, 0.23 5.95 C-0.54 5.2, -0.78 3.68, -0.66 2.73 C-0.53 1.77, 0.77 0.87, 0.98 0.2 C1.18 -0.46, 0 -1.05, 0.59 -1.26 C1.18 -1.47, 3.84 -1.29, 4.52 -1.06 C5.21 -0.82, 4.95 -0.11, 4.7 0.16" stroke="none" stroke-width="0" fill="#fff"></path><path d="M2.8 0.98 C3.19 1.02, 3.57 1.2, 4.18 1.56 C4.79 1.93, 6.3 2.55, 6.47 3.18 C6.65 3.81, 5.47 5.02, 5.21 5.33 C4.95 5.64, 5.61 5.04, 4.92 5.02 C4.23 5.01, 1.94 5.21, 1.08 5.24 C0.22 5.26, 0.08 5.67, -0.24 5.18 C-0.56 4.69, -1.1 3.16, -0.84 2.29 C-0.58 1.42, 0.42 0.49, 1.31 -0.03 C2.2 -0.56, 4.06 -1.06, 4.5 -0.85 C4.94 -0.63, 4.11 1.01, 3.95 1.25 M4.73 -0.79 C5.35 -0.62, 5.36 0.48, 5.73 1.19 C6.1 1.9, 7.15 3.02, 6.92 3.49 C6.69 3.96, 4.98 3.36, 4.35 4.01 C3.72 4.66, 3.49 7.34, 3.14 7.38 C2.79 7.43, 2.76 4.75, 2.24 4.3 C1.72 3.85, 0.42 5.15, 0.02 4.67 C-0.38 4.19, -0.3 2.18, -0.16 1.44 C-0.02 0.69, 0.15 0.31, 0.86 0.21 C1.58 0.1, 3.37 0.55, 4.13 0.79 C4.88 1.02, 5.37 1.71, 5.4 1.62" stroke="#000000" stroke-width="1" fill="none"></path></g><g stroke-linecap="round" transform="translate(25.519839584888132 368.12213109533536) rotate(0 10.200337848168658 5.169979605485537)"><path d="M0 0 C0 0, 0 0, 0 0 M0 0 C0 0, 0 0, 0 0 M0.4 6.92 C1.13 3.96, 2.16 2.44, 4.45 0.3 M-0.39 6.41 C1.27 4.56, 3.29 2.52, 4.68 0.64 M1.32 10.16 C4.73 8.92, 6.24 3.35, 10.48 -1.32 M1.24 11.47 C3.42 9.16, 4.49 6.22, 9.96 -0.21 M6.59 9.69 C9.92 7.68, 12.89 5.19, 16.15 -0.32 M6.07 10.66 C8.86 7.37, 11.49 5.01, 15.21 1.02 M10.2 11.77 C15.97 8.35, 17.89 4.44, 21.22 1.4 M11.4 11.69 C14.32 7.94, 16.19 5.6, 20.06 0.2 M17.1 10.45 C18.5 8.79, 20.73 7.74, 20.62 6.23 M17.09 10.56 C18.78 8.82, 20 7.55, 20.97 6.1 M0.16 10.48 C0.16 10.48, 0.16 10.48, 0.16 10.48 M0.16 10.48 C0.16 10.48, 0.16 10.48, 0.16 10.48 M6.16 10.02 C4.9 8.4, 3.4 8.32, -1 5.26 M5.52 10.01 C3.39 8.06, 1.55 6.21, -0.45 4.93 M11.16 10.73 C6.93 7.78, 2.2 3.85, 0.94 -1.23 M12.41 10.49 C8.94 7.62, 4.44 2.9, 0.91 0.24 M17.09 10.04 C14.91 9.84, 13.4 6.91, 6.87 -0.95 M19.18 10.5 C15.03 8.64, 12.6 4.7, 7.12 0.7 M22.45 8.79 C18.21 6.68, 16.22 2.69, 11.63 -0.01 M22.38 8.83 C20.22 6.68, 17.53 4.61, 12.19 -0.5 M22.18 2.87 C21.75 2.43, 20.19 1.08, 18.39 -0.03 M22.38 3.5 C21.62 2.79, 20.7 1.87, 18.69 -0.13" stroke="#fab005" stroke-width="0.5" fill="none"></path><path d="M0.05 1.03 C6.93 -0.47, 14.23 -1.5, 22.09 1.14 M0.97 -0.75 C6.69 -0.68, 14.44 0.58, 19.51 -0.13 M19.46 -0.12 C21.33 3.37, 20.58 7.46, 20.26 10.17 M20.26 0.36 C20.29 3.38, 19.88 7.16, 20.9 10.78 M19.57 10.42 C13.84 10.61, 10.54 11.27, 1.76 12.13 M20.22 10.67 C13.63 10.47, 6.44 10.78, -0.24 10.16 M0.42 9.45 C0.83 6.76, 0.93 5.56, -0.6 -0.77 M-0.51 10.5 C-0.09 6.5, -0.12 2.62, 0.34 -0.22" stroke="#000000" stroke-width="1" fill="none"></path></g><g stroke-linecap="round" transform="translate(25.519839584888132 386.6075892117567) rotate(0 10.200337848168658 5.169979605485537)"><path d="M0 0 C0 0, 0 0, 0 0 M0 0 C0 0, 0 0, 0 0 M0.26 6.2 C0.38 4.15, 1.96 2.83, 4.92 0.75 M-0.25 6.16 C2.09 3.97, 4.24 1.31, 5.27 0.34 M-0.34 12.33 C4.74 7.45, 5.5 4.2, 9.34 -1.49 M0.97 11.83 C3.16 8.31, 4.72 5.49, 10.45 0.11 M5.24 11.54 C10.14 7.48, 14.58 3.26, 14.97 0.29 M6.2 10.52 C8.23 7.96, 11.19 5.52, 16.31 0.67 M11.94 12.61 C15.03 8.15, 17.64 5.45, 21.32 0.47 M11.86 11.53 C13.81 7.69, 17.16 4.54, 20.12 1.37 M16.66 10.7 C17.77 10.25, 19.5 8.22, 20.9 6.82 M16.76 11.06 C17.84 9.52, 19.39 8.31, 20.77 6.38 M0.16 10.48 C0.16 10.48, 0.16 10.48, 0.16 10.48 M0.16 10.48 C0.16 10.48, 0.16 10.48, 0.16 10.48 M5.74 10.4 C3.3 8.5, 2.38 6.08, 0.19 5.46 M5.73 10 C3.39 8.35, 1.16 5.73, -0.14 5.13 M12.58 9.47 C11 7.02, 8.52 6.78, -0.95 0.21 M12.34 10.96 C9.57 7.4, 4.79 5.17, 0.51 -0.94 M18.03 9.3 C16.88 7.41, 12.97 5.47, 5.46 -0.44 M18.49 10.19 C16.26 8.45, 12.12 6.1, 7.12 0.01 M22.53 7.25 C20.41 5.93, 16.36 3.39, 12.44 -1.13 M22.56 8.84 C19 5.49, 15.46 2.3, 11.95 -0.47 M21.95 3.71 C21.09 1.99, 19.29 0.73, 18.55 -0.41 M22.58 3.38 C21.32 2.25, 19.92 1.29, 18.45 -0.19" stroke="#fab005" stroke-width="0.5" fill="none"></path><path d="M1.03 0.8 C6.54 1.95, 12.46 1.68, 21.55 1.38 M-0.75 -0.84 C4.96 -0.82, 11.71 -1.09, 20.27 0.22 M20.28 1 C20.54 2.63, 21.31 4.61, 20.23 10.77 M20.76 -0.04 C20.26 1.95, 20.51 5.31, 20.84 10.04 M20.48 8.73 C14.38 10.29, 8.92 12.02, 1.79 10.81 M20.73 10.17 C14.72 9.54, 9.23 10.07, -0.18 9.88 M-0.89 11.22 C-0.86 7.66, 0.56 2.4, -0.77 0.58 M0.16 10.24 C-0.2 7.24, -0.4 4.75, -0.22 0.43" stroke="#000000" stroke-width="1" fill="none"></path></g><g stroke-linecap="round" transform="translate(409.5053824992211 243.92398760310493) rotate(0 48.02441435389869 47.10086792401597)"><path d="M0.13 1.53 L96.77 0.77 L94.97 95.71 L-0.3 93.59" stroke="none" stroke-width="0" fill="#868e96"></path><path d="M0.62 1.94 C38.53 -0.86, 75.55 -1.22, 96.5 -1.65 M-0.05 -0.39 C37.07 -0.55, 72.56 0.58, 95.64 0.71 M97.11 -1.67 C94.7 25.33, 97.21 47.66, 96.29 93.43 M96.03 0.28 C95.44 20.17, 95.43 41.75, 96.73 94.08 M96.02 94 C59.14 92.31, 25.88 94.36, -1.11 94.11 M95.76 94.4 C75.87 95.14, 56.46 93.83, -0.54 93.94 M0.44 95.59 C-0.83 68.64, 0.88 44.25, 0.73 -1.79 M0.29 94.35 C0.92 72.77, -0.02 50.89, 0.46 -0.31" stroke="#000000" stroke-width="1" fill="none"></path></g><g stroke-linecap="round" transform="translate(403.23450224032115 237.7639329157871) rotate(0 48.02441435389869 47.10086792401597)"><path d="M1.53 0.72 L96.82 -1.08 L97.56 93.91 L-0.61 95.01" stroke="none" stroke-width="0" fill="#ced4da"></path><path d="M1.94 1.48 C20.01 1.16, 39.92 0.15, 94.4 1.6 M-0.39 0.6 C22.49 -0.35, 47 -0.36, 96.76 -0.46 M94.38 -1.18 C98.21 27.89, 96.59 53.36, 95.27 92.64 M96.33 0.24 C94.4 20.07, 95.08 40.38, 95.93 94.93 M95.85 93.05 C62.74 95.55, 33.21 93.08, -0.09 92.31 M96.24 93.73 C68.75 93.75, 39.63 93.39, -0.26 93.88 M1.39 92.59 C-0.4 73.83, 0.46 53.98, -1.79 -1.34 M0.15 94.95 C0.73 67.39, 0.8 41.43, -0.31 0.06" stroke="#000000" stroke-width="1" fill="none"></path></g><g stroke-linecap="round" transform="translate(396.2617266947078 230.874276548863) rotate(0 48.02441435389869 47.10086792401597)"><path d="M0.72 0.77 L94.97 1.51 L95.75 93.59 L0.8 95.52" stroke="none" stroke-width="0" fill="#eeeeee"></path><path d="M1.48 -0.26 C36.31 -1.55, 70.14 -2.58, 97.64 -1.13 M0.6 -0.89 C25.06 0.63, 50.5 1.09, 95.59 -0.18 M94.87 1.38 C97.88 35.76, 96.79 71.2, 94.49 92.42 M96.29 -0.74 C96.26 19.14, 96.72 38.28, 96.77 94.49 M94.9 92.47 C70.11 94.41, 40.34 94.01, -1.9 93.99 M95.58 94.71 C62.8 93.59, 29.37 94.12, -0.32 93.38 M-1.61 93.89 C-0.1 65.59, 0.52 34.08, -1.34 -0.35 M0.75 94.72 C-0.47 68.66, 0.18 41.63, 0.06 0.76" stroke="#000000" stroke-width="1" fill="none"></path></g><g transform="translate(397.2861410486065 251.97514447287926) rotate(0 47 30)"><text x="47" y="12" font-family="Helvetica, Segoe UI Emoji" font-size="14.876839160052583px" fill="#000000" text-anchor="middle" style="white-space: pre;" direction="ltr">Cron</text><text x="47" y="27" font-family="Helvetica, Segoe UI Emoji" font-size="14.876839160052583px" fill="#000000" text-anchor="middle" style="white-space: pre;" direction="ltr"></text><text x="47" y="42" font-family="Helvetica, Segoe UI Emoji" font-size="14.876839160052583px" fill="#000000" text-anchor="middle" style="white-space: pre;" direction="ltr">Every 30 mins</text><text x="47" y="57" font-family="Helvetica, Segoe UI Emoji" font-size="14.876839160052583px" fill="#000000" text-anchor="middle" style="white-space: pre;" direction="ltr"></text></g><g stroke-linecap="round"><g transform="translate(404.90796895086316 108.5) rotate(0 -61.77358300972264 37.054537678319036)"><path d="M-0.41 1.08 C-21.07 13.45, -104.37 61.46, -125.13 73.51 M1.58 0.6 C-18.62 12.67, -102.32 59.88, -123.01 71.66" stroke="#000000" stroke-width="1" fill="none"></path></g><g transform="translate(404.90796895086316 108.5) rotate(0 -61.77358300972264 37.054537678319036)"><path d="M-101.75 46.95 C-106.76 51.79, -110.89 58.91, -121.91 70.78 M-103.41 49.81 C-109.78 57.62, -117.53 65.89, -122.12 72.1" stroke="#000000" stroke-width="1" fill="none"></path></g><g transform="translate(404.90796895086316 108.5) rotate(0 -61.77358300972264 37.054537678319036)"><path d="M-91.63 64.81 C-98.58 66, -104.76 69.51, -121.91 70.78 M-93.29 67.66 C-103.3 68.92, -114.74 70.67, -122.12 72.1" stroke="#000000" stroke-width="1" fill="none"></path></g></g><mask></mask><g mask="url(#mask-ao0ihpi_NkDUKntl7HInI)" stroke-linecap="round"><g transform="translate(172.90796895086316 178.5) rotate(0 -64.80475309196393 -27.6625033855438)"><path d="M0.05 0.22 C-21.55 -9.19, -107.27 -46.44, -128.46 -55.54 M-1.39 -0.71 C-23.28 -10.05, -108.65 -45, -129.66 -54.29" stroke="#000000" stroke-width="1" fill="none"></path></g><g transform="translate(172.90796895086316 178.5) rotate(0 -64.80475309196393 -27.6625033855438)"><path d="M-99.33 -53.52 C-112.37 -51.9, -122.26 -53.83, -127.7 -54.39 M-98.86 -53.42 C-106.28 -53.54, -113.59 -52.67, -128.79 -55.02" stroke="#000000" stroke-width="1" fill="none"></path></g><g transform="translate(172.90796895086316 178.5) rotate(0 -64.80475309196393 -27.6625033855438)"><path d="M-107.34 -34.62 C-117.38 -40.43, -124.13 -49.77, -127.7 -54.39 M-106.87 -34.53 C-112.44 -39.2, -117.83 -42.86, -128.79 -55.02" stroke="#000000" stroke-width="1" fill="none"></path></g></g><mask id="mask-ao0ihpi_NkDUKntl7HInI"><rect x="0" y="0" fill="#fff" width="400.90796895086316" height="333.5"></rect><rect x="95.40796895086316" y="142.5" fill="#000" width="27" height="17" opacity="1"></rect></mask><g transform="translate(95.40796895086316 142.5) rotate(0 12.695246908036069 8.3374966144562)"><text x="13.5" y="13" font-family="Helvetica, Segoe UI Emoji" font-size="16px" fill="#000000" text-anchor="middle" style="white-space: pre;" direction="ltr">ads</text></g><g mask="url(#mask-7g86g1IGjMhpbjiPrzy1n)" stroke-linecap="round"><g transform="translate(174.90796895086316 208.5) rotate(0 -62.34145083427427 3.2131325345812343)"><path d="M1.01 1.18 C-20.14 2.11, -104.59 4.96, -125.69 5.68 M0.08 0.75 C-20.78 1.32, -102.21 3.46, -123.35 3.91" stroke="#000000" stroke-width="1" fill="none"></path></g><g transform="translate(174.90796895086316 208.5) rotate(0 -62.34145083427427 3.2131325345812343)"><path d="M-93.45 -8.18 C-105.45 -3.47, -116.92 2.18, -123.89 5.56 M-95.11 -6.19 C-102.07 -4.05, -109.2 -1.99, -123.5 4.23" stroke="#000000" stroke-width="1" fill="none"></path></g><g transform="translate(174.90796895086316 208.5) rotate(0 -62.34145083427427 3.2131325345812343)"><path d="M-92.95 12.33 C-105.17 8.84, -116.84 6.29, -123.89 5.56 M-94.62 14.33 C-101.58 11.67, -108.82 8.95, -123.5 4.23" stroke="#000000" stroke-width="1" fill="none"></path></g></g><mask id="mask-7g86g1IGjMhpbjiPrzy1n"><rect x="0" y="0" fill="#fff" width="399.90796895086316" height="313.5"></rect><rect x="98.90796895086316" y="202.5" fill="#000" width="27" height="17" opacity="1"></rect></mask><g transform="translate(98.90796895086316 202.5) rotate(0 13.65854916572573 9.213132534581234)"><text x="13.5" y="13" font-family="Helvetica, Segoe UI Emoji" font-size="16px" fill="#000000" text-anchor="middle" style="white-space: pre;" direction="ltr">ads</text></g><g mask="url(#mask-xUA0s6cXKUoSdXeyB-B_Q)" stroke-linecap="round"><g transform="translate(176.90796895086316 216.5) rotate(0 -59.898514854824185 80.86077548812602)"><path d="M-0.45 -0.76 C-20.46 26.07, -100.5 134.36, -120.92 161.31 M1.51 1.46 C-18.49 28.4, -100.95 135.78, -121.3 162.48" stroke="#000000" stroke-width="1" fill="none"></path></g><g transform="translate(176.90796895086316 216.5) rotate(0 -59.898514854824185 80.86077548812602)"><path d="M-113.58 135.65 C-115.43 138.67, -118.16 147.13, -122.67 160.8 M-111.65 132.95 C-114.88 140.08, -116.29 148.42, -120.64 162.24" stroke="#000000" stroke-width="1" fill="none"></path></g><g transform="translate(176.90796895086316 216.5) rotate(0 -59.898514854824185 80.86077548812602)"><path d="M-97.28 148.12 C-102.87 148.25, -109.31 153.88, -122.67 160.8 M-95.36 145.42 C-102.57 149.32, -108.08 154.52, -120.64 162.24" stroke="#000000" stroke-width="1" fill="none"></path></g></g><mask id="mask-xUA0s6cXKUoSdXeyB-B_Q"><rect x="0" y="0" fill="#fff" width="398.90796895086316" height="478.5"></rect><rect x="102.40796895086316" y="289" fill="#000" width="27" height="17" opacity="1"></rect></mask><g transform="translate(102.40796895086316 289) rotate(0 14.601485145175815 8.360775488126023)"><text x="13.5" y="13" font-family="Helvetica, Segoe UI Emoji" font-size="16px" fill="#000000" text-anchor="middle" style="white-space: pre;" direction="ltr">ads</text></g><g stroke-linecap="round"><g transform="translate(617.9570575818506 288.1725279499692) rotate(0 -57.11739429895022 0.8982746617948578)"><path d="M-0.53 -1.12 C-19.64 -0.53, -96.62 2.16, -115.63 2.92 M1.4 0.9 C-17.22 1.19, -93.8 0.93, -113.23 1.05" stroke="#000000" stroke-width="1" fill="none"></path></g><g transform="translate(617.9570575818506 288.1725279499692) rotate(0 -57.11739429895022 0.8982746617948578)"><path d="M-86.92 -10.21 C-90.46 -6.38, -95.8 -6.73, -113.15 1.43 M-84.91 -9.61 C-93.83 -7.01, -103.77 -3.21, -113.21 0.2" stroke="#000000" stroke-width="1" fill="none"></path></g><g transform="translate(617.9570575818506 288.1725279499692) rotate(0 -57.11739429895022 0.8982746617948578)"><path d="M-86.9 10.31 C-90.34 9.66, -95.67 4.82, -113.15 1.43 M-84.89 10.91 C-93.81 6.96, -103.76 4.2, -113.21 0.2" stroke="#000000" stroke-width="1" fill="none"></path></g></g><mask></mask><g transform="translate(394.90796895086316 10) rotate(0 49.5 8.5)"><text x="0" y="13" font-family="Helvetica, Segoe UI Emoji" font-size="16px" fill="#000000" text-anchor="start" style="white-space: pre;" direction="ltr">ElasticSearch</text></g><g stroke-linecap="round"><g transform="translate(444.90796895086316 230.5) rotate(0 -0.15550493645946517 -49.14270052909853)"><path d="M0.27 0.18 C0.41 -16.17, 0.6 -82.29, 0.74 -98.46 M-1.05 -0.77 C-0.99 -16.92, -0.14 -80.86, 0.18 -97.17" stroke="#000000" stroke-width="1" fill="none"></path></g><g transform="translate(444.90796895086316 230.5) rotate(0 -0.15550493645946517 -49.14270052909853)"><path d="M10.29 -67.59 C6.47 -75.22, 6.25 -84.21, -1.19 -96.14 M10.19 -67.83 C6.88 -78.85, 2.43 -89, 0.24 -96.18" stroke="#000000" stroke-width="1" fill="none"></path></g><g transform="translate(444.90796895086316 230.5) rotate(0 -0.15550493645946517 -49.14270052909853)"><path d="M-10.23 -67.91 C-8.11 -75.5, -2.39 -84.39, -1.19 -96.14 M-10.33 -68.15 C-6.65 -79.1, -4.12 -89.14, 0.24 -96.18" stroke="#000000" stroke-width="1" fill="none"></path></g></g><mask></mask></svg>