<svg version="1.1" xmlns="http://www.w3.org/2000/svg" viewBox="0 0 458.5 391.1521445109695" width="917" height="782.304289021939">
  <!-- svg-source:excalidraw -->
  
  <defs>
    <style class="style-fonts">
      @font-face {
        font-family: "Virgil";
        src: url("https://excalidraw.com/Virgil.woff2");
      }
      @font-face {
        font-family: "Cascadia";
        src: url("https://excalidraw.com/Cascadia.woff2");
      }
    </style>
  </defs>
  <rect x="0" y="0" width="458.5" height="391.1521445109695" fill="#ffffff"></rect><g stroke-linecap="round" transform="translate(333.5 119.15214451096952) rotate(0 57.5 46)"><path d="M23 0 M23 0 C41.38 0.3, 55.35 -1.85, 92 0 M23 0 C50.38 0.87, 75.92 -0.07, 92 0 M92 0 C106.44 0.06, 113.29 7.54, 115 23 M92 0 C107.76 -1.08, 116.81 7.9, 115 23 M115 23 C114.15 37.85, 116.28 53.08, 115 69 M115 23 C115.63 33.96, 114.64 43.83, 115 69 M115 69 C115.77 84.24, 106.92 92.6, 92 92 M115 69 C112.76 82.2, 109.63 92.18, 92 92 M92 92 C67.91 92.59, 45.01 94.28, 23 92 M92 92 C76.54 92.07, 62.42 93.47, 23 92 M23 92 C6.01 92.34, 0.48 84.16, 0 69 M23 92 C7.46 90.93, -1.33 85.13, 0 69 M0 69 C-1.13 59.23, -0.5 45.72, 0 23 M0 69 C-1.31 56.32, -0.37 42.85, 0 23 M0 23 C0.74 8.9, 8.6 1.83, 23 0 M0 23 C0.37 9.77, 6.66 -1.37, 23 0" stroke="#000000" stroke-width="1" fill="none"></path></g><g transform="translate(344 154.65214451096952) rotate(0 47 10.5)"><text x="47" y="16" font-family="Helvetica, Segoe UI Emoji" font-size="20px" fill="#000000" text-anchor="middle" style="white-space: pre;" direction="ltr">Ad system</text></g><g mask="url(#mask-grcpch-CSclZZzDCehogl)" stroke-linecap="round"><g transform="translate(110.5 71.1533622058358) rotate(0 112.65288204157724 28.678776445832682)"><path d="M0.32 -1.06 C37.84 8.6, 186.56 47.07, 224.06 56.92 M-0.98 1 C37.01 10.95, 188.67 49.21, 226.28 58.41" stroke="#000000" stroke-width="1" fill="none"></path></g><g transform="translate(110.5 71.1533622058358) rotate(0 112.65288204157724 28.678776445832682)"><path d="M194.69 59.99 C202.64 61.36, 210.82 59.33, 224.98 56.44 M195.96 61.2 C204.73 61.16, 212.23 59.48, 227.07 57.56" stroke="#000000" stroke-width="1" fill="none"></path></g><g transform="translate(110.5 71.1533622058358) rotate(0 112.65288204157724 28.678776445832682)"><path d="M199.65 40.08 C206.38 45.66, 213.51 47.84, 224.98 56.44 M200.93 41.29 C208.58 46.4, 214.8 49.86, 227.07 57.56" stroke="#000000" stroke-width="1" fill="none"></path></g></g><mask id="mask-grcpch-CSclZZzDCehogl"><rect x="0" y="0" fill="#fff" width="435.5" height="228.15214451096952"></rect><rect x="189" y="82.65275335840266" fill="#000" width="68" height="34" opacity="1"></rect></mask><g transform="translate(189 82.6527533584026) rotate(0 34.15288204157724 17.179385293265852)"><text x="34" y="30" font-family="Helvetica, Segoe UI Emoji" font-size="16px" fill="#000000" text-anchor="middle" style="white-space: pre;" direction="ltr">create ad</text></g><g mask="url(#mask-fumzNAwaEapkLLB_3loQg)" stroke-linecap="round"><g transform="translate(336.5 201.15214451096952) rotate(0 -112.27939218669201 34.28182059457964)"><path d="M0.6 0.46 C-36.78 11.79, -186.9 56.51, -224.48 67.64 M-0.55 -0.34 C-38.02 11.17, -187.64 57.51, -225.16 68.91" stroke="#000000" stroke-width="1" fill="none"></path></g><g transform="translate(336.5 201.15214451096952) rotate(0 -112.27939218669201 34.28182059457964)"><path d="M-200.45 51.68 C-208.88 56.18, -216.33 62.51, -226.31 69.18 M-201.48 51.65 C-205.77 54.32, -211.06 58.64, -225.22 68.17" stroke="#000000" stroke-width="1" fill="none"></path></g><g transform="translate(336.5 201.15214451096952) rotate(0 -112.27939218669201 34.28182059457964)"><path d="M-194.43 71.3 C-204.5 70.3, -213.65 71.09, -226.31 69.18 M-195.46 71.26 C-200.99 69.71, -207.57 69.8, -225.22 68.17" stroke="#000000" stroke-width="1" fill="none"></path></g></g><mask id="mask-fumzNAwaEapkLLB_3loQg"><rect x="0" y="0" fill="#fff" width="661.5" height="369.29969143264873"></rect><rect x="193.5" y="226.72591797180917" fill="#000" width="61" height="17" opacity="1"></rect></mask><g transform="translate(193.5 226.72591797180917) rotate(0 30.720607813307993 8.708047133740024)"><text x="30.5" y="13" font-family="Helvetica, Segoe UI Emoji" font-size="16px" fill="#000000" text-anchor="middle" style="white-space: pre;" direction="ltr">show ad</text></g><g stroke-linecap="round" transform="translate(47.091779105572186 10) rotate(0 27.888767252043692 42.65214451096951)"><path d="M0.8 -1.19 L56.25 1.33 L54.27 86.47 L-0.76 84.59" stroke="none" stroke-width="0" fill="#ced4da"></path><path d="M-0.98 -0.93 C12.26 2.43, 27.55 1.75, 56.76 1.54 M-0.27 0.53 C15.46 1.28, 30.96 -0.14, 55.8 0.43 M57.11 -0.71 C54.99 34.5, 57.69 68.25, 56.98 84.35 M56.17 -0.37 C56.6 26.78, 55.53 53.68, 56.16 85.2 M54.67 85.48 C35.41 85.38, 16.03 85.75, 0.92 85.6 M55.81 85.67 C39.86 85.21, 22.61 85.08, 0.37 84.63 M0.24 84.19 C-0.88 53.97, -1.63 20.75, 1.45 -1.24 M0.9 85.05 C-0.33 62.2, 0.42 39.57, 0.61 -0.92" stroke="#000000" stroke-width="1" fill="none"></path></g><g stroke-linecap="round" transform="translate(53.477693636301694 16.503648108323205) rotate(0 21.975485112127473 32.6210172894135)"><path d="M-1.19 0.48 L45.28 -1.51 L45.12 64.48 L-0.71 65.71" stroke="none" stroke-width="0" fill="#fff"></path><path d="M-0.93 -0.68 C13.94 1.9, 25.24 1.2, 45.49 -0.5 M0.53 0.11 C15.69 0.38, 29.04 0.14, 44.39 0.96 M43.24 -0.83 C44.59 21.73, 44.53 40.9, 42.99 65.48 M43.58 0.67 C43.86 20.38, 44.13 41.95, 43.84 65.72 M44.13 64.29 C30.54 64.07, 17.5 65.92, 0.29 65.06 M44.32 65.55 C29.78 64.54, 15.59 65.62, -0.67 65.98 M-1.11 65.2 C-0.04 38.43, -1.35 14.65, -1.24 -0.66 M-0.25 64.71 C-0.5 47.47, -0.36 29.88, -0.92 0.4" stroke="#000000" stroke-width="1" fill="none"></path></g><g stroke-linecap="round" transform="translate(70.95269953961571 84.53776672611716) rotate(0 4.500479208813431 4.500479208813431)"><path d="M2.25 1.03 C3.29 0.75, 5.95 1.09, 6.99 1.19 C8.03 1.3, 8.18 0.93, 8.5 1.66 C8.82 2.38, 9.16 4.54, 8.92 5.53 C8.68 6.51, 7.64 7.08, 7.03 7.55 C6.42 8.03, 6.22 8.35, 5.27 8.38 C4.32 8.41, 2.13 8.09, 1.31 7.73 C0.49 7.37, 0.5 7.22, 0.34 6.22 C0.18 5.23, -0.15 2.74, 0.33 1.75 C0.81 0.77, 2.6 0.49, 3.21 0.32 C3.82 0.14, 4.08 0.6, 4 0.71 M2.05 1.07 C2.75 0.5, 4.55 -0.65, 5.68 -0.18 C6.82 0.29, 8.52 3.15, 8.86 3.92 C9.19 4.69, 8.09 3.55, 7.71 4.44 C7.32 5.32, 7.19 8.48, 6.54 9.21 C5.89 9.95, 4.87 9.2, 3.79 8.87 C2.72 8.53, 0.47 7.88, 0.07 7.22 C-0.33 6.56, 1.4 5.78, 1.37 4.88 C1.34 3.98, -0.64 2.44, -0.11 1.81 C0.42 1.18, 3.78 1.56, 4.56 1.11 C5.34 0.66, 5.02 -0.69, 4.58 -0.88" stroke="none" stroke-width="0" fill="#fff"></path><path d="M7.12 1.3 C7.77 1.64, 8.26 2.47, 8.43 3.19 C8.6 3.91, 8.3 4.76, 8.13 5.63 C7.96 6.51, 7.96 7.84, 7.4 8.44 C6.84 9.03, 5.91 9.37, 4.78 9.21 C3.66 9.06, 1.37 8.13, 0.64 7.53 C-0.08 6.92, 0.38 6.59, 0.44 5.61 C0.5 4.63, 0.37 2.62, 1.01 1.64 C1.64 0.67, 3.32 -0.16, 4.24 -0.26 C5.17 -0.35, 5.9 0.81, 6.55 1.08 C7.21 1.35, 8.04 1.43, 8.17 1.35 M5.36 -0.54 C6.4 -0.4, 8.1 0.62, 8.6 1.48 C9.1 2.34, 8.33 3.76, 8.36 4.65 C8.4 5.54, 9.14 6.11, 8.83 6.82 C8.52 7.53, 7.48 8.73, 6.5 8.89 C5.52 9.05, 3.92 8.31, 2.94 7.8 C1.95 7.28, 1.08 6.64, 0.61 5.79 C0.14 4.95, -0.13 3.46, 0.12 2.75 C0.37 2.05, 1.28 2.06, 2.09 1.58 C2.9 1.1, 4.49 0.11, 4.99 -0.13 C5.49 -0.37, 5.1 -0.06, 5.07 0.13" stroke="#000000" stroke-width="1" fill="none"></path></g><g stroke-linecap="round" transform="translate(59.999070668269326 24.808598879126635) rotate(0 15.454108080159813 7.832821303045407)"><path d="M0 0 C0 0, 0 0, 0 0 M0 0 C0 0, 0 0, 0 0 M0.14 6.5 C1.54 4.43, 2.85 4.1, 5.5 0.43 M-0.32 6.19 C1.3 4.88, 2.4 3.6, 4.64 0.26 M1 13.62 C1.27 9.19, 5.55 5.93, 11.45 -0.72 M-0.66 12.72 C2.1 9.64, 5.04 6.76, 10.85 -0.41 M2.22 17.1 C3.87 10.75, 9.85 9.92, 15.72 1.59 M0.84 17.48 C6.49 10.35, 11.63 5.12, 16.04 0.32 M5.61 17.89 C13.24 9.96, 17.45 5.09, 20.53 -1.43 M7.62 16.42 C11.98 10.13, 17 5.54, 21.93 -0.15 M12.49 16.65 C16.47 8.43, 23.07 2.6, 26.5 -0.21 M11.13 16.85 C16.97 11.58, 21.86 4.97, 25.45 0.46 M17 16.76 C23.06 8.82, 29.48 3.15, 33.09 1.86 M17.94 17.15 C20.64 12.9, 24.56 8.2, 32.01 0.32 M21.6 16.42 C24.39 13.86, 26.41 13.17, 33.01 7.1 M22.01 17.37 C25.72 13.75, 27.98 10.59, 31.08 6.63 M27.7 16.49 C28.95 15.7, 29.42 14.52, 31.79 13.12 M27.93 16.66 C28.55 15.75, 29.53 14.71, 31.58 12.65 M-0.21 15.48 C-0.21 15.48, -0.21 15.48, -0.21 15.48 M-0.21 15.48 C-0.21 15.48, -0.21 15.48, -0.21 15.48 M6.39 15.31 C4.63 14.43, 2.09 11.64, -0.4 9.92 M6.03 15.68 C4.28 14.02, 2.89 12.67, -0.06 10.43 M12.3 13.87 C7.92 10.47, 1.06 6.49, -1.46 5.57 M12.08 15.93 C7.44 12.47, 3.21 9.15, 0.5 4.06 M16.82 16.87 C14.66 9.68, 9.54 6.75, 1.48 -0.34 M17.28 15.99 C13.82 12.78, 9.93 8.32, 0.61 0.57 M23.18 13.89 C20.6 13.28, 17.27 7.37, 5.74 -1.34 M25.37 15.13 C19.09 11.85, 14.88 6.75, 6.63 -0.51 M29.8 15.84 C24.92 10.2, 17.92 5.14, 13.71 0.76 M30.69 16.34 C25.5 11.68, 21.68 8.83, 12.25 -0.48 M33.27 12.45 C29.97 9.87, 24.45 2.58, 20.02 -1.3 M34.34 12.9 C28.4 8.31, 25.71 6.24, 18.06 0.12 M32.08 7.48 C29.37 5.83, 27.62 2.03, 24.04 -0.71 M33.39 7.91 C30.72 4.96, 27.86 2.38, 24.03 -0.43 M33.45 2.18 C32.55 1.71, 31.12 0.55, 30.38 -0.4 M33.45 2.6 C32.56 1.65, 31.28 0.58, 30.76 -0.29" stroke="#fab005" stroke-width="0.5" fill="none"></path><path d="M1.97 1.68 C9.04 1.09, 17.06 -0.39, 31.63 -1.3 M0.92 0.26 C7.93 -0.01, 17.31 0.93, 30.95 -0.08 M31.45 1.47 C31.35 6.68, 30.1 11.67, 31.2 15.05 M31.04 -0.32 C31.19 5.61, 30.77 11, 30.95 15.78 M30.9 14.73 C23.71 16.44, 16.08 15.34, 0.4 15.7 M30.8 14.95 C21.31 16.13, 11.5 16.5, 0.99 16.6 M0.45 15.05 C-0.49 11.92, -0.88 5.37, -0.38 0.41 M-0.26 15.83 C-0.1 10.03, -0.68 3.76, -0.47 0.19" stroke="#000000" stroke-width="1" fill="none"></path></g><g stroke-linecap="round" transform="translate(59.999070668269326 52.81514845569157) rotate(0 15.454108080159813 7.832821303045421)"><path d="M0 0 C0 0, 0 0, 0 0 M0 0 C0 0, 0 0, 0 0 M-0.16 6.97 C0.18 5.86, 2.26 4.43, 5.06 -0.02 M-0.47 6.67 C1.66 4.26, 3.81 1.67, 4.89 0.2 M1.71 10.51 C3.95 7.93, 7.37 4.64, 9.95 -1.5 M0.82 11.91 C4.21 8.23, 7.79 3.29, 10.26 -0.3 M1.35 15.75 C3.63 12.97, 11.43 7.31, 16.89 1.39 M1.73 17.25 C5.74 11.25, 11.68 5.22, 15.61 1.28 M8.18 17.13 C10.17 11.86, 15.22 8.16, 19.89 1.14 M6.71 16.46 C10.44 11.52, 15.87 7.82, 21.18 0.9 M11.57 15.91 C14.98 10.94, 20.77 5.51, 25.74 1.54 M11.76 16.66 C15.42 13.05, 17.74 9.47, 26.42 1.06 M17.72 16.81 C19.02 14.31, 22.6 10.84, 32.44 -0.26 M18.11 16.22 C22.3 11.46, 26.07 7, 30.91 0.05 M22 16.52 C23.99 14.09, 27.82 13.7, 32.44 6.24 M22.95 17.48 C25.83 13.21, 29.17 8.63, 31.97 5.84 M28.11 16.57 C29.29 15.05, 30.07 14.45, 31.79 12.28 M28.28 16.24 C29.35 15.2, 30.29 14.04, 31.32 12.46 M-0.21 15.48 C-0.21 15.48, -0.21 15.48, -0.21 15.48 M-0.21 15.48 C-0.21 15.48, -0.21 15.48, -0.21 15.48 M5.75 16.15 C5.24 14.48, 2.87 12.9, -0.43 10.26 M6.13 15.45 C4.47 14.35, 3.03 12.89, 0.09 10.83 M10.35 16.1 C7.11 10.59, 3.32 7.49, 0.47 5.34 M12.41 15.01 C7.9 10.99, 3.65 8.5, -1.04 4.54 M19.48 16.74 C11.36 11.79, 7.44 7.99, -0.09 -1.52 M18.61 15.26 C15.21 11.89, 10.36 8.97, 0.82 -0.7 M22.64 16.26 C20.6 12.43, 13.02 5.4, 5.05 -0.09 M23.88 15.71 C18.24 10.74, 10.64 3.87, 5.88 0.52 M30.63 16.15 C26.03 11.79, 22.32 10.04, 13.19 -2.05 M31.13 14.53 C24.05 9.79, 18.98 6.01, 11.94 0.04 M32.98 14.31 C31.8 11.02, 25.71 9.06, 17.26 -0.19 M33.43 12.29 C28.01 9.81, 24.82 4.15, 18.68 0.19 M33.26 6.56 C30.66 4.52, 25.81 1.03, 23.89 -0.18 M33.69 7.8 C30.69 5.7, 28.16 3.04, 24.16 0.05 M33.3 2.56 C32.73 1.34, 31.5 0.43, 30.33 0.18 M33.73 2.57 C33 1.69, 32.11 1.2, 30.44 -0.18" stroke="#fab005" stroke-width="0.5" fill="none"></path><path d="M1.68 1.28 C8.82 1.24, 15.17 0.42, 29.61 -0.54 M0.26 -0.5 C10.93 0.15, 22.77 -0.24, 30.83 0.67 M32.38 0.5 C31.78 3.4, 31.03 8.58, 30.29 16.28 M30.59 0.34 C31.31 4.04, 31.39 8.29, 31.03 15.23 M29.98 16.02 C22.28 15.96, 11.62 16.06, 0.04 15.73 M30.19 15.43 C20.86 14.96, 10.81 16.62, 0.94 15.79 M-0.62 15.09 C1.14 10.87, -0.51 7.63, 0.41 1.41 M0.17 15.52 C0.56 10.64, 0.4 6.59, 0.19 0.52" stroke="#000000" stroke-width="1" fill="none"></path></g><g transform="translate(11.5 330.6521445109695) rotate(0 67.5 8.5)"><text x="0" y="13" font-family="Helvetica, Segoe UI Emoji" font-size="16px" fill="#000000" text-anchor="start" style="white-space: pre;" direction="ltr">User seeing the ad</text></g><g transform="translate(10 111.65214451096952) rotate(0 88 8.5)"><text x="0" y="13" font-family="Helvetica, Segoe UI Emoji" font-size="16px" fill="#000000" text-anchor="start" style="white-space: pre;" direction="ltr">Business creating the ad</text></g><g mask="url(#mask-9c109cSxuJ6w_5x2s-Dlf)" stroke-linecap="round"><g transform="translate(114.78434288689175 301.48738541231035) rotate(0 135.14395548272293 -10.714214654179443)"><path d="M-0.87 -0.29 C26.97 10.03, 122.58 77.25, 167.92 62.7 C213.25 48.15, 253.97 -62.64, 271.15 -87.58 M0.88 -1.49 C29.02 8.98, 125.25 78.41, 170.21 64.26 C215.16 50.11, 253.75 -61.4, 270.62 -86.39" stroke="#000000" stroke-width="1" fill="none"></path></g><g transform="translate(114.78434288689175 301.48738541231035) rotate(0 135.14395548272293 -10.714214654179443)"><path d="M266.6 -57.94 C268.28 -66.99, 269.13 -78.36, 271.24 -86.62 M266.64 -56.06 C267.93 -67.94, 269.75 -78.46, 269.63 -86.15" stroke="#000000" stroke-width="1" fill="none"></path></g><g transform="translate(114.78434288689175 301.48738541231035) rotate(0 135.14395548272293 -10.714214654179443)"><path d="M248.28 -67.18 C256.87 -72.64, 264.58 -80.56, 271.24 -86.62 M248.32 -65.3 C256.35 -73.74, 264.83 -80.9, 269.63 -86.15" stroke="#000000" stroke-width="1" fill="none"></path></g></g><mask id="mask-9c109cSxuJ6w_5x2s-Dlf"><rect x="0" y="0" fill="#fff" width="485.5" height="551.4873854123103"></rect><rect x="201.5" y="347.1521445109695" fill="#000" width="164" height="34" opacity="1"></rect></mask><g transform="translate(201.5 347.1521445109695) rotate(0 48.42829836961468 -56.37897375283859)"><text x="82" y="30" font-family="Helvetica, Segoe UI Emoji" font-size="16px" fill="#000000" text-anchor="middle" style="white-space: pre;" direction="ltr">Send impression event</text></g><g stroke-linecap="round" transform="translate(49.611232747956365 225.50000000000003) rotate(0 27.888767252043692 42.65214451096949)"><path d="M1.61 -1.51 L56.79 -1.02 L53.92 84.28 L-0.24 83.81" stroke="none" stroke-width="0" fill="#ced4da"></path><path d="M0.74 -0.75 C12.74 1.47, 26.89 0.54, 55.85 -1.89 M0.81 -0.81 C12.59 0.52, 23.89 0.96, 55.43 -0.46 M57.68 0.74 C53.81 24.79, 53.42 51.28, 55.35 86.33 M55.09 0.68 C55.9 20.74, 54.85 40.85, 56.7 84.41 M56.95 86.37 C43.36 83.11, 28.57 83.11, -1.48 85.26 M56.54 84.57 C41.8 85.09, 29.16 84.58, 0.27 85.85 M-1.04 86.5 C-1.45 58.73, 0.63 35.63, 0.99 -0.7 M-0.74 86.09 C0.27 51.72, 0.29 17.91, -0.28 0.44" stroke="#000000" stroke-width="1" fill="none"></path></g><g stroke-linecap="round" transform="translate(55.997147278685816 232.00364810832323) rotate(0 21.975485112127473 32.62101728941349)"><path d="M-1.51 1.01 L42.93 -1.86 L42.92 65 L-1.5 63.35" stroke="none" stroke-width="0" fill="#fff"></path><path d="M-0.75 -0.74 C11.04 -0.23, 19.92 -0.09, 42.06 -1.72 M-0.81 0.66 C17.33 -0.33, 35.09 -0.7, 43.49 0.03 M44.69 -1.41 C42.23 13.52, 42.85 30.2, 44.97 63.97 M44.63 0.8 C44.11 14.14, 44.06 29.71, 43.05 64.64 M45.02 66.18 C29.36 65.01, 16.47 64.02, -0.04 63.99 M43.22 64.52 C30.87 65.46, 17.46 65.85, 0.54 65.15 M1.2 64.1 C-1.61 44.25, 0.08 22.36, -0.7 1.85 M0.78 64.76 C0.13 50.92, -0.21 37.24, 0.44 0.8" stroke="#000000" stroke-width="1" fill="none"></path></g><g stroke-linecap="round" transform="translate(73.47215318199983 300.03776672611707) rotate(0 4.500479208813431 4.500479208813431)"><path d="M4.79 -0.09 C5.87 -0.29, 6.96 -0.09, 7.55 0.6 C8.15 1.29, 8.29 3.23, 8.36 4.07 C8.43 4.9, 8.22 4.87, 7.95 5.63 C7.68 6.38, 7.46 8.11, 6.75 8.58 C6.04 9.05, 4.55 8.87, 3.7 8.46 C2.85 8.05, 2.34 6.96, 1.66 6.09 C0.99 5.22, -0.44 4.12, -0.35 3.23 C-0.26 2.34, 1.38 1.36, 2.2 0.74 C3.01 0.13, 4.13 -0.31, 4.53 -0.46 C4.92 -0.61, 4.48 -0.45, 4.57 -0.16 M1.45 -0.46 C2.12 -0.91, 4.83 -1.42, 5.74 -0.89 C6.66 -0.36, 6.37 1.97, 6.92 2.73 C7.46 3.5, 9.12 2.92, 9.01 3.69 C8.9 4.46, 6.9 6.43, 6.26 7.35 C5.63 8.26, 5.8 9.2, 5.18 9.19 C4.57 9.18, 3.3 7.66, 2.58 7.27 C1.85 6.87, 1.15 7.72, 0.83 6.82 C0.51 5.93, 0.53 3.01, 0.66 1.9 C0.8 0.79, 1.48 0.28, 1.65 0.17 C1.82 0.07, 1.58 1.05, 1.69 1.27" stroke="none" stroke-width="0" fill="#fff"></path><path d="M5.9 -0.74 C6.65 -0.38, 7.08 1.92, 7.44 3.03 C7.8 4.14, 8.18 5, 8.06 5.91 C7.94 6.82, 7.28 7.96, 6.72 8.48 C6.17 9, 5.46 9.15, 4.71 9.02 C3.96 8.9, 3.06 8.31, 2.22 7.72 C1.37 7.14, 0.04 6.55, -0.36 5.5 C-0.75 4.45, -0.82 2.22, -0.14 1.42 C0.54 0.62, 2.79 0.98, 3.74 0.71 C4.68 0.44, 5.21 -0.13, 5.53 -0.19 C5.85 -0.24, 5.6 0.13, 5.65 0.37 M2.06 1.25 C3.32 1.21, 6.37 0.88, 7.38 1.2 C8.38 1.52, 7.6 2.68, 8.09 3.16 C8.58 3.64, 10.58 3.28, 10.29 4.07 C10.01 4.87, 7.59 6.97, 6.38 7.94 C5.17 8.9, 3.72 9.77, 3.04 9.88 C2.36 9.98, 3.01 9.41, 2.3 8.56 C1.59 7.71, -0.74 6.03, -1.23 4.78 C-1.71 3.52, -1.32 1.93, -0.6 1.02 C0.11 0.11, 2.46 -0.58, 3.06 -0.71 C3.66 -0.84, 2.8 0.22, 3.02 0.26" stroke="#000000" stroke-width="1" fill="none"></path></g><g stroke-linecap="round" transform="translate(62.51852431065345 240.30859887912666) rotate(0 15.454108080159813 7.832821303045421)"><path d="M0 0 C0 0, 0 0, 0 0 M0 0 C0 0, 0 0, 0 0 M-0.9 6.41 C1.34 4.35, 3.52 2.39, 4.95 0.02 M-0.55 6.1 C1.14 5.04, 2.47 3.75, 5.32 0.56 M1.64 12.16 C2.02 7.94, 6.56 2.68, 11.83 -0.86 M0.37 12.1 C3.01 8.87, 4.75 5.57, 9.95 0.06 M-0.34 18.16 C6.24 11.24, 12.49 7.54, 14.34 -0.52 M0.69 17.89 C3.9 12.02, 9.08 9.17, 14.75 0.17 M5.69 16.81 C12.15 14.18, 13.22 7.78, 21.52 1.11 M7.06 17.31 C11.63 9.95, 18.85 2.9, 20.84 -0.52 M12.15 18.8 C14.53 14.12, 18.83 7.43, 28.14 -1.16 M11.43 16.09 C14.87 13.03, 18.28 8.11, 26.64 0.51 M18.24 17.79 C20.44 13.03, 27.36 6.88, 29.82 2.41 M16.56 16.25 C21.02 13.45, 23.37 8.02, 31.2 0.66 M21.59 17.59 C25.99 12.11, 29.81 8.91, 30.61 7.14 M22.39 16.8 C24.83 14.18, 27.42 10.67, 31.4 5.78 M28 16.02 C29.24 15.76, 30.43 13.92, 31.19 12.73 M27.97 16.48 C29.56 15.19, 30.81 13.73, 31.21 12.82 M-0.21 15.48 C-0.21 15.48, -0.21 15.48, -0.21 15.48 M-0.21 15.48 C-0.21 15.48, -0.21 15.48, -0.21 15.48 M5.92 16 C5.25 15.13, 3.21 13.05, -0.61 11.04 M6.15 15.64 C3.76 13.84, 1.6 12.18, 0.21 10.29 M12.71 14.13 C9.37 12.76, 5.59 8.61, -1.62 3.93 M12.62 15.34 C8.09 12.08, 3.03 7.37, 0.09 4.59 M19.92 14.39 C11.56 8.82, 6.52 3.09, 1.76 -2.08 M17.65 16.36 C14.5 10.81, 8.75 7.66, 1.09 -0.29 M25.72 16.56 C18.7 7.97, 11.67 2.63, 5.67 -1.31 M24.51 15.43 C20.49 12.6, 18.1 9.14, 7.48 -0.78 M30.67 16.89 C24.39 13.57, 22.46 7.91, 13.65 0.14 M29.36 15.54 C25.53 11.18, 18.57 6.72, 11.96 -0.35 M35.54 14.25 C29.22 10.49, 23.97 5.69, 19.61 -0.97 M32.94 13.17 C29.17 8.9, 23.05 3.81, 18.22 -0.75 M32.71 8.63 C29.1 4.52, 25.83 1.58, 24.24 -1.45 M33.68 7.79 C30.82 5.08, 28.43 3.2, 24.74 -0.09 M33.78 2.64 C33.33 1.88, 32 1.74, 30.72 0.08 M33.42 2.43 C32.76 1.62, 31.51 0.77, 30.71 -0.02" stroke="#fab005" stroke-width="0.5" fill="none"></path><path d="M1.23 -0.07 C10.71 0.19, 18.93 -1.61, 32.79 -1.8 M0.02 0.03 C12.24 -0.55, 23.11 -0.17, 30.26 -1 M30.07 -1.41 C30.62 5.85, 31.77 11.39, 29.66 14.65 M31.37 -0.2 C31.43 4.35, 30.31 6.78, 30.86 14.98 M29.21 15.17 C18.13 14.33, 8.7 14.56, -0.13 15.6 M30.72 15.55 C18.56 15.71, 8.16 15.35, 0.36 15.37 M-1.41 16.41 C-0.18 12.56, -0.64 9.35, -1.37 -0.6 M-0.09 15.3 C-0.48 11.91, 0.23 9.22, -0.59 0.4" stroke="#000000" stroke-width="1" fill="none"></path></g><g stroke-linecap="round" transform="translate(62.51852431065345 268.31514845569154) rotate(0 15.454108080159813 7.832821303045421)"><path d="M0 0 C0 0, 0 0, 0 0 M0 0 C0 0, 0 0, 0 0 M-0.25 6.09 C1.17 4.92, 2.68 3.38, 4.65 -0.26 M-0.56 6.61 C1.17 5.15, 2.67 3.44, 5.19 0.48 M0.25 10.54 C3.77 7.2, 6.24 4.52, 9.81 -0.85 M0.19 12.2 C2.23 8.69, 4.2 6.13, 10.73 0.17 M2.41 17.13 C3.85 15.43, 8.46 9.03, 14.77 -0.81 M2.15 16.02 C3.61 13.98, 8.08 8.56, 15.46 -0.13 M7.1 18.15 C12.76 10.95, 14.66 7.52, 22.43 1.79 M7.61 15.67 C11.18 12.12, 15.06 5.96, 20.81 -0.78 M13.72 16.15 C15.78 13.72, 15.85 11.96, 24.79 -0.65 M11.01 16.43 C17.65 9.92, 22.42 4.7, 26.47 0.33 M18.75 15.3 C23.04 13.14, 25.91 5.34, 32.99 -0.44 M17.21 16.65 C22.17 11.31, 24.48 7.72, 31.25 0.93 M23.17 17.43 C24.29 14.69, 27.7 8.68, 32.47 5.79 M22.38 16.89 C25.88 13.24, 28.48 9, 31.11 6.22 M27.64 16.66 C29.45 15.79, 29.69 14.04, 31.4 13.08 M28.1 16.69 C29.12 15.7, 29.97 14.29, 31.5 12.85 M-0.21 15.48 C-0.21 15.48, -0.21 15.48, -0.21 15.48 M-0.21 15.48 C-0.21 15.48, -0.21 15.48, -0.21 15.48 M6.44 16.38 C4.63 13.89, 1.62 11.04, 0.7 10.96 M6.08 15.49 C4.25 13.75, 2.47 12.33, -0.05 10.3 M10.62 15.83 C9.15 12.71, 4.83 9.2, -1.17 5.86 M11.82 16 C8.74 12.21, 4.11 9.33, -0.5 5.38 M17 15.71 C10.24 11.27, 3.17 5.06, -1.83 -1.18 M18.98 16.44 C11.01 9.52, 5.37 5.37, -0.04 0.75 M25.31 17.03 C16.71 11.96, 11.53 4.78, 5.08 -1.87 M24.19 15.25 C20.65 12.91, 16.26 9.71, 5.6 -0.6 M31.68 13.64 C27.34 11.78, 20.56 8.85, 12.57 -0.18 M30.33 16.33 C24.08 9.15, 18 3.99, 12.07 0.3 M34.78 14 C31.78 10.98, 27.87 7.73, 17.59 0.76 M33.7 13.7 C30.03 9, 25.25 5.51, 17.81 0.67 M34.41 6.58 C31.04 4.83, 28.95 3.94, 23.14 -0.63 M33.58 7.65 C29.54 4.88, 26.43 2.1, 24.51 -0.93 M33.77 2.83 C32.78 1.47, 32.41 1.27, 30.82 -0.08 M33.56 2.6 C32.48 1.28, 31.32 0.6, 30.71 -0.04" stroke="#fab005" stroke-width="0.5" fill="none"></path><path d="M-0.07 0.3 C8.19 -2.08, 14.51 1.69, 29.11 1.63 M0.03 0.46 C6.42 -0.47, 13.56 -0.66, 29.91 0.95 M29.5 -0.35 C30.46 6.08, 29.8 9.31, 29.9 14.59 M30.71 0.41 C31.76 5.06, 30.56 11.48, 30.22 16.12 M30.41 13.97 C18.5 15.36, 7.82 15.27, -0.07 17.2 M30.79 14.96 C24.16 16.15, 16.79 15.97, -0.29 15.14 M0.74 15.58 C0.87 9.48, 1.54 3.02, -0.6 -1.16 M-0.36 15.31 C-0.15 10.09, 0.7 3.23, 0.4 -0.4" stroke="#000000" stroke-width="1" fill="none"></path></g></svg>