<svg version="1.1" xmlns="http://www.w3.org/2000/svg" viewBox="0 0 808.9079689508632 579.6198398136139" width="1617.8159379017263" height="1159.2396796272278">
  <!-- svg-source:excalidraw -->
  
  <defs>
    <style class="style-fonts">
      @font-face {
        font-family: "Virgil";
        src: url("https://excalidraw.com/Virgil.woff2");
      }
      @font-face {
        font-family: "Cascadia";
        src: url("https://excalidraw.com/Cascadia.woff2");
      }
    </style>
  </defs>
  <rect x="0" y="0" width="808.9079689508632" height="579.6198398136139" fill="#ffffff"></rect><g stroke-linecap="round" transform="translate(10 72.96769530264442) rotate(0 18.407717007298515 28.152144510969492)"><path d="M1.18 -1.64 L37.38 -0.3 L38.78 54.82 L1.33 56.09" stroke="none" stroke-width="0" fill="#ced4da"></path><path d="M1.25 1.34 C9.76 0.46, 23.37 -0.59, 38.59 0.48 M-0.19 -0.39 C9.44 1.05, 18.04 1.16, 37.1 -0.15 M37.21 -1.74 C37.4 21.65, 35.89 40.86, 35.85 57.71 M37.63 -0.44 C36 14.91, 37.41 31.19, 37.3 55.94 M35.52 57.15 C26.46 55.61, 12.28 55.24, 0.63 56.28 M36.8 56.49 C22.24 56.71, 7.76 56.06, 0.03 55.59 M0.3 56.7 C1.87 36.51, -1.75 14.35, -0.53 -0.92 M-0.26 56.18 C0.7 36.81, -0.21 16.5, 0.42 -0.32" stroke="#000000" stroke-width="1" fill="none"></path></g><g stroke-linecap="round" transform="translate(14.214962477620816 77.26036671443967) rotate(0 14.504711068306591 21.531193879131138)"><path d="M-1.64 0.57 L28.71 1.96 L27.52 44.39 L-0.22 42.53" stroke="none" stroke-width="0" fill="#fff"></path><path d="M1.34 -1.75 C12.19 0.16, 22.52 1.59, 29.49 -1.24 M-0.39 0.67 C9.42 0.57, 18.15 0.34, 28.86 0.79 M27.27 1.1 C29.57 8.53, 27.42 16.9, 30.42 42.67 M28.57 -0.91 C28.51 14.16, 29.01 27.82, 28.64 43.39 M29.85 44.95 C17.34 42.82, 6.02 43.5, -0.03 44.83 M29.19 42.79 C21.68 42.6, 13.39 43.09, -0.71 43.67 M0.4 44.83 C0.78 29.03, -1.04 18.16, -0.92 0.91 M-0.13 43.86 C-0.46 29.3, -1.31 16.18, -0.32 0.59" stroke="#000000" stroke-width="1" fill="none"></path></g><g stroke-linecap="round" transform="translate(25.749174817017206 122.16564313054118) rotate(0 2.9704987289102007 2.970498728910229)"><path d="M1.58 0.69 C2.19 0.41, 3.43 -0.49, 4.14 -0.27 C4.85 -0.05, 5.42 1.27, 5.85 2 C6.28 2.73, 7.06 3.63, 6.7 4.1 C6.34 4.57, 4.4 4.58, 3.67 4.81 C2.95 5.04, 2.76 5.4, 2.35 5.46 C1.95 5.52, 1.49 5.6, 1.26 5.17 C1.03 4.74, 1.13 3.4, 1 2.87 C0.87 2.34, 0.18 2.48, 0.47 1.99 C0.75 1.49, 2.41 0.15, 2.71 -0.1 C3.02 -0.35, 2.35 0.32, 2.31 0.49 M3.25 -0.87 C3.89 -1.13, 4.51 -0.34, 4.81 -0.04 C5.11 0.26, 4.89 0.41, 5.05 0.96 C5.21 1.5, 5.76 2.7, 5.77 3.21 C5.79 3.72, 5.75 3.61, 5.15 4.02 C4.55 4.43, 2.65 5.54, 2.2 5.66 C1.75 5.79, 2.66 5.07, 2.43 4.75 C2.2 4.43, 1.35 4.08, 0.81 3.76 C0.26 3.43, -0.92 3.15, -0.82 2.79 C-0.73 2.43, 0.88 2.02, 1.38 1.6 C1.88 1.18, 2.17 0.61, 2.16 0.25" stroke="none" stroke-width="0" fill="#fff"></path><path d="M4.46 0.3 C4.93 0.4, 4.54 0.67, 4.68 1.1 C4.82 1.52, 5.26 2.12, 5.28 2.87 C5.3 3.62, 4.97 5.02, 4.8 5.62 C4.62 6.21, 4.62 6.4, 4.21 6.43 C3.8 6.45, 3.03 6.07, 2.33 5.78 C1.63 5.5, 0.51 5.24, 0 4.7 C-0.51 4.16, -1.01 3.39, -0.72 2.52 C-0.42 1.65, 0.92 -0.13, 1.76 -0.51 C2.59 -0.89, 3.96 0.28, 4.27 0.24 C4.59 0.2, 3.84 -0.88, 3.65 -0.74 M3.9 -0.64 C4.22 -1.17, 2.83 -1.17, 3.28 -0.79 C3.72 -0.41, 6.05 0.88, 6.57 1.62 C7.09 2.36, 6.7 2.78, 6.4 3.65 C6.09 4.51, 5.42 6.6, 4.75 6.81 C4.07 7.01, 2.94 4.99, 2.35 4.88 C1.75 4.76, 1.67 6.48, 1.19 6.12 C0.71 5.76, -0.34 3.5, -0.54 2.71 C-0.73 1.91, -0.51 1.59, 0.03 1.36 C0.56 1.14, 2.31 1.5, 2.66 1.34 C3.01 1.19, 2.13 0.57, 2.13 0.44" stroke="#000000" stroke-width="1" fill="none"></path></g><g stroke-linecap="round" transform="translate(18.51933569775872 82.74197090894927) rotate(0 10.200337848168658 5.169979605485537)"><path d="M0 0 C0 0, 0 0, 0 0 M0 0 C0 0, 0 0, 0 0 M-0.89 6.9 C1.1 4.52, 2.19 2.35, 4.71 0.3 M-0.03 6.17 C0.96 4.73, 2.28 3.52, 4.7 0.44 M0.04 12.76 C2.64 7.68, 7.87 3.04, 9.96 -0.63 M0.22 10.93 C3.25 8.97, 5.55 4.97, 11.22 -0.78 M7.51 9.66 C8.56 6.42, 12.17 5.45, 16.12 1.32 M7.04 11.31 C10.47 6.72, 12.74 2.44, 15.03 0.86 M10.63 10.9 C13.03 7.49, 16 7.46, 19.25 1.31 M11.96 10.64 C14.81 8.54, 16.84 4.19, 20.19 0.28 M16.77 10.34 C17.65 9.79, 18.39 8.14, 21.2 6.85 M17.14 11.04 C18.37 9.31, 20.19 7.23, 21.26 6.38 M0.16 10.48 C0.16 10.48, 0.16 10.48, 0.16 10.48 M0.16 10.48 C0.16 10.48, 0.16 10.48, 0.16 10.48 M5.64 10.3 C4.66 8.69, 2.35 7.29, 0.49 4.34 M6.02 9.9 C3.48 8.47, 0.96 6.21, -0.47 5.2 M12.72 9.72 C7.53 5.66, 3.99 4.99, 0.28 -0.06 M12.52 9.9 C8.05 7.65, 3.83 3.89, 0.1 0.53 M19.9 10.61 C15.63 5.79, 10.31 4.38, 6.05 -0.42 M17.81 9.97 C14.18 7.31, 9.59 3.78, 6.31 0.73 M21.15 8.21 C17.38 4.69, 14.18 1.47, 13.06 -0.37 M21.53 7.97 C20.24 5.65, 18.02 4.39, 12.2 -0.78 M22.1 3.67 C21.55 2.74, 20.24 1.8, 18.39 0.29 M22.2 3.32 C21.02 2.22, 19.89 1.15, 18.5 -0.05" stroke="#fab005" stroke-width="0.5" fill="none"></path><path d="M0.81 0.35 C7.16 1.95, 15.27 -1.06, 20.34 -1.33 M0.81 0.52 C6.66 0.15, 11.33 0.66, 19.48 0.65 M20.55 -0.21 C19.34 2.81, 21.04 6.41, 20.58 11.22 M19.95 0.26 C20.17 4.19, 20.17 8.05, 20.8 10.38 M19.68 10.29 C14.51 11.16, 10.77 12.3, -0.73 10.83 M20.71 9.88 C13.97 10.32, 7.51 10.89, -0.17 9.75 M0.27 9.39 C-0.69 6.81, -0.49 4.3, 0.18 1.03 M-0.02 10.28 C-0.44 7.73, -0.15 4.99, -0.42 0.15" stroke="#000000" stroke-width="1" fill="none"></path></g><g stroke-linecap="round" transform="translate(18.51933569775872 101.22742902537061) rotate(0 10.200337848168658 5.169979605485537)"><path d="M0 0 C0 0, 0 0, 0 0 M0 0 C0 0, 0 0, 0 0 M0.24 6.18 C1.03 4.17, 2.03 3, 4.93 -0.01 M-0.49 6.23 C0.66 4.97, 2.03 3.65, 5.07 0.48 M2.26 9.87 C3.66 8.76, 5.49 4.38, 10.04 -0.43 M0.43 11.09 C4.82 7.04, 7.15 4.51, 9.89 -0.07 M5.2 10.24 C7.25 8.58, 11.56 6.33, 16.61 1.4 M6.85 11.4 C8.4 7.65, 10.26 5.25, 16.15 -0.12 M11.07 10.6 C12.03 9.29, 16.37 5.63, 21.22 0.95 M10.81 11.8 C15.58 6.81, 18.11 2.71, 20.19 0.22 M16.55 10.51 C18.11 9.14, 18.57 8.65, 21.52 6.8 M17.25 10.64 C18.11 9.95, 18.62 9.1, 21.05 6.06 M0.16 10.48 C0.16 10.48, 0.16 10.48, 0.16 10.48 M0.16 10.48 C0.16 10.48, 0.16 10.48, 0.16 10.48 M6.02 10.36 C3.8 7.82, 1.75 7.52, -0.73 5.45 M5.62 10.03 C4.42 8.29, 2.38 6.85, 0.13 4.89 M11.58 9.45 C7.15 6.69, 6.26 4.45, 0.22 0.07 M11.76 10 C8.77 6.25, 4.43 3.64, 0.81 -0.06 M18.6 11.45 C12.95 6.28, 10.54 2.81, 5.99 1.13 M17.96 10.65 C14.59 6.54, 10.52 2.7, 7.14 0.45 M21.95 7.08 C17.46 3.81, 13.29 2.35, 12.08 -1.21 M21.71 8.73 C18.69 6.31, 16.64 3.45, 11.67 -0.44 M22.75 3.51 C21.61 2.21, 20.42 1.05, 18.87 0.06 M22.4 3.11 C21.4 2.31, 20.4 1.5, 18.54 0.09" stroke="#fab005" stroke-width="0.5" fill="none"></path><path d="M0.35 -0.23 C9.26 0.4, 13.73 -0.14, 19.07 -0.37 M0.52 0.92 C5.6 -0.32, 11.43 -1.09, 21.05 0.2 M20.19 -0.97 C19.96 2.93, 20.25 4.59, 21.28 11.18 M20.66 -0.19 C20.55 2.46, 20.47 5.7, 20.44 10.01 M20.35 9.25 C14.04 10.24, 8.21 9.53, 0.49 10.31 M19.94 10 C13.94 9.69, 8.03 10.23, -0.59 10.49 M-0.95 9.67 C-0.36 6.56, 0.38 3.9, 1.03 -0.27 M-0.06 9.88 C0.14 7.2, 0.22 3.97, 0.15 -0.08" stroke="#000000" stroke-width="1" fill="none"></path></g><g stroke-linecap="round" transform="translate(15.000503887129298 164.96769530264442) rotate(0 18.407717007298515 28.152144510969492)"><path d="M-1.49 1.33 L36.6 -0.53 L36.32 56.1 L-0.12 56.48" stroke="none" stroke-width="0" fill="#ced4da"></path><path d="M-0.23 1.77 C8.31 -1.3, 15.6 -1.39, 36.44 -0.79 M0.92 0.29 C13.37 0.6, 26.12 0.46, 37.01 -0.87 M34.95 -0.97 C38.3 19.6, 37.24 41.68, 38.44 55.43 M36.45 0.48 C35.96 12.08, 37.1 23.58, 36.17 56.73 M35.72 56.93 C22.26 58.06, 7.03 56.78, -0.03 56.67 M36.48 56.34 C26.07 56.75, 16.59 55.55, 0.15 56.5 M-1.3 55.78 C-1.07 35.34, 0.19 14.53, -0.53 -0.25 M-0.88 56.73 C-0.3 35.52, -0.8 13.83, -0.15 0.98" stroke="#000000" stroke-width="1" fill="none"></path></g><g stroke-linecap="round" transform="translate(19.215466364750114 169.26036671443967) rotate(0 14.504711068306591 21.531193879131138)"><path d="M1.33 -0.22 L28.48 -0.5 L28.81 42.94 L0.18 41.59" stroke="none" stroke-width="0" fill="#fff"></path><path d="M1.77 0.48 C8.64 -0.03, 18.44 -0.34, 28.22 1.35 M0.29 -0.15 C11.85 -1.19, 22.75 -0.07, 28.14 0.55 M28.04 1.41 C28.53 13.88, 30.62 28.68, 28.13 41.24 M29.49 -0.36 C29.55 9.94, 29.3 17.69, 29.43 44.01 M29.64 43.04 C23.13 42.17, 14.2 42.87, 0.36 42.51 M29.04 42.35 C20.01 42.8, 9.21 43.11, 0.2 43.95 M-0.53 42.15 C1.31 29.34, 2.39 14.41, -0.25 1.59 M0.42 42.74 C0.64 29.45, 0.33 17.33, 0.98 -0.74" stroke="#000000" stroke-width="1" fill="none"></path></g><g stroke-linecap="round" transform="translate(30.749678704146504 214.16564313054118) rotate(0 2.9704987289102007 2.970498728910229)"><path d="M2.92 0.9 C3.66 0.63, 4.57 -0.56, 4.95 -0.38 C5.33 -0.21, 5.15 1.1, 5.19 1.95 C5.24 2.79, 5.34 3.9, 5.2 4.69 C5.07 5.48, 4.93 6.49, 4.39 6.66 C3.84 6.83, 2.44 6.05, 1.93 5.71 C1.42 5.37, 1.67 5.29, 1.33 4.64 C0.99 3.99, -0.09 2.5, -0.1 1.82 C-0.1 1.14, 0.66 0.99, 1.3 0.55 C1.94 0.11, 3.31 -0.72, 3.74 -0.82 C4.16 -0.91, 3.78 -0.1, 3.84 -0.03 M3.57 0.01 C4.16 0.26, 5.22 1.17, 5.43 1.58 C5.63 1.99, 4.93 1.67, 4.8 2.49 C4.67 3.3, 5.04 5.74, 4.64 6.44 C4.25 7.14, 2.99 7.05, 2.41 6.67 C1.84 6.28, 1.39 4.73, 1.19 4.14 C0.99 3.55, 1.1 3.5, 1.19 3.13 C1.28 2.75, 1.62 2.46, 1.73 1.88 C1.84 1.3, 1.67 0.11, 1.86 -0.37 C2.05 -0.85, 2.36 -1.04, 2.87 -1.01 C3.37 -0.98, 4.75 -0.22, 4.87 -0.19" stroke="none" stroke-width="0" fill="#fff"></path><path d="M1.88 -0.25 C2.56 -0.23, 4.06 0.57, 4.77 1.03 C5.47 1.49, 5.88 2.1, 6.12 2.5 C6.35 2.91, 6.25 3.14, 6.16 3.45 C6.07 3.76, 6.03 3.95, 5.58 4.39 C5.14 4.84, 4.41 5.91, 3.5 6.14 C2.59 6.36, 0.66 6.21, 0.11 5.72 C-0.45 5.23, 0.27 3.97, 0.17 3.17 C0.07 2.37, -1.02 1.46, -0.48 0.9 C0.06 0.34, 2.75 -0.19, 3.42 -0.19 C4.08 -0.18, 3.51 0.93, 3.54 0.94 M1.11 1.02 C1.76 0.68, 2.23 0.52, 3.13 0.57 C4.04 0.63, 6.22 0.79, 6.53 1.33 C6.83 1.87, 4.97 3.28, 4.97 3.8 C4.97 4.33, 6.82 4.27, 6.53 4.48 C6.24 4.7, 4.04 4.95, 3.25 5.11 C2.46 5.26, 2.09 5.73, 1.79 5.42 C1.48 5.11, 1.64 3.86, 1.44 3.25 C1.25 2.64, 0.54 2.31, 0.62 1.75 C0.7 1.19, 1.68 0.24, 1.93 -0.11 C2.19 -0.46, 2.26 -0.45, 2.15 -0.33" stroke="#000000" stroke-width="1" fill="none"></path></g><g stroke-linecap="round" transform="translate(23.519839584888132 174.74197090894927) rotate(0 10.200337848168658 5.169979605485537)"><path d="M0 0 C0 0, 0 0, 0 0 M0 0 C0 0, 0 0, 0 0 M-0.76 6.12 C1.12 4.42, 1.82 3.2, 5.45 -0.09 M-0.07 6.11 C1.19 4.99, 2.37 3.14, 4.79 0.75 M-0.03 10.61 C2.21 8.53, 5.26 5.19, 9.49 -0.75 M0.58 11.87 C2.64 8.22, 5.6 5.23, 11.21 -0.7 M7.23 11.4 C9.85 9.27, 10.28 5.55, 16.84 1.17 M5.94 10.3 C10.42 6.59, 12.64 2.62, 15.22 0.15 M12.54 9.9 C14.47 8.83, 17.31 4.98, 21.69 -0.53 M11.03 10.84 C14.39 6.84, 18.05 3.38, 20.26 0.09 M16.47 11.06 C18.54 10.27, 18.5 8.15, 21.15 6.7 M16.83 11.12 C17.99 9.55, 19.08 9.05, 21.02 6.07 M0.16 10.48 C0.16 10.48, 0.16 10.48, 0.16 10.48 M0.16 10.48 C0.16 10.48, 0.16 10.48, 0.16 10.48 M5.49 10.81 C3.3 8.9, 1.69 6.54, 0.19 4.47 M5.88 9.85 C4.39 8.6, 2.28 7.33, -0.1 4.68 M13.34 10.5 C9.44 7.95, 6.74 6.29, 0.75 -1.04 M12.24 10.32 C9.72 7.62, 6.36 4.26, 0.78 -0.15 M18.99 10.13 C13.91 7.88, 11.16 4.4, 4.93 -1.17 M19.32 10.4 C15.48 7.72, 11.94 4.21, 6.02 0.09 M21.02 9.14 C19.88 5.45, 17.62 3.99, 11.26 -0.83 M22.07 8.28 C17.89 4.97, 14.76 1.48, 11.85 0.25 M22.71 3.09 C21.3 2.18, 19.44 0.82, 18.28 0.1 M22.31 3.19 C21.4 2.56, 20.36 1.7, 18.49 0.12" stroke="#fab005" stroke-width="0.5" fill="none"></path><path d="M-1.24 -0.06 C4.55 -0.42, 10.98 1.3, 22.02 1.03 M0.79 -0.93 C8.64 0.23, 15.11 0.58, 20.54 -0.2 M20.2 0.18 C21.23 2.98, 19.9 3.33, 19.5 10.85 M20.57 0.4 C20.49 2.39, 20.67 5.93, 20.21 10.33 M22.17 9.61 C15.88 10.31, 10.75 9.79, 0.62 9.42 M21.01 10.17 C14.38 10.34, 9.73 11.08, 0.27 9.42 M0.47 10.52 C1.06 7.63, -0.1 6.3, -0.03 -0.11 M0.31 9.92 C0.1 8.07, 0.46 5.58, 0.34 -0.06" stroke="#000000" stroke-width="1" fill="none"></path></g><g stroke-linecap="round" transform="translate(23.519839584888132 193.2274290253706) rotate(0 10.200337848168658 5.169979605485537)"><path d="M0 0 C0 0, 0 0, 0 0 M0 0 C0 0, 0 0, 0 0 M-0.54 6.34 C0.91 3.92, 2.83 3.46, 4.54 0.02 M-0.55 6.48 C1.29 4.67, 2.39 2.95, 5.38 -0.02 M0.12 10.69 C3.36 8.31, 5.35 3.27, 9.91 -0.43 M1.38 10.54 C4.69 6.4, 8.65 3.03, 9.97 -0.38 M6.94 11.88 C9.36 7.78, 10.19 7.75, 16.46 1.34 M5.84 11.43 C8.59 7.4, 11.07 4.79, 15.44 0 M10.06 11.87 C13.55 10.15, 14.26 7.93, 19.39 1.78 M11.01 10.84 C14.54 7.01, 18.61 2.83, 20 0.28 M17.26 11.38 C18.76 9.07, 18.92 8.33, 21.37 5.89 M17.32 10.9 C18.14 9.57, 20.03 7.8, 20.74 6.36 M0.16 10.48 C0.16 10.48, 0.16 10.48, 0.16 10.48 M0.16 10.48 C0.16 10.48, 0.16 10.48, 0.16 10.48 M6.53 9.59 C4.76 8.5, 2.45 7.53, -0.6 4.72 M5.57 10.44 C3.55 8.01, 1.42 6.13, -0.39 4.62 M12.35 10.44 C9.96 8.59, 8.35 6.7, -0.76 -0.84 M12.18 11.03 C8 6.96, 2.95 3.37, 0.13 0.27 M18.12 10.07 C17.15 9.42, 14.86 4.67, 5.24 0.19 M18.39 11.23 C14.69 7.76, 10.12 2.8, 6.51 -0.61 M22.87 8.16 C18.67 5.76, 16.54 3, 11.62 0.68 M22.01 7.75 C19.72 6.54, 17.39 4.41, 12.7 0.05 M22.17 3.57 C20.98 1.81, 19.33 0.49, 18.69 -0.31 M22.27 3.23 C21.31 2.1, 20.09 1.19, 18.71 0.08" stroke="#fab005" stroke-width="0.5" fill="none"></path><path d="M-0.06 -1.33 C7.56 -0.66, 17.21 1.75, 21.44 1.83 M-0.93 0.65 C6.9 -1.03, 13.96 -0.02, 20.2 -0.93 M20.58 0.88 C21.31 2.15, 19.53 4.31, 20.91 9.96 M20.8 0.04 C20.03 3.82, 20.85 7.01, 20.39 10.06 M19.67 10.83 C13.61 10.88, 6.33 11.14, -0.92 9.67 M20.23 9.75 C14.36 10.66, 8.92 10.73, -0.92 9.69 M0.18 11.37 C-0.23 7.38, 0.87 4.65, -0.11 -0.91 M-0.42 10.49 C-0.05 7.31, -0.35 3.61, -0.06 -0.14" stroke="#000000" stroke-width="1" fill="none"></path></g><g stroke-linecap="round" transform="translate(17.000503887129298 340.9676953026444) rotate(0 18.407717007298515 28.152144510969492)"><path d="M-0.2 -0.12 L36.99 -1.48 L35.54 55.94 L1.63 55.49" stroke="none" stroke-width="0" fill="#ced4da"></path><path d="M-1.33 -0.37 C11.15 1.36, 25.48 1.05, 38.65 0.57 M0.65 0.2 C9.62 0.89, 21.12 0.14, 35.88 -0.48 M38.52 1.63 C35.83 19.03, 34.96 42.7, 36.08 57.26 M36.89 -0.65 C37.42 15.78, 36.64 29.65, 36.27 56.62 M37.3 56.27 C26.18 55.62, 15.44 55.25, -0.67 56.37 M36.23 56.45 C28.59 57.13, 20.24 55.32, -0.65 56.04 M1.99 55.78 C-0.51 43.59, -0.32 27.46, -1.77 0.84 M0.28 56.15 C0.65 40.46, 0.33 26, -0.26 -0.25" stroke="#000000" stroke-width="1" fill="none"></path></g><g stroke-linecap="round" transform="translate(21.215466364750114 345.26036671443967) rotate(0 14.504711068306591 21.531193879131138)"><path d="M-0.12 0.18 L27.53 -1.27 L28.65 44.7 L-0.81 44.03" stroke="none" stroke-width="0" fill="#fff"></path><path d="M-0.37 -0.79 C8.25 1.81, 14.85 2.03, 29.58 -0.3 M0.2 -0.87 C11.56 -0.05, 21.81 -1.12, 28.53 0.7 M30.64 -0.88 C27.26 10.33, 30.08 23.4, 29.97 42.33 M28.36 0.42 C30.29 13.96, 29.32 28.1, 29.32 43.05 M28.98 43.43 C17.19 43.76, 5.55 42.46, 0.06 41.64 M29.16 43.26 C19.42 43.16, 7.14 42.24, -0.26 42.6 M-0.53 42.81 C1.52 28.12, -0.3 11.52, 0.84 -0.64 M-0.15 44.04 C-0.39 28.26, 0.25 11.86, -0.25 -0.1" stroke="#000000" stroke-width="1" fill="none"></path></g><g stroke-linecap="round" transform="translate(32.749678704146504 390.1656431305412) rotate(0 2.9704987289102007 2.970498728910229)"><path d="M3.1 -0.43 C3.94 -0.25, 4.98 0.64, 5.62 1.14 C6.26 1.64, 7 1.84, 6.93 2.58 C6.86 3.32, 5.76 5.05, 5.2 5.58 C4.64 6.11, 4.33 5.69, 3.58 5.76 C2.83 5.84, 1.32 6.2, 0.71 6.03 C0.1 5.85, 0.14 5.31, -0.09 4.69 C-0.33 4.08, -0.9 2.9, -0.68 2.36 C-0.46 1.81, 0.56 1.69, 1.23 1.44 C1.9 1.2, 2.78 1.06, 3.34 0.88 C3.9 0.7, 4.53 0.45, 4.59 0.37 M1.93 -0.27 C2.71 -0.24, 5.26 -0.42, 6.04 0.03 C6.82 0.49, 6.87 1.54, 6.6 2.46 C6.34 3.37, 4.94 4.75, 4.45 5.52 C3.96 6.29, 4.01 7.05, 3.67 7.09 C3.32 7.12, 3.03 6.35, 2.39 5.74 C1.76 5.14, 0.47 3.83, -0.12 3.46 C-0.71 3.08, -1.26 3.98, -1.15 3.49 C-1.03 3, 0.12 1.26, 0.58 0.52 C1.04 -0.22, 1.3 -0.84, 1.6 -0.94 C1.89 -1.03, 2.26 -0.01, 2.36 -0.05" stroke="none" stroke-width="0" fill="#fff"></path><path d="M4.87 0.45 C5.29 0.66, 5.36 1.64, 5.37 2.25 C5.39 2.85, 5.02 3.74, 4.98 4.1 C4.93 4.45, 5.34 4.02, 5.1 4.35 C4.87 4.69, 4.26 6.09, 3.56 6.08 C2.86 6.08, 1.55 4.64, 0.89 4.34 C0.22 4.03, -0.31 4.67, -0.43 4.23 C-0.55 3.79, -0.35 2.23, 0.18 1.69 C0.72 1.15, 2.17 1.39, 2.77 1.01 C3.37 0.62, 3.64 -0.63, 3.77 -0.64 C3.9 -0.65, 3.56 0.67, 3.55 0.94 M2.54 -0.92 C3.15 -1.02, 4.63 1.34, 5.07 1.8 C5.51 2.27, 5.23 1.45, 5.21 1.89 C5.19 2.33, 5.08 3.61, 4.95 4.43 C4.83 5.26, 4.96 6.55, 4.46 6.86 C3.95 7.16, 2.56 6.55, 1.93 6.27 C1.3 5.99, 1.08 5.64, 0.69 5.17 C0.3 4.7, -0.3 4.23, -0.41 3.46 C-0.53 2.69, -0.49 1.32, -0.01 0.57 C0.47 -0.17, 1.92 -0.9, 2.48 -1.02 C3.04 -1.14, 3.51 -0.41, 3.36 -0.15" stroke="#000000" stroke-width="1" fill="none"></path></g><g stroke-linecap="round" transform="translate(25.519839584888132 350.74197090894927) rotate(0 10.200337848168658 5.169979605485537)"><path d="M0 0 C0 0, 0 0, 0 0 M0 0 C0 0, 0 0, 0 0 M-0.21 6.86 C0.85 4.34, 2.57 2.56, 5.36 -0.22 M-0.44 6.2 C1.8 4.09, 3.11 2.68, 4.77 0.18 M-0.62 10.14 C2.66 7.92, 7.32 4.17, 10.21 1.14 M0.86 11.86 C2.11 8.73, 4.03 6.94, 11.06 0.24 M6.46 12.12 C10.6 8.05, 12.79 1.76, 14.64 -0.85 M5.95 10.5 C9.78 6.67, 12.75 3.1, 16.18 -0.35 M10.51 12.33 C13.35 8.63, 18.91 3.22, 19.83 -0.13 M11.5 10.91 C13.11 8.33, 15.92 5.56, 19.91 0.92 M16.52 11.01 C18.92 8.7, 20.33 7.6, 20.54 6.85 M17.33 10.88 C18.09 9.42, 19.73 7.69, 21.24 6.13 M0.16 10.48 C0.16 10.48, 0.16 10.48, 0.16 10.48 M0.16 10.48 C0.16 10.48, 0.16 10.48, 0.16 10.48 M5.81 10.51 C3.96 8.71, 3.62 6.97, -0.09 4.37 M6.09 10.22 C3.29 7.81, 0.73 5.83, 0.05 4.88 M13.32 10.97 C7.61 6.48, 5.83 2.4, 0.21 -0.2 M11.63 11 C7.54 6.79, 2.16 1.97, 0.33 -0.39 M19.85 9.02 C14.03 7.96, 12.95 4.75, 7.95 -0.32 M18.62 10.1 C13.98 6.05, 9.05 2.18, 5.94 0.66 M21.38 7.34 C18.62 6.69, 15.08 4.23, 12.35 -0.23 M21.52 7.93 C20.34 6.68, 18.15 4.42, 12.66 -0.51 M22.21 2.97 C21.09 1.76, 19.63 0.69, 18.51 -0.15 M22.37 3.18 C21.38 2.38, 19.99 1.3, 18.48 -0.19" stroke="#fab005" stroke-width="0.5" fill="none"></path><path d="M1.35 1.62 C5.8 1.91, 10.1 -0.22, 21.99 -1.85 M0.55 0.14 C7.24 -0.76, 14.4 0.88, 20.2 0.17 M19.46 -0.9 C21 3.6, 20.98 7.59, 20.74 11.14 M20.89 -0.19 C20.32 2.9, 20.5 6.35, 20.86 10.15 M19.85 10.96 C12.86 9.71, 7.23 8.95, 1.22 10 M21.29 10.61 C14.56 9.73, 10.3 9.92, 0.46 10.51 M0.82 10.31 C-0.09 5.3, 0.46 1.75, 0.61 -0.85 M-0.38 10.68 C-0.04 6.81, -0.11 3.5, -0.03 0.05" stroke="#000000" stroke-width="1" fill="none"></path></g><g stroke-linecap="round" transform="translate(25.519839584888132 369.2274290253706) rotate(0 10.200337848168658 5.169979605485537)"><path d="M0 0 C0 0, 0 0, 0 0 M0 0 C0 0, 0 0, 0 0 M0.2 5.95 C0.78 4.6, 2.1 3.71, 4.41 0.53 M-0.46 6.79 C1.11 4.45, 3.37 2.22, 4.81 0.2 M-0.35 10.57 C3.06 9.65, 4.95 4.76, 11.81 -1.52 M1.37 10.63 C3.41 7.22, 6.8 5.03, 10.9 0.5 M7.66 11.73 C10.98 6.54, 12.06 1.95, 14.44 1.4 M6.04 10.72 C8.37 7.8, 10.94 6.54, 14.94 0.64 M12.5 10.03 C15.36 9.13, 16.5 3.8, 19.78 -0.13 M11.07 10.65 C13.2 8.77, 15.13 5.6, 20.84 1.29 M17.21 11.23 C18.16 9.44, 20.3 6.99, 21.52 6.42 M17.09 10.6 C17.89 10.01, 18.42 9.14, 20.8 6.3 M0.16 10.48 C0.16 10.48, 0.16 10.48, 0.16 10.48 M0.16 10.48 C0.16 10.48, 0.16 10.48, 0.16 10.48 M6.23 9.72 C3.42 8.83, 0.65 6.28, -0.7 5.55 M5.94 9.93 C3.7 8.11, 1.86 7.12, -0.19 4.86 M12.83 9.46 C7.7 8.16, 3.05 3.93, 0.08 1.21 M12.85 10.35 C8.81 6.26, 4.27 3.93, -0.11 -0.42 M17.01 9.32 C14.22 7.73, 9.42 4.5, 6.1 1.35 M18.09 10.59 C13.66 6.63, 9.63 2.85, 7.07 0.06 M21.07 7.7 C20.72 5.05, 18.52 4.48, 12.23 -1.28 M21.67 8.78 C19.6 6.36, 16.54 3.97, 11.94 0.12 M22.05 3.38 C20.87 2.23, 19.8 1.13, 18.44 -0.07 M22.26 3.4 C21.17 1.99, 19.74 0.93, 18.4 0.11" stroke="#fab005" stroke-width="0.5" fill="none"></path><path d="M1.62 1.03 C7.57 0.43, 11.18 1.45, 18.55 1.29 M0.14 -0.2 C5.59 -0.59, 13.75 -0.31, 20.57 0.85 M19.5 0.51 C19.98 4.44, 19.98 8.22, 21.2 10.42 M20.21 -0.01 C20.16 2.6, 20.44 5.33, 20.21 10.47 M21.02 9.42 C13.64 10.35, 6.79 11.51, -0.34 9.16 M20.67 9.42 C13.33 10.26, 7.1 10.98, 0.17 11.33 M-0.03 10.23 C-0.9 7.95, -0.32 5.3, -0.85 0.29 M0.34 10.28 C-0.24 7.27, -0.15 4.42, 0.05 -0.38" stroke="#000000" stroke-width="1" fill="none"></path></g><g stroke-linecap="round" transform="translate(222.50538249922113 278.54382741671884) rotate(0 48.02441435389869 47.10086792401603)"><path d="M-0.36 1.63 L95.24 0.97 L96.17 92.69 L1.52 93.66" stroke="none" stroke-width="0" fill="#868e96"></path><path d="M1.03 1.83 C25.61 -1.08, 51.68 -2.63, 97.34 0.39 M-0.2 -0.93 C20 0.57, 40.77 0.04, 96.9 0.81 M97.04 -0.73 C96.15 23.41, 95.84 49.82, 96.2 92.91 M96.02 -0.55 C97.25 32.23, 97.82 64.12, 96.29 94.19 M95.13 93.53 C65.55 93.07, 36.14 94.16, -1.18 94.5 M95.13 93.55 C65.07 94, 35.08 94.63, 0.99 93.94 M-0.22 92.43 C0.09 66.5, 0.43 38.43, 0.57 -0.3 M-0.11 93.94 C0.45 56.61, 0.64 19.31, -0.74 -0.64" stroke="#000000" stroke-width="1" fill="none"></path></g><g stroke-linecap="round" transform="translate(216.23450224032115 272.383772729401) rotate(0 48.02441435389869 47.10086792401603)"><path d="M1.63 -0.81 L97.02 0.12 L94.53 95.72 L-0.54 96.01" stroke="none" stroke-width="0" fill="#ced4da"></path><path d="M1.83 0.57 C34.98 1.09, 68.7 0.8, 96.44 -1.74 M-0.93 -0.48 C34.81 0, 68.38 1.05, 96.86 -0.44 M95.32 0.96 C94.5 20.31, 96.78 39.47, 94.76 95.05 M95.5 0.31 C95.69 38.05, 95.34 74.58, 96.03 94.38 M95.38 94.27 C68.45 94.98, 43.37 92.58, 0.3 94.6 M95.4 93.94 C58.26 93.77, 21.56 94.31, -0.26 94.07 M-1.77 95.05 C-0.61 59.62, -1.61 23.23, -0.3 1.96 M-0.26 93.95 C-0.73 72.88, -0.54 50.93, -0.64 -0.18" stroke="#000000" stroke-width="1" fill="none"></path></g><g stroke-linecap="round" transform="translate(209.26172669470782 265.4941163624769) rotate(0 48.02441435389869 47.10086792401603)"><path d="M-0.81 0.97 L96.17 -1.51 L97.57 93.66 L1.81 94.67" stroke="none" stroke-width="0" fill="#eeeeee"></path><path d="M0.57 -0.3 C38.18 -2.73, 74.48 -0.49, 94.31 1.1 M-0.48 0.7 C29.98 1.07, 61.2 1.71, 95.61 -0.91 M97.01 -0.73 C97.17 21.61, 96.66 38.83, 96.89 96.09 M96.36 -0.01 C96.91 24.48, 96.27 49.67, 96.23 93.93 M96.11 92.78 C65.47 93.54, 31.27 94.18, 0.4 95.97 M95.79 93.74 C65.14 93.75, 34.31 93.31, -0.13 95 M0.84 93.57 C1.29 64.58, 0.67 37.93, 1.96 -1.49 M-0.25 94.1 C0.04 59.76, -0.64 24.5, -0.18 0.82" stroke="#000000" stroke-width="1" fill="none"></path></g><g transform="translate(219.2861410486065 306.59498428649295) rotate(0 39 15)"><text x="39" y="12" font-family="Helvetica, Segoe UI Emoji" font-size="14.876839160052583px" fill="#000000" text-anchor="middle" style="white-space: pre;" direction="ltr">Clickstream</text><text x="39" y="27" font-family="Helvetica, Segoe UI Emoji" font-size="14.876839160052583px" fill="#000000" text-anchor="middle" style="white-space: pre;" direction="ltr"></text></g><g stroke-linecap="round" transform="translate(209.15796895086316 493.1579468898426) rotate(0 7.036535886395143 17.686428038776967)"><path d="M6 -0.46 C7.29 -0.9, 9.71 1.42, 10.85 3.45 C11.99 5.49, 12.55 8.24, 12.85 11.74 C13.14 15.25, 12.93 20.83, 12.6 24.48 C12.28 28.13, 11.97 31.78, 10.91 33.66 C9.86 35.54, 7.96 36.6, 6.29 35.76 C4.61 34.91, 1.75 31.62, 0.85 28.61 C-0.05 25.59, 0.6 21.52, 0.88 17.68 C1.16 13.85, 1.75 8.65, 2.53 5.59 C3.31 2.54, 4.94 0.1, 5.54 -0.65 C6.15 -1.39, 6.08 0.87, 6.14 1.12 M3.95 -0.39 C5.44 -1.55, 8.34 0.64, 9.63 2.29 C10.92 3.95, 10.92 6.27, 11.69 9.57 C12.46 12.86, 14.43 18.23, 14.24 22.04 C14.05 25.86, 11.99 30.02, 10.57 32.44 C9.14 34.85, 6.84 36.88, 5.71 36.55 C4.57 36.22, 4.83 33.25, 3.76 30.46 C2.69 27.67, -0.12 23.59, -0.73 19.81 C-1.34 16.04, -0.74 10.89, 0.08 7.79 C0.89 4.7, 3.52 2.5, 4.17 1.22 C4.82 -0.07, 3.99 -0.16, 3.96 0.09" stroke="none" stroke-width="0" fill="#ffffff"></path><path d="M5.95 -0.61 C7.35 -0.9, 9.84 1.93, 11.1 4.4 C12.36 6.88, 13.12 10.8, 13.49 14.23 C13.87 17.66, 13.85 21.75, 13.36 24.99 C12.87 28.24, 11.78 32.07, 10.53 33.71 C9.28 35.35, 7.44 35.96, 5.87 34.82 C4.29 33.69, 2.18 30.26, 1.09 26.91 C0.01 23.55, -0.96 18.45, -0.66 14.71 C-0.36 10.96, 1.56 7.04, 2.88 4.45 C4.2 1.86, 6.49 -0.13, 7.25 -0.83 C8.02 -1.54, 7.48 -0.14, 7.48 0.22 M2.86 1.47 C3.98 -0.69, 6.23 -1, 7.96 -0.31 C9.69 0.39, 12.19 2.47, 13.26 5.64 C14.33 8.8, 14.6 14.8, 14.39 18.66 C14.17 22.52, 13.14 25.79, 11.96 28.79 C10.77 31.79, 8.97 35.99, 7.3 36.66 C5.63 37.33, 2.99 35.2, 1.92 32.83 C0.86 30.45, 1.27 26.14, 0.92 22.43 C0.57 18.72, -0.57 13.87, -0.18 10.56 C0.22 7.25, 2.88 4.09, 3.3 2.55 C3.72 1, 2.35 1.16, 2.35 1.29" stroke="#000000" stroke-width="1" fill="none"></path></g><g stroke-linecap="round" transform="translate(327.584897178073 493.1579468898426) rotate(0 7.036535886395143 17.686428038776967)"><path d="M9.09 1.43 C10.74 2.46, 13.32 5.44, 14.05 8.62 C14.77 11.81, 13.87 16.6, 13.44 20.54 C13.02 24.48, 12.56 29.69, 11.51 32.28 C10.45 34.86, 8.51 36.43, 7.1 36.06 C5.69 35.7, 4.22 32.62, 3.05 30.09 C1.88 27.56, 0.31 24.41, 0.08 20.89 C-0.14 17.36, 0.94 12.43, 1.7 8.92 C2.46 5.42, 3.34 1.16, 4.65 -0.15 C5.95 -1.45, 8.41 0.69, 9.54 1.09 C10.67 1.5, 11.52 2, 11.42 2.29 M3.65 0.86 C5.26 -0.49, 9.36 -1.49, 11.08 0.06 C12.81 1.61, 13.35 6.69, 14.02 10.17 C14.68 13.65, 15.37 17.53, 15.09 20.94 C14.81 24.36, 13.57 28.05, 12.35 30.66 C11.12 33.27, 9.56 36.78, 7.74 36.6 C5.92 36.43, 2.86 32.59, 1.43 29.61 C0 26.63, -0.63 22.42, -0.84 18.71 C-1.04 15, -0.81 10.48, 0.2 7.35 C1.22 4.23, 4.65 1.16, 5.25 -0.04 C5.85 -1.24, 3.83 -0.01, 3.83 0.18" stroke="none" stroke-width="0" fill="#868e96"></path><path d="M6.19 -0.17 C7.74 -0.45, 10.84 1.01, 12.21 3.39 C13.58 5.78, 14.36 10.24, 14.41 14.15 C14.45 18.05, 13.32 23.34, 12.48 26.82 C11.64 30.3, 10.61 33.75, 9.37 35.02 C8.14 36.29, 6.52 35.91, 5.07 34.45 C3.62 32.99, 1.64 29.39, 0.67 26.28 C-0.29 23.16, -0.95 19.44, -0.71 15.78 C-0.48 12.12, 0.83 7.06, 2.08 4.33 C3.33 1.61, 5.79 0.06, 6.79 -0.56 C7.79 -1.17, 8.03 0.4, 8.09 0.64 M6.62 -0.49 C7.8 -0.34, 10.01 2.56, 11.06 5.22 C12.11 7.89, 12.52 11.92, 12.92 15.5 C13.32 19.08, 14.19 23.65, 13.46 26.69 C12.74 29.73, 9.83 32.74, 8.57 33.74 C7.31 34.74, 7.16 33.87, 5.89 32.68 C4.61 31.49, 2.01 29.81, 0.92 26.59 C-0.17 23.37, -0.86 17.25, -0.66 13.38 C-0.47 9.51, 0.7 5.84, 2.1 3.38 C3.49 0.92, 7.03 -0.78, 7.7 -1.4 C8.37 -2.03, 6.26 -1.11, 6.12 -0.35" stroke="#000000" stroke-width="1" fill="none"></path></g><g stroke-linecap="round"><g transform="translate(216.456243124176 493.9201980458313) rotate(0 58.33331331545725 -0.4852884143404026)"><path d="M-0.12 -0.07 C19.65 -0.17, 98.72 -0.86, 118.31 -0.89 M-1.64 -1.16 C18.01 -1.1, 97.15 -0.17, 117.42 0.19" stroke="#000000" stroke-width="1" fill="none"></path></g></g><mask></mask><g stroke-linecap="round"><g transform="translate(216.2921152742216 528.5137569955996) rotate(0 60.349863180620844 -0.25426609519865906)"><path d="M-0.07 0.11 C19.98 0, 99.9 -0.91, 120.02 -0.76 M-1.57 -0.88 C18.88 -0.84, 102.04 0.37, 122.27 0.37" stroke="#000000" stroke-width="1" fill="none"></path></g></g><mask></mask><g stroke-linecap="round" transform="translate(215.0652567896235 494.56064808000974) rotate(0 4.486868909840496 16.188638525819897)"><path d="M2.24 0 L6.73 0 L8.41 0.56 L8.97 2.24 L8.97 30.13 L8.41 31.82 L6.73 32.38 L0.56 31.82 L0 30.13 L0 2.24 L0.56 0.56 L2.24 0" stroke="none" stroke-width="0" fill="#ffffff"></path><path d="M2.24 0 M2.24 0 C3.43 0, 4.62 0, 6.73 0 M2.24 0 C3.4 0, 4.55 0, 6.73 0 M6.73 0 C8.23 0, 8.97 0.75, 8.97 2.24 M6.73 0 C8.23 0, 8.97 0.75, 8.97 2.24 M8.97 2.24 C8.97 9.36, 8.97 16.47, 8.97 30.13 M8.97 2.24 C8.97 9.88, 8.97 17.53, 8.97 30.13 M8.97 30.13 C8.97 31.63, 8.23 32.38, 6.73 32.38 M8.97 30.13 C8.97 31.63, 8.23 32.38, 6.73 32.38 M6.73 32.38 C5.22 32.38, 3.71 32.38, 2.24 32.38 M6.73 32.38 C5.06 32.38, 3.39 32.38, 2.24 32.38 M2.24 32.38 C0.75 32.38, 0 31.63, 0 30.13 M2.24 32.38 C0.75 32.38, 0 31.63, 0 30.13 M0 30.13 C0 24.47, 0 18.8, 0 2.24 M0 30.13 C0 19.58, 0 9.03, 0 2.24 M0 2.24 C0 0.75, 0.75 0, 2.24 0 M0 2.24 C0 0.75, 0.75 0, 2.24 0" stroke="transparent" stroke-width="1" fill="none"></path></g><g transform="translate(225.16424135229693 504.88336613186834) rotate(0 44.5 8)"><text x="0" y="12" font-family="Helvetica, Segoe UI Emoji" font-size="15.197132616487457px" fill="#000000" text-anchor="start" style="white-space: pre;" direction="ltr">Kafka topic 1</text></g><g stroke-linecap="round" transform="translate(424.5053824992211 279.54382741671884) rotate(0 48.02441435389869 47.10086792401603)"><path d="M-1.64 -1.69 L95.91 0.08 L95.49 93.72 L1.99 92.78" stroke="none" stroke-width="0" fill="#868e96"></path><path d="M-1.56 0.17 C25.91 -1.55, 51.69 0.94, 96.99 -0.02 M-0.97 -0.97 C25.53 -1.72, 53.76 -0.09, 95.22 -0.43 M96.58 1.69 C96.54 33.9, 95.93 70.62, 96.88 92.62 M96.98 -0.72 C95.15 21.06, 96.14 43.85, 95.91 93.38 M95.02 95.47 C67.59 94.19, 44.6 92.3, 1.68 93.2 M95.3 93.59 C72.66 94.56, 48.51 95.33, 0.1 95.1 M-0.38 92.97 C0.07 57.45, 2.22 18.72, -0.01 0.32 M0.3 93.67 C0.98 75.36, -0.66 55.76, -0.13 0.19" stroke="#000000" stroke-width="1" fill="none"></path></g><g stroke-linecap="round" transform="translate(418.23450224032115 273.383772729401) rotate(0 48.02441435389869 47.10086792401603)"><path d="M-1.69 -0.14 L96.13 -0.55 L95.57 96.19 L-1.42 94.1" stroke="none" stroke-width="0" fill="#ced4da"></path><path d="M0.17 0.36 C28.15 1.34, 60.02 1.69, 96.03 -0.5 M-0.97 -0.88 C30.87 1.87, 64.23 0.1, 95.62 0.7 M97.74 0.63 C94.68 26.92, 96.52 54.65, 94.47 92.76 M95.32 -1 C95.26 29.2, 96.57 58.27, 95.23 93.96 M97.32 92.23 C70.2 95.25, 42.4 95.39, -1.01 93.23 M95.44 94.94 C61 94.2, 27.2 93.58, 0.9 95.12 M-1.23 93.61 C0.83 74.12, -0.95 50.9, 0.32 -1.95 M-0.53 95.19 C-0.58 65.2, -1.09 37.37, 0.19 -0.82" stroke="#000000" stroke-width="1" fill="none"></path></g><g stroke-linecap="round" transform="translate(411.2617266947078 266.4941163624769) rotate(0 48.02441435389869 47.10086792401603)"><path d="M-0.14 0.08 L95.49 -0.48 L98.04 92.78 L-0.11 92.76" stroke="none" stroke-width="0" fill="#eeeeee"></path><path d="M0.36 -1.22 C32.69 1.19, 65.14 -0.1, 95.55 0.61 M-0.88 -0.86 C38.42 1.71, 74.13 0.51, 96.75 -0.14 M96.68 -0.97 C96.31 25.11, 97.13 46.91, 94.61 94.4 M95.05 -0.42 C96.92 25.5, 96.79 48.42, 95.81 93.9 M94.08 94.25 C69.42 92.97, 41.39 93.81, -0.98 95.4 M96.79 93.72 C59.58 93.91, 21.76 94.51, 0.92 93.5 M-0.6 94.39 C1.74 70.76, 0.17 50.83, -1.95 0.02 M0.99 94.44 C-0.93 57.42, -0.41 21.37, -0.82 -0.84" stroke="#000000" stroke-width="1" fill="none"></path></g><g transform="translate(435.7861410486065 307.5949842864932) rotate(0 24.5 15)"><text x="24.5" y="12" font-family="Helvetica, Segoe UI Emoji" font-size="14.876839160052583px" fill="#000000" text-anchor="middle" style="white-space: pre;" direction="ltr">Dagger</text><text x="24.5" y="27" font-family="Helvetica, Segoe UI Emoji" font-size="14.876839160052583px" fill="#000000" text-anchor="middle" style="white-space: pre;" direction="ltr"></text></g><g stroke-linecap="round" transform="translate(684.5053824992211 284.54382741671884) rotate(0 48.02441435389869 47.10086792401603)"><path d="M1.16 0.7 L97.96 -1.48 L94.27 94.37 L-0.69 94.16" stroke="none" stroke-width="0" fill="#868e96"></path><path d="M-1.36 -0.62 C32.64 -2.05, 65.81 0.54, 95.72 -1.39 M-0.15 -0.81 C28.65 0.45, 56.8 0.67, 96.6 0.69 M96.96 -1.64 C95.26 35.03, 95.65 71.48, 97.25 93.2 M96.71 -0.43 C96.64 35.12, 95.6 70.72, 95.78 93.81 M96.41 95.44 C67.71 95.27, 38.75 95.24, -1.92 95.44 M96.57 94.05 C60.76 94.8, 23.46 94.06, 0.2 93.75 M-0.38 94.82 C-0.6 66.94, -0.04 34.47, 0 0.96 M-0.7 93.61 C-1.77 60.29, -1.85 27.81, 0.55 0.37" stroke="#000000" stroke-width="1" fill="none"></path></g><g stroke-linecap="round" transform="translate(678.2345022403211 278.383772729401) rotate(0 48.02441435389869 47.10086792401603)"><path d="M0.7 1.91 L94.56 -1.78 L96.22 93.51 L-0.04 96.1" stroke="none" stroke-width="0" fill="#ced4da"></path><path d="M-0.62 -0.61 C18.73 -0.05, 41.17 0.33, 94.66 0.01 M-0.81 -0.2 C35.75 -0.76, 71.37 0.69, 96.73 0.74 M94.41 0.11 C96.47 19.77, 97.71 39.73, 95.05 95.65 M95.62 0.95 C96.27 24.59, 96.77 49.09, 95.65 94.13 M97.29 93.99 C64.14 93.32, 32.02 92.45, 1.24 95.71 M95.9 94.97 C71.66 94.22, 45.66 94.9, -0.45 94.27 M0.62 93.15 C0.87 69.98, -2.65 46.73, 0.96 1.11 M-0.59 93.3 C-1.06 56.28, -0.05 20.88, 0.37 0.58" stroke="#000000" stroke-width="1" fill="none"></path></g><g stroke-linecap="round" transform="translate(671.2617266947078 271.4941163624769) rotate(0 48.02441435389869 47.10086792401603)"><path d="M1.91 -1.48 L94.27 0.17 L95.35 94.16 L1.89 92.54" stroke="none" stroke-width="0" fill="#eeeeee"></path><path d="M-0.61 -1.11 C37.55 1.78, 76.17 -1.09, 96.06 1.37 M-0.2 0.35 C26.98 1.35, 56.32 1.46, 96.79 -0.95 M96.16 -0.17 C96.98 35.26, 97.68 67.37, 97.5 93.44 M96.99 0.01 C96.59 30.88, 96.41 60.34, 95.98 94.54 M95.83 94.39 C57.44 94.96, 19.02 96.04, 1.51 93.46 M96.81 95.08 C69.54 94.19, 44.19 93.61, 0.07 93.72 M-1.06 95.88 C-0.31 56.05, 0.18 22.56, 1.11 1.84 M-0.9 93.77 C-0.32 60.23, 1.22 25.48, 0.58 0.35" stroke="#000000" stroke-width="1" fill="none"></path></g><g transform="translate(683.7861410486065 298.5949842864932) rotate(0 34 36.95652173913038)"><text x="34" y="11.782608695652176" font-family="Helvetica, Segoe UI Emoji" font-size="14.66123279541414px" fill="#000000" text-anchor="middle" style="white-space: pre;" direction="ltr">Aggregate</text><text x="34" y="26.56521739130435" font-family="Helvetica, Segoe UI Emoji" font-size="14.66123279541414px" fill="#000000" text-anchor="middle" style="white-space: pre;" direction="ltr">and </text><text x="34" y="41.34782608695653" font-family="Helvetica, Segoe UI Emoji" font-size="14.66123279541414px" fill="#000000" text-anchor="middle" style="white-space: pre;" direction="ltr">Count</text><text x="34" y="56.1304347826087" font-family="Helvetica, Segoe UI Emoji" font-size="14.66123279541414px" fill="#000000" text-anchor="middle" style="white-space: pre;" direction="ltr"></text><text x="34" y="70.91304347826087" font-family="Helvetica, Segoe UI Emoji" font-size="14.66123279541414px" fill="#000000" text-anchor="middle" style="white-space: pre;" direction="ltr"></text></g><g stroke-linecap="round" transform="translate(518.6579689508629 489.4526005566886) rotate(0 7.036535886395143 17.686428038776967)"><path d="M5.14 -0.11 C6.32 -0.9, 8 0.75, 9.43 2.66 C10.87 4.56, 13.03 8.17, 13.75 11.33 C14.47 14.49, 14.32 18.04, 13.76 21.59 C13.2 25.14, 11.56 30.34, 10.41 32.63 C9.26 34.92, 8.3 35.92, 6.88 35.34 C5.45 34.75, 3.09 31.99, 1.85 29.1 C0.61 26.21, -0.61 21.47, -0.57 18 C-0.53 14.53, 0.78 11.12, 2.1 8.28 C3.41 5.44, 5.93 1.98, 7.32 0.98 C8.7 -0.01, 10.51 2.28, 10.39 2.3 M3.93 -0.4 C5.26 -1.7, 7.39 0.11, 8.79 1.53 C10.19 2.94, 11.65 4.84, 12.33 8.08 C13.01 11.31, 12.8 17.25, 12.89 20.93 C12.97 24.62, 13.71 27.62, 12.84 30.18 C11.97 32.73, 9.34 36.1, 7.67 36.26 C6 36.42, 3.83 33.59, 2.8 31.13 C1.78 28.68, 1.93 25.07, 1.52 21.51 C1.11 17.95, -0.15 13.02, 0.34 9.78 C0.82 6.55, 3.75 3.25, 4.42 2.08 C5.09 0.9, 4.18 2.48, 4.35 2.73" stroke="none" stroke-width="0" fill="#ffffff"></path><path d="M9.76 2.52 C11.33 3.91, 13.64 6.91, 14.27 10.07 C14.9 13.23, 14.11 17.86, 13.55 21.48 C12.98 25.11, 12.21 29.47, 10.87 31.82 C9.53 34.18, 6.83 35.82, 5.51 35.61 C4.19 35.41, 3.9 33.36, 2.96 30.6 C2.02 27.84, 0.03 22.78, -0.12 19.03 C-0.28 15.28, 1.05 11.25, 2.03 8.1 C3 4.96, 3.97 0.83, 5.72 0.18 C7.47 -0.46, 11.52 2.9, 12.52 4.22 C13.52 5.55, 12.05 7.97, 11.7 8.15 M7.95 0.09 C9.48 -0.08, 11.65 1.94, 12.73 4.44 C13.81 6.94, 14.31 11.21, 14.41 15.09 C14.51 18.96, 14.05 24.4, 13.35 27.7 C12.65 31.01, 11.84 34, 10.21 34.91 C8.58 35.82, 5.19 34.95, 3.55 33.15 C1.91 31.35, 0.8 27.5, 0.35 24.09 C-0.1 20.69, 0.38 16.35, 0.86 12.71 C1.34 9.07, 2.15 4.54, 3.24 2.26 C4.32 -0.03, 6.66 -0.47, 7.37 -0.99 C8.08 -1.51, 7.64 -1.38, 7.5 -0.87" stroke="#000000" stroke-width="1" fill="none"></path></g><g stroke-linecap="round" transform="translate(637.084897178073 489.4526005566886) rotate(0 7.036535886395143 17.686428038776967)"><path d="M7.94 -0.24 C9.67 0.41, 12.35 4.14, 13.51 7.26 C14.68 10.38, 15.3 14.84, 14.93 18.48 C14.55 22.13, 12.38 26.23, 11.27 29.12 C10.15 32, 9.55 35.24, 8.22 35.79 C6.89 36.35, 4.76 34.67, 3.29 32.43 C1.82 30.19, 0.04 25.82, -0.58 22.35 C-1.19 18.88, -1.29 15.04, -0.4 11.61 C0.49 8.18, 3 3.42, 4.78 1.79 C6.56 0.16, 9.3 1.9, 10.3 1.81 C11.3 1.71, 11.08 1.19, 10.77 1.22 M3.9 -0.17 C5.38 -1.28, 9.06 -0.66, 10.5 0.93 C11.94 2.52, 11.99 5.55, 12.54 9.36 C13.1 13.18, 14.27 19.89, 13.82 23.83 C13.37 27.77, 10.93 31.05, 9.83 33.01 C8.73 34.98, 8.52 35.89, 7.21 35.62 C5.91 35.36, 3.04 34.32, 2 31.44 C0.95 28.56, 0.87 22.41, 0.94 18.35 C1 14.29, 1.51 10.1, 2.41 7.07 C3.32 4.04, 5.66 1.09, 6.38 0.16 C7.1 -0.78, 6.73 1.27, 6.73 1.43" stroke="none" stroke-width="0" fill="#868e96"></path><path d="M6.01 1.49 C7.44 0.31, 8.69 -0.08, 9.79 1.32 C10.88 2.72, 11.96 6.59, 12.58 9.9 C13.19 13.22, 13.66 17.38, 13.47 21.23 C13.28 25.08, 12.52 30.68, 11.42 33 C10.33 35.33, 8.49 35.5, 6.91 35.17 C5.33 34.84, 2.98 33.59, 1.94 31.03 C0.89 28.48, 0.81 23.58, 0.62 19.85 C0.44 16.12, -0.3 12.1, 0.83 8.64 C1.97 5.18, 5.92 0.4, 7.44 -0.92 C8.96 -2.25, 10 0.22, 9.94 0.7 M7.3 0.7 C8.46 0.62, 10.01 2.4, 10.93 4.92 C11.86 7.44, 12.53 11.9, 12.83 15.83 C13.14 19.75, 13.36 25.44, 12.78 28.48 C12.19 31.52, 10.79 33.16, 9.31 34.05 C7.82 34.93, 5.45 35.03, 3.88 33.79 C2.3 32.54, 0.52 29.84, -0.14 26.57 C-0.81 23.31, -0.46 18.04, -0.13 14.18 C0.2 10.32, 0.78 5.8, 1.84 3.41 C2.9 1.02, 5.54 0.52, 6.23 -0.17 C6.92 -0.86, 5.78 -1.24, 5.98 -0.73" stroke="#000000" stroke-width="1" fill="none"></path></g><g stroke-linecap="round"><g transform="translate(525.9562431241758 490.2148517126775) rotate(0 59.97232592324957 0.4550021042797425)"><path d="M1.05 -0.65 C20.55 -0.85, 97.78 -0.59, 117.47 -0.31 M0.15 1.63 C19.99 1.52, 99.99 1.47, 119.8 1.06" stroke="#000000" stroke-width="1" fill="none"></path></g></g><mask></mask><g stroke-linecap="round"><g transform="translate(525.7921152742216 524.8084106624456) rotate(0 59.976109081348625 0.3907695150244308)"><path d="M-0.65 -0.73 C19.3 -0.74, 100.17 0.93, 120.6 1.01 M1.22 1.5 C20.9 1.69, 99.41 -0.49, 119.49 -0.58" stroke="#000000" stroke-width="1" fill="none"></path></g></g><mask></mask><g stroke-linecap="round" transform="translate(524.5652567896233 490.85530174685573) rotate(0 4.486868909840496 16.188638525819897)"><path d="M2.24 0 L6.73 0 L8.41 0.56 L8.97 2.24 L8.97 30.13 L8.41 31.82 L6.73 32.38 L0.56 31.82 L0 30.13 L0 2.24 L0.56 0.56 L2.24 0" stroke="none" stroke-width="0" fill="#ffffff"></path><path d="M2.24 0 M2.24 0 C3.86 0, 5.47 0, 6.73 0 M2.24 0 C3.59 0, 4.94 0, 6.73 0 M6.73 0 C8.23 0, 8.97 0.75, 8.97 2.24 M6.73 0 C8.23 0, 8.97 0.75, 8.97 2.24 M8.97 2.24 C8.97 10.98, 8.97 19.73, 8.97 30.13 M8.97 2.24 C8.97 11.01, 8.97 19.77, 8.97 30.13 M8.97 30.13 C8.97 31.63, 8.23 32.38, 6.73 32.38 M8.97 30.13 C8.97 31.63, 8.23 32.38, 6.73 32.38 M6.73 32.38 C5.25 32.38, 3.78 32.38, 2.24 32.38 M6.73 32.38 C5.04 32.38, 3.36 32.38, 2.24 32.38 M2.24 32.38 C0.75 32.38, 0 31.63, 0 30.13 M2.24 32.38 C0.75 32.38, 0 31.63, 0 30.13 M0 30.13 C0 23.31, 0 16.49, 0 2.24 M0 30.13 C0 20.12, 0 10.1, 0 2.24 M0 2.24 C0 0.75, 0.75 0, 2.24 0 M0 2.24 C0 0.75, 0.75 0, 2.24 0" stroke="transparent" stroke-width="1" fill="none"></path></g><g transform="translate(532.6642413522969 501.1780197987141) rotate(0 44.5 8)"><text x="0" y="12" font-family="Helvetica, Segoe UI Emoji" font-size="15.197132616487457px" fill="#000000" text-anchor="start" style="white-space: pre;" direction="ltr">Kafka topic 2</text></g><g transform="translate(169.90796895086316 552.6198398136139) rotate(0 109 8.5)"><text x="0" y="13" font-family="Helvetica, Segoe UI Emoji" font-size="16px" fill="#000000" text-anchor="start" style="white-space: pre;" direction="ltr">All impressions across the app</text></g><g transform="translate(512.9079689508632 543.6198398136139) rotate(0 73 8.5)"><text x="0" y="13" font-family="Helvetica, Segoe UI Emoji" font-size="16px" fill="#000000" text-anchor="start" style="white-space: pre;" direction="ltr">Only ad impressions</text></g><g mask="url(#mask-eDN78kYBMgUpiuUVGhvKV)" stroke-linecap="round"><g transform="translate(47.907968950863165 107.11983981361391) rotate(0 81.57014869782145 95.03195418976247)"><path d="M0.65 -1.11 C27.9 30.8, 136.56 159.2, 163.61 191.17 M-0.47 0.92 C26.58 32.56, 134.84 158.35, 162.45 189.67" stroke="#000000" stroke-width="1" fill="none"></path></g><g transform="translate(47.907968950863165 107.11983981361391) rotate(0 81.57014869782145 95.03195418976247)"><path d="M134.36 174.47 C146.26 177.68, 153.68 185.95, 160.52 189.61 M136.84 175.46 C142.33 179.88, 149.32 183.8, 161.64 189.75" stroke="#000000" stroke-width="1" fill="none"></path></g><g transform="translate(47.907968950863165 107.11983981361391) rotate(0 81.57014869782145 95.03195418976247)"><path d="M149.85 161.01 C156.92 168.47, 159.54 180.91, 160.52 189.61 M152.33 161.99 C153.69 170.02, 156.55 177.53, 161.64 189.75" stroke="#000000" stroke-width="1" fill="none"></path></g></g><mask id="mask-eDN78kYBMgUpiuUVGhvKV"><rect x="0" y="0" fill="#fff" width="311.90796895086316" height="397.1198398136139"></rect><rect x="90.90796895086316" y="193.6198398136139" fill="#000" width="78" height="17" opacity="1"></rect></mask><g transform="translate(90.90796895086316 193.6198398136139) rotate(0 38.57014869782145 8.531954189762473)"><text x="39" y="13" font-family="Helvetica, Segoe UI Emoji" font-size="16px" fill="#000000" text-anchor="middle" style="white-space: pre;" direction="ltr">impression</text></g><g mask="url(#mask-QFAqJBClB7nvuX9RY_vzT)" stroke-linecap="round"><g transform="translate(52.907968950863165 205.1198398136139) rotate(0 79.06223332254214 51.66471243264152)"><path d="M1.03 0.69 C27.01 17.59, 129.71 84.82, 155.88 101.86 M0.12 0 C26.44 17.06, 131.71 86.47, 158.01 103.33" stroke="#000000" stroke-width="1" fill="none"></path></g><g transform="translate(52.907968950863165 205.1198398136139) rotate(0 79.06223332254214 51.66471243264152)"><path d="M129.93 94.67 C137.49 100.16, 148.24 102.32, 158.86 101.41 M128.21 96.03 C137.39 97.81, 145.62 101.02, 158.43 103.34" stroke="#000000" stroke-width="1" fill="none"></path></g><g transform="translate(52.907968950863165 205.1198398136139) rotate(0 79.06223332254214 51.66471243264152)"><path d="M141.13 77.48 C145.33 88.3, 152.67 95.7, 158.86 101.41 M139.41 78.83 C145.26 85.73, 150.11 94.12, 158.43 103.34" stroke="#000000" stroke-width="1" fill="none"></path></g></g><mask id="mask-QFAqJBClB7nvuX9RY_vzT"><rect x="0" y="0" fill="#fff" width="309.90796895086316" height="407.1198398136139"></rect><rect x="92.40796895086316" y="247.6198398136139" fill="#000" width="78" height="17" opacity="1"></rect></mask><g transform="translate(92.40796895086316 247.6198398136139) rotate(0 39.56223332254214 9.164712432641522)"><text x="39" y="13" font-family="Helvetica, Segoe UI Emoji" font-size="16px" fill="#000000" text-anchor="middle" style="white-space: pre;" direction="ltr">impression</text></g><g mask="url(#mask-p9RHKEgc9L0Qewf5SB6AS)" stroke-linecap="round"><g transform="translate(52.907968950863165 381.1198398136139) rotate(0 78.05645480203447 -25.847843829169847)"><path d="M-0.54 0.92 C25.25 -7.74, 128.42 -43.84, 154.3 -52.61 M1.38 0.35 C27.6 -8.09, 131.24 -42.96, 156.65 -51.4" stroke="#000000" stroke-width="1" fill="none"></path></g><g transform="translate(52.907968950863165 381.1198398136139) rotate(0 78.05645480203447 -25.847843829169847)"><path d="M134.7 -33.89 C138.49 -37.98, 146.21 -43.12, 156.85 -52.31 M133.07 -32.16 C140.81 -39.2, 147.14 -44.03, 156.75 -51.01" stroke="#000000" stroke-width="1" fill="none"></path></g><g transform="translate(52.907968950863165 381.1198398136139) rotate(0 78.05645480203447 -25.847843829169847)"><path d="M128.19 -53.35 C133.59 -52.25, 143.05 -52.22, 156.85 -52.31 M126.56 -51.63 C136.59 -52.42, 145.02 -50.98, 156.75 -51.01" stroke="#000000" stroke-width="1" fill="none"></path></g></g><mask id="mask-p9RHKEgc9L0Qewf5SB6AS"><rect x="0" y="0" fill="#fff" width="307.90796895086316" height="533.1198398136139"></rect><rect x="91.40796895086316" y="346.6198398136139" fill="#000" width="78" height="17" opacity="1"></rect></mask><g transform="translate(91.40796895086316 346.6198398136139) rotate(0 39.556454802034466 8.652156170830153)"><text x="39" y="13" font-family="Helvetica, Segoe UI Emoji" font-size="16px" fill="#000000" text-anchor="middle" style="white-space: pre;" direction="ltr">impression</text></g><g mask="url(#mask-Zk2MwxchfiY4iivbG7VkE)" stroke-linecap="round"><g transform="translate(230.90796895086316 373.1198398136139) rotate(0 1.932590515430661 58.64542166309002)"><path d="M1.1 0.9 C1.34 10.64, 0.39 38.57, 0.82 57.79 C1.24 77.01, 3.2 106.47, 3.65 116.21 M0.22 0.32 C0.86 10.3, 2.39 39.78, 2.91 59.22 C3.42 78.66, 3.11 107.37, 3.3 116.97" stroke="#000000" stroke-width="1" fill="none"></path></g><g transform="translate(230.90796895086316 373.1198398136139) rotate(0 1.932590515430661 58.64542166309002)"><path d="M-5.5 87.2 C-4.93 97.32, -3.8 103.97, 1.56 116.9 M-6.14 88.77 C-2.85 97.45, -0.8 106.5, 3.91 117.13" stroke="#000000" stroke-width="1" fill="none"></path></g><g transform="translate(230.90796895086316 373.1198398136139) rotate(0 1.932590515430661 58.64542166309002)"><path d="M14.78 87.08 C10.3 97.42, 6.38 104.1, 1.56 116.9 M14.14 88.66 C11 97.54, 6.62 106.63, 3.91 117.13" stroke="#000000" stroke-width="1" fill="none"></path></g></g><mask id="mask-Zk2MwxchfiY4iivbG7VkE"><rect x="0" y="0" fill="#fff" width="333.75946367549" height="590.4033602412496"></rect><rect x="184.90796895086316" y="414.1198398136139" fill="#000" width="96" height="34" opacity="1"></rect></mask><g transform="translate(184.90796895086316 414.1198398136139) rotate(0 47.93259051543066 17.64542166309002)"><text x="48" y="30" font-family="Helvetica, Segoe UI Emoji" font-size="16px" fill="#000000" text-anchor="middle" style="white-space: pre;" direction="ltr">push to kafka</text></g><g mask="url(#mask-IvXP5eof-8V7Xwa-MPEkW)" stroke-linecap="round"><g transform="translate(344.90796895086316 512.1198398136139) rotate(0 39.322363169472624 -70.43476511191261)"><path d="M-0.02 0.49 C11.41 -2.03, 56.59 8.59, 69.57 -15.12 C82.55 -38.83, 76.15 -120.48, 77.84 -141.79 M-1.49 -0.3 C9.75 -2.62, 55.32 9.7, 68.92 -13.64 C82.52 -36.99, 78.23 -118.9, 80.13 -140.36" stroke="#000000" stroke-width="1" fill="none"></path></g><g transform="translate(344.90796895086316 512.1198398136139) rotate(0 39.322363169472624 -70.43476511191261)"><path d="M90.61 -111.01 C85.9 -124.75, 82.75 -132.49, 78.49 -139.95 M90.34 -111 C88.22 -118.76, 84.31 -126.9, 79.83 -140.15" stroke="#000000" stroke-width="1" fill="none"></path></g><g transform="translate(344.90796895086316 512.1198398136139) rotate(0 39.322363169472624 -70.43476511191261)"><path d="M70.09 -111.44 C73.23 -125.02, 77.94 -132.59, 78.49 -139.95 M69.82 -111.44 C73.21 -119.26, 74.81 -127.28, 79.83 -140.15" stroke="#000000" stroke-width="1" fill="none"></path></g></g><mask id="mask-IvXP5eof-8V7Xwa-MPEkW"><rect x="0" y="0" fill="#fff" width="523.9079689508632" height="754.1198398136139"></rect><rect x="378.90796895086305" y="488.6198398136139" fill="#000" width="70" height="17" opacity="1"></rect></mask><g transform="translate(378.90796895086305 488.6198398136139) rotate(0 5.322363169472624 -46.93476511191261)"><text x="35" y="13" font-family="Helvetica, Segoe UI Emoji" font-size="16px" fill="#000000" text-anchor="middle" style="white-space: pre;" direction="ltr">Consume</text></g><g transform="translate(374.90796895086316 232.6198398136139) rotate(0 92.5 8.5)"><text x="0" y="13" font-family="Helvetica, Segoe UI Emoji" font-size="16px" fill="#000000" text-anchor="start" style="white-space: pre;" direction="ltr">Filter out irrelevant events</text></g><g stroke-linecap="round"><g transform="translate(478.90796895086316 374.1198398136139) rotate(0 19.562670057683135 65.85735231306398)"><path d="M-0.92 1.14 C-0.38 18.06, -4.03 81.14, 2.88 102.58 C9.79 124.03, 34.13 125.09, 40.54 129.81 M0.8 0.69 C1.2 18.3, -4.59 82.18, 1.87 103.9 C8.32 125.62, 32.88 126.88, 39.53 131.02" stroke="#000000" stroke-width="1" fill="none"></path></g><g transform="translate(478.90796895086316 374.1198398136139) rotate(0 19.562670057683135 65.85735231306398)"><path d="M18.12 130.83 C21.84 130.43, 28.54 131.74, 40.96 131.69 M16.2 131.86 C25.67 131.35, 33.04 131.39, 38.65 131.31" stroke="#000000" stroke-width="1" fill="none"></path></g><g transform="translate(478.90796895086316 374.1198398136139) rotate(0 19.562670057683135 65.85735231306398)"><path d="M23.57 115.84 C25.94 119.47, 31.16 124.85, 40.96 131.69 M21.65 116.87 C29.14 121.95, 34.47 127.61, 38.65 131.31" stroke="#000000" stroke-width="1" fill="none"></path></g></g><mask></mask><g mask="url(#mask-ZEx70Nj6h8k9Gh8mz_kYD)" stroke-linecap="round"><g transform="translate(654.9079689508632 509.1198398136139) rotate(0 31.92263160842583 -64.02160212186209)"><path d="M-1.13 -0.61 C8.25 -3.12, 46.41 5.16, 57.43 -16.07 C68.44 -37.29, 63.79 -109.12, 64.94 -127.97 M0.48 1.69 C9.64 -0.54, 46.06 7.34, 56.7 -14.56 C67.34 -36.47, 63.02 -110.8, 64.3 -129.73" stroke="#000000" stroke-width="1" fill="none"></path></g><g transform="translate(654.9079689508632 509.1198398136139) rotate(0 31.92263160842583 -64.02160212186209)"><path d="M73.35 -100.76 C70.5 -112.38, 68.47 -124.58, 64.13 -131.03 M74.66 -100.91 C71.8 -108.88, 69.27 -113.76, 64.25 -129.1" stroke="#000000" stroke-width="1" fill="none"></path></g><g transform="translate(654.9079689508632 509.1198398136139) rotate(0 31.92263160842583 -64.02160212186209)"><path d="M52.83 -100.9 C58.12 -112.27, 64.23 -124.41, 64.13 -131.03 M54.14 -101.05 C56.07 -108.89, 58.35 -113.73, 64.25 -129.1" stroke="#000000" stroke-width="1" fill="none"></path></g></g><mask id="mask-ZEx70Nj6h8k9Gh8mz_kYD"><rect x="0" y="0" fill="#fff" width="819.61612779221" height="738.2067963353531"></rect><rect x="678.907968950863" y="484.6198398136139" fill="#000" width="66" height="17" opacity="1"></rect></mask><g transform="translate(678.907968950863 484.6198398136139) rotate(0 7.9226316084258315 -39.52160212186209)"><text x="33" y="13" font-family="Helvetica, Segoe UI Emoji" font-size="16px" fill="#000000" text-anchor="middle" style="white-space: pre;" direction="ltr">consume</text></g><g stroke-linecap="round" transform="translate(659.6597284803087 10) rotate(0 60.24824047055438 44.11983981361402)"><path d="M23.29 -1.12 L97.22 0.4 L109.57 1.39 L113.4 5.29 L120.53 12.1 L118.69 21.59 L119.72 69.96 L115.59 84.37 L107.95 85.39 L98.97 86.42 L23.72 88.56 L11.7 88.17 L7.22 84.66 L-1.08 72.62 L0.5 17.33 L1.6 9.05 L7.2 5.07 L21.63 -0.77" stroke="none" stroke-width="0" fill="#eeeeee"></path><path d="M22.06 0 M22.06 0 C50.59 0.35, 82.88 1, 98.44 0 M22.06 0 C44.39 -0.58, 67.98 -0.44, 98.44 0 M98.44 0 C113.11 0.95, 119.92 6.08, 120.5 22.06 M98.44 0 C114.05 2.15, 121.94 8.23, 120.5 22.06 M120.5 22.06 C120.21 31.93, 122.35 42.1, 120.5 66.18 M120.5 22.06 C120.5 40.03, 121.7 56.21, 120.5 66.18 M120.5 66.18 C119.2 79.04, 111.18 90.16, 98.44 88.24 M120.5 66.18 C120.74 82.62, 113.29 86.89, 98.44 88.24 M98.44 88.24 C82.63 87.07, 67.68 89.97, 22.06 88.24 M98.44 88.24 C78.96 87.74, 60.18 87.3, 22.06 88.24 M22.06 88.24 C8.33 86.56, 0.11 82.44, 0 66.18 M22.06 88.24 C5.45 88.44, 2.27 81.91, 0 66.18 M0 66.18 C1.04 50.15, 0.69 31.42, 0 22.06 M0 66.18 C0.64 51.56, 0.41 36.31, 0 22.06 M0 22.06 C-0.82 5.4, 8.77 0.36, 22.06 0 M0 22.06 C-1.29 6.36, 8.46 1.4, 22.06 0" stroke="#000000" stroke-width="1" fill="none"></path></g><g stroke-linecap="round" transform="translate(667.3906973902493 16.931213505461756) rotate(0 12.52950133679667 4.931824994270983)"><path d="M-1.25 0.28 L25.02 1.97 L24.14 10.84 L-1.68 9.98" stroke="none" stroke-width="0" fill="#868e96"></path><path d="M1.48 0.01 C4.53 -0.28, 13.63 -0.35, 23.25 -0.47 M0.82 -0.07 C6.24 0.19, 13.03 0.75, 25.22 -0.35 M24.36 0.63 C25.22 3.82, 24.4 7.42, 24.36 10.83 M25 0.18 C24.58 2.9, 25.06 5.81, 25.05 9.96 M25.53 9.44 C16.77 10.72, 7.96 8.5, 0.79 11.73 M25.59 10.56 C15.7 9.74, 7.68 9.98, 0.89 10.78 M0.79 9.72 C-0.6 5.63, -0.93 4.16, 0.1 0.74 M-0.26 10.18 C0.06 6.43, 0.28 4.13, -0.21 0.02" stroke="#000000" stroke-width="1" fill="none"></path></g><g stroke-linecap="round" transform="translate(707.271833560135 16.521684178200758) rotate(0 33.05655671835723 5.331702696509296)"><path d="M1.45 0.4 L64.93 0.01 L64.53 2.44 L67.53 7.69 L61.64 10.2 L2.23 9.28 L0.6 9.64 L-0.14 1.2 L3.2 -1.82" stroke="none" stroke-width="0" fill="#ced4da"></path><path d="M2.67 0 M2.67 0 C27.25 1.92, 51.17 -1.21, 63.45 0 M2.67 0 C24.02 0.08, 46.17 0.85, 63.45 0 M63.45 0 C64.79 -0.77, 68.06 0.65, 66.11 2.67 M63.45 0 C66.05 -2.07, 66.83 1.07, 66.11 2.67 M66.11 2.67 C66.27 4.33, 65.92 6.67, 66.11 8 M66.11 2.67 C66.04 3.98, 66.22 5.89, 66.11 8 M66.11 8 C67.37 10.54, 63.63 11.72, 63.45 10.66 M66.11 8 C67.71 9.18, 65.41 12.53, 63.45 10.66 M63.45 10.66 C44.05 10.41, 24.82 12.82, 2.67 10.66 M63.45 10.66 C45.11 11.06, 28.83 10.86, 2.67 10.66 M2.67 10.66 C1.02 9.49, -1.86 8.74, 0 8 M2.67 10.66 C2.34 10.68, -1.91 10.8, 0 8 M0 8 C-0.31 6.14, 0.01 4.66, 0 2.67 M0 8 C-0.01 6.85, -0.25 5.31, 0 2.67 M0 2.67 C1.98 1.78, 2.71 -0.45, 2.67 0 M0 2.67 C0.49 1.97, 2.3 0.68, 2.67 0" stroke="#000000" stroke-width="1" fill="none"></path></g><g stroke-linecap="round"><g transform="translate(694.0106916066346 22.272322619847728) rotate(0 6.261923295097063 0.10616608997167987)"><path d="M0.01 -0.95 C2.29 -0.98, 11.65 0.76, 13.97 0.72 M-1.45 1.17 C0.65 0.73, 10.54 -0.68, 12.96 -0.96" stroke="#000000" stroke-width="1" fill="none"></path></g><g transform="translate(694.0106916066346 22.272322619847728) rotate(0 6.261923295097063 0.10616608997167987)"><path d="M6.14 2.22 C9.17 1.15, 10.04 0.05, 12.8 -1.44 M6.44 2.39 C8.42 1.52, 10.86 0.03, 13.19 -0.65" stroke="#000000" stroke-width="1" fill="none"></path></g><g transform="translate(694.0106916066346 22.272322619847728) rotate(0 6.261923295097063 0.10616608997167987)"><path d="M5.51 -2.57 C8.78 -2.1, 9.85 -1.67, 12.8 -1.44 M5.81 -2.39 C8.03 -1.68, 10.69 -1.6, 13.19 -0.65" stroke="#000000" stroke-width="1" fill="none"></path></g></g><mask></mask><g stroke-linecap="round" transform="translate(667.817233605971 30.153836192804874) rotate(0 12.52950133679667 4.931824994270983)"><path d="M1.97 -0.92 L26.03 -1.68 L25.17 11.42 L-1.65 10.04" stroke="none" stroke-width="0" fill="#868e96"></path><path d="M-0.23 1.42 C9.07 -1.61, 18.28 -0.24, 23.67 0.6 M0.27 -0.91 C10.41 0.34, 18.8 0.84, 25.91 0.97 M25.27 -0.74 C25.34 1.56, 26.09 4.3, 24.68 10.82 M25.21 0.04 C25.41 2.84, 25.19 5.83, 24.81 9.69 M26.01 9.28 C15.68 10.65, 10.72 11.12, 0.76 8.26 M25.14 10.67 C16.53 10.68, 8.29 10.17, -0.41 10.68 M-0.91 8.9 C0.96 6.22, 0.76 2.43, -0.58 -0.92 M-0.41 10.08 C0.25 7.2, -0.05 4.66, 0.07 -0.01" stroke="#000000" stroke-width="1" fill="none"></path></g><g stroke-linecap="round" transform="translate(707.6983697758538 30.35009741220574) rotate(0 33.05655671835723 5.331702696509296)"><path d="M2.67 -1.58 L63.22 1.42 L65.81 0.86 L65.65 7.56 L62.06 11.27 L4.31 10.53 L-1.47 8.54 L-1.82 4.33 L2.99 -0.71" stroke="none" stroke-width="0" fill="#ced4da"></path><path d="M2.67 0 M2.67 0 C23.45 0.68, 47.24 -0.15, 63.45 0 M2.67 0 C17.3 0.22, 29.59 1.4, 63.45 0 M63.45 0 C64.98 0.72, 64.32 1.51, 66.11 2.67 M63.45 0 C65.41 1.47, 66.09 1.35, 66.11 2.67 M66.11 2.67 C66.21 4.31, 66.08 6.43, 66.11 8 M66.11 2.67 C66.33 4.28, 66.18 5.34, 66.11 8 M66.11 8 C67.17 11.16, 64.7 10.82, 63.45 10.66 M66.11 8 C67.97 10.49, 67.26 12.78, 63.45 10.66 M63.45 10.66 C44.57 10.87, 21.19 9.32, 2.67 10.66 M63.45 10.66 C51.93 10.79, 38.32 9.8, 2.67 10.66 M2.67 10.66 C-0.15 11.93, 0.01 8.12, 0 8 M2.67 10.66 C1.91 12.1, -0.99 9.85, 0 8 M0 8 C0.52 6.49, 0.25 5.02, 0 2.67 M0 8 C-0.02 6.63, 0.08 4.98, 0 2.67 M0 2.67 C-0.45 1.31, 1.82 1.23, 2.67 0 M0 2.67 C0.68 0.6, 1.59 0.92, 2.67 0" stroke="#000000" stroke-width="1" fill="none"></path></g><g stroke-linecap="round"><g transform="translate(693.7124899655192 35.76922700437126) rotate(0 7.502027322731692 -0.0943335567194481)"><path d="M0.85 -0.18 C3.18 -0.2, 10.86 -0.15, 13.02 -0.25 M-0.16 -1.32 C2.61 -1.15, 12.98 0.9, 15.17 1.14" stroke="#000000" stroke-width="1" fill="none"></path></g><g transform="translate(693.7124899655192 35.76922700437126) rotate(0 7.502027322731692 -0.0943335567194481)"><path d="M8.13 1.83 C9.61 1.97, 10.81 2.04, 15.75 1.09 M8.53 2.52 C9.68 2.46, 11.68 2.27, 14.92 1.36" stroke="#000000" stroke-width="1" fill="none"></path></g><g transform="translate(693.7124899655192 35.76922700437126) rotate(0 7.502027322731692 -0.0943335567194481)"><path d="M8.9 -2.93 C10.2 -1.73, 11.23 -0.61, 15.75 1.09 M9.3 -2.24 C10.29 -1.23, 12.11 -0.34, 14.92 1.36" stroke="#000000" stroke-width="1" fill="none"></path></g></g><mask></mask><g stroke-linecap="round" transform="translate(668.4037209025836 57.80628812302734) rotate(0 12.52950133679667 4.931824994270983)"><path d="M-1.68 0.11 L26.61 -1.65 L25.23 11.84 L0.89 11.69" stroke="none" stroke-width="0" fill="#868e96"></path><path d="M-1.8 -0.47 C6.8 -1.35, 15.07 1.68, 24.92 -1.47 M0.16 -0.35 C8.84 0.64, 17.35 -0.92, 25.7 0.08 M24.36 0.97 C24.77 2.8, 25.94 6.23, 25.41 8.98 M25.05 0.1 C25.21 3.01, 24.89 6.65, 24.95 9.86 M25.85 11.73 C17.61 10.47, 6.05 10.76, 1.39 9.34 M25.95 10.78 C17.71 9.54, 10.44 10.74, -0.14 9.22 M0.1 10.61 C0.16 7.24, -0.82 5.25, 0.62 0.01 M-0.21 9.88 C-0.35 7.79, -0.05 6.06, -0.23 0.24" stroke="#000000" stroke-width="1" fill="none"></path></g><g stroke-linecap="round" transform="translate(708.2848570724717 57.69965406909682) rotate(0 33.05655671835723 5.331702696509296)"><path d="M4.08 -0.3 L61.64 -0.47 L65.68 1.28 L66.72 9.64 L63.31 9.2 L3.2 8.85 L1.66 8.32 L-0.71 3.97 L4.37 1.94" stroke="none" stroke-width="0" fill="#ced4da"></path><path d="M2.67 0 M2.67 0 C17 -1.55, 30.9 -1.47, 63.45 0 M2.67 0 C27.84 0.11, 51.43 -0.66, 63.45 0 M63.45 0 C65.85 0.16, 67.39 0.87, 66.11 2.67 M63.45 0 C65.69 0.68, 64.94 0.07, 66.11 2.67 M66.11 2.67 C66.35 4.24, 65.76 6.33, 66.11 8 M66.11 2.67 C65.93 4.91, 66.33 6.79, 66.11 8 M66.11 8 C66.27 11.39, 65.85 12.44, 63.45 10.66 M66.11 8 C68.23 10.63, 64.29 12.55, 63.45 10.66 M63.45 10.66 C38.5 8.31, 19.15 10.48, 2.67 10.66 M63.45 10.66 C39.7 9.79, 18.45 10.31, 2.67 10.66 M2.67 10.66 C-0.77 11.55, 1.25 8.91, 0 8 M2.67 10.66 C0.96 9.22, 0.32 9.72, 0 8 M0 8 C-0.42 5.9, 0.44 3.31, 0 2.67 M0 8 C0.19 6.29, 0 4.83, 0 2.67 M0 2.67 C1.23 1.48, 0.64 0.61, 2.67 0 M0 2.67 C0.92 0.32, 2.77 -0.06, 2.67 0" stroke="#000000" stroke-width="1" fill="none"></path></g><g stroke-linecap="round"><g transform="translate(694.5433762824704 63.43450643426354) rotate(0 7.636076222942734 -0.7485501554881466)"><path d="M-0.28 -0.26 C1.96 -0.03, 10.71 0.28, 13.28 0.3 M1.77 -1.44 C4.41 -1.49, 13.37 -2.06, 15.55 -1.64" stroke="#000000" stroke-width="1" fill="none"></path></g><g transform="translate(694.5433762824704 63.43450643426354) rotate(0 7.636076222942734 -0.7485501554881466)"><path d="M8.67 -0.02 C10.97 0.47, 12.63 -1.23, 15.74 -2.28 M9.05 0.77 C11.74 -0.56, 14.2 -1.09, 15.63 -1.9" stroke="#000000" stroke-width="1" fill="none"></path></g><g transform="translate(694.5433762824704 63.43450643426354) rotate(0 7.636076222942734 -0.7485501554881466)"><path d="M8.89 -4.84 C11.08 -2.98, 12.68 -3.31, 15.74 -2.28 M9.27 -4.05 C11.88 -3.54, 14.26 -2.22, 15.63 -1.9" stroke="#000000" stroke-width="1" fill="none"></path></g></g><mask></mask><g stroke-linecap="round"><g transform="translate(680.5287627950751 40.323596134185436) rotate(0 0.06715733903666887 8.507637115487569)"><path d="M-0.26 -0.83 C-0.02 2.19, 0.36 15.05, 0.4 17.85" stroke="#000000" stroke-width="1.5" fill="none" stroke-dasharray="1.5 7"></path></g></g><mask></mask><g stroke-linecap="round"><g transform="translate(742.1005430883305 41.87533333174588) rotate(0 0.11854553695400227 8.073058012026877)"><path d="M-0.83 0.36 C-0.61 3.04, 1.06 13.15, 1.07 15.78" stroke="#000000" stroke-width="1.5" fill="none" stroke-dasharray="1.5 7"></path></g></g><mask></mask><g transform="translate(674.9224267170729 18.173613627740224) rotate(0 4.997772009974824 4.089086189979412)"><text x="4.997772009974799" y="5.17817237995874" font-family="Virgil, Segoe UI Emoji" font-size="6.057905466636109px" fill="#000000" text-anchor="middle" style="white-space: pre;" direction="ltr">Key</text></g><g transform="translate(675.5282172637338 58.30695537996439) rotate(0 4.997772009974824 4.089086189979412)"><text x="4.997772009974799" y="5.17817237995874" font-family="Virgil, Segoe UI Emoji" font-size="6.057905466636109px" fill="#000000" text-anchor="middle" style="white-space: pre;" direction="ltr">Key</text></g><g transform="translate(732.6045608085295 18.46685727604813) rotate(0 7.723829469961061 4.089086189979412)"><text x="7.723829469961045" y="5.17817237995874" font-family="Virgil, Segoe UI Emoji" font-size="6.057905466636125px" fill="#000000" text-anchor="middle" style="white-space: pre;" direction="ltr">Value</text></g><g transform="translate(732.3016655352016 59.01245748562678) rotate(0 7.723829469961061 4.089086189979412)"><text x="7.723829469961045" y="5.17817237995874" font-family="Virgil, Segoe UI Emoji" font-size="6.057905466636125px" fill="#000000" text-anchor="middle" style="white-space: pre;" direction="ltr">Value</text></g><g transform="translate(694.9079689508632 75.8253288012188) rotate(0 21 8.5)"><text x="21" y="13" font-family="Helvetica, Segoe UI Emoji" font-size="16px" fill="#000000" text-anchor="middle" style="white-space: pre;" direction="ltr">Redis</text></g><g mask="url(#mask--IxMSmi3Ycc-jegWGOKHe)" stroke-linecap="round"><g transform="translate(717.9079689508632 273.1198398136139) rotate(0 -0.7572923376783365 -86.20830995259803)"><path d="M-0.94 -0.63 C-1.25 -29.5, -1.51 -145.25, -1.91 -174.07 M0.77 1.66 C0.4 -26.94, -1.45 -143.02, -2.29 -172.57" stroke="#000000" stroke-width="1" fill="none"></path></g><g transform="translate(717.9079689508632 273.1198398136139) rotate(0 -0.7572923376783365 -86.20830995259803)"><path d="M7.52 -142.79 C5.42 -153.54, 3.05 -163.05, -2.17 -172.82 M8.1 -144.98 C4.47 -155.21, 1.21 -165.13, -2.85 -171.84" stroke="#000000" stroke-width="1" fill="none"></path></g><g transform="translate(717.9079689508632 273.1198398136139) rotate(0 -0.7572923376783365 -86.20830995259803)"><path d="M-13 -142.35 C-8.99 -153.07, -5.25 -162.72, -2.17 -172.82 M-12.42 -144.55 C-8.23 -155.11, -3.67 -165.19, -2.85 -171.84" stroke="#000000" stroke-width="1" fill="none"></path></g></g><mask id="mask--IxMSmi3Ycc-jegWGOKHe"><rect x="0" y="0" fill="#fff" width="820.9079689508632" height="547.1198398136139"></rect><rect x="633.907968950863" y="169.1198398136139" fill="#000" width="165" height="34" opacity="1"></rect></mask><g transform="translate(633.907968950863 169.1198398136139) rotate(0 83.24270766232166 17.79169004740197)"><text x="82.5" y="13" font-family="Helvetica, Segoe UI Emoji" font-size="16px" fill="#000000" text-anchor="middle" style="white-space: pre;" direction="ltr">Store counts against a </text><text x="82.5" y="30" font-family="Helvetica, Segoe UI Emoji" font-size="16px" fill="#000000" text-anchor="middle" style="white-space: pre;" direction="ltr">campaign</text></g></svg>