<svg version="1.1" xmlns="http://www.w3.org/2000/svg" viewBox="0 0 613.3125054373706 220.625" width="1226.6250108747413" height="441.25">
  <!-- svg-source:excalidraw -->
  
  <defs>
    <style class="style-fonts">
      @font-face {
        font-family: "Virgil";
        src: url("https://excalidraw.com/Virgil.woff2");
      }
      @font-face {
        font-family: "Cascadia";
        src: url("https://excalidraw.com/Cascadia.woff2");
      }
    </style>
  </defs>
  <rect x="0" y="0" width="613.3125054373706" height="220.625" fill="#ffffff"></rect><g stroke-linecap="round"><g stroke-opacity="0.4" fill-opacity="0.4" transform="translate(10 156.5) rotate(0 293 1.5)"><path d="M0 0 C97.67 0.5, 488.33 2.5, 586 3 M0 0 C97.67 0.5, 488.33 2.5, 586 3" stroke="#343a40" stroke-width="1" fill="none"></path></g><g stroke-opacity="0.4" fill-opacity="0.4" transform="translate(10 156.5) rotate(0 293 1.5)"><path d="M586 3 L572.37 9.27 L572.44 -3.41 L586 3" stroke="none" stroke-width="0" fill="#343a40" fill-rule="evenodd"></path><path d="M586 3 C582.33 4.69, 578.67 6.37, 572.37 9.27 M586 3 C582.91 4.42, 579.82 5.84, 572.37 9.27 M572.37 9.27 C572.39 5.52, 572.41 1.77, 572.44 -3.41 M572.37 9.27 C572.39 6.22, 572.4 3.18, 572.44 -3.41 M572.44 -3.41 C576.34 -1.56, 580.25 0.28, 586 3 M572.44 -3.41 C576.34 -1.56, 580.25 0.28, 586 3 M586 3 C586 3, 586 3, 586 3 M586 3 C586 3, 586 3, 586 3" stroke="#343a40" stroke-width="1" fill="none"></path></g></g><mask></mask><g stroke-linecap="round"><g transform="translate(9.9959368661913 123.00368311666148) rotate(0.6902771978650638 296.01538561081003 -1.4458959244943799)"><path d="M0 0 C98.67 -0.48, 493.36 -2.41, 592.03 -2.89 M0 0 C98.67 -0.48, 493.36 -2.41, 592.03 -2.89" stroke="#000000" stroke-width="1" fill="none"></path></g></g><mask></mask><g stroke-linecap="round"><g transform="translate(10.013935272239564 87.928913520479) rotate(0.6902771978650638 294.99738720476176 -2.9337397487195176)"><path d="M0 0 C98.33 -0.98, 491.66 -4.89, 589.99 -5.87 M0 0 C98.33 -0.98, 491.66 -4.89, 589.99 -5.87" stroke="#000000" stroke-width="1" fill="none"></path></g></g><mask></mask><g stroke-opacity="0.4" fill-opacity="0.4" transform="translate(109.81250543737065 77.5) rotate(0 0.5 24.5)" stroke="none"><path fill="#343a40" d="M 1.92,-0.05 Q 1.92,-0.05 1.92,1.95 1.93,3.97 2.04,5.12 2.15,6.26 2.18,9.90 2.22,13.54 2.27,15.38 2.33,17.23 2.28,21.19 2.24,25.16 2.24,27.12 2.24,29.08 2.25,31.34 2.27,33.59 2.40,34.85 2.53,36.11 2.57,37.80 2.62,39.50 2.72,41.04 2.82,42.59 3.02,44.26 3.21,45.93 3.27,47.46 3.33,48.99 3.27,49.36 3.21,49.73 3.03,50.06 2.86,50.40 2.58,50.66 2.31,50.92 1.97,51.08 1.63,51.24 1.25,51.28 0.88,51.32 0.51,51.24 0.14,51.16 -0.17,50.97 -0.50,50.78 -0.74,50.49 -0.99,50.20 -1.13,49.85 -1.27,49.50 -1.29,49.13 -1.31,48.75 -1.21,48.39 -1.11,48.02 -0.90,47.71 -0.69,47.40 -0.39,47.17 -0.09,46.94 0.25,46.82 0.61,46.70 0.99,46.70 1.36,46.69 1.72,46.81 2.08,46.93 2.38,47.16 2.68,47.39 2.89,47.70 3.11,48.01 3.21,48.37 3.31,48.73 3.29,49.11 3.27,49.49 3.13,49.84 3.00,50.19 2.75,50.48 2.51,50.77 2.19,50.96 1.87,51.16 1.50,51.24 1.13,51.32 0.75,51.28 0.38,51.24 0.04,51.09 -0.30,50.93 -0.57,50.67 -0.85,50.41 -1.02,50.08 -1.20,49.75 -1.26,49.37 -1.33,49.00 -1.33,49.00 -1.33,49.00 -1.28,47.50 -1.24,46.00 -1.13,44.37 -1.01,42.74 -1.03,41.13 -1.05,39.52 -1.03,37.85 -1.00,36.18 -0.93,34.93 -0.85,33.68 -0.96,31.39 -1.07,29.10 -1.09,27.14 -1.11,25.17 -1.19,21.25 -1.28,17.33 -1.34,15.50 -1.39,13.66 -1.61,10.01 -1.82,6.35 -1.76,5.21 -1.70,4.07 -1.81,2.06 -1.92,0.05 -1.90,-0.17 -1.88,-0.40 -1.80,-0.62 -1.72,-0.84 -1.60,-1.04 -1.47,-1.23 -1.30,-1.39 -1.13,-1.55 -0.93,-1.66 -0.73,-1.77 -0.51,-1.84 -0.28,-1.90 -0.05,-1.91 0.17,-1.91 0.40,-1.86 0.63,-1.81 0.83,-1.71 1.04,-1.61 1.22,-1.46 1.40,-1.31 1.54,-1.12 1.67,-0.94 1.76,-0.72 1.85,-0.51 1.88,-0.28 1.92,-0.05 1.92,-0.05 L 1.92,-0.05 Z"></path></g><g stroke-opacity="0.4" fill-opacity="0.4" transform="translate(337.81250543737065 79.5) rotate(0 1 24)" stroke="none"><path fill="#343a40" d="M 2.18,-0.07 Q 2.18,-0.07 2.16,2.56 2.14,5.21 2.29,9.85 2.43,14.48 2.47,17.06 2.50,19.63 2.59,22.48 2.69,25.32 2.83,26.83 2.97,28.34 3.31,29.92 3.66,31.50 3.75,32.73 3.84,33.96 4.11,35.32 4.38,36.68 4.50,38.56 4.61,40.44 4.68,42.45 4.74,44.46 4.77,46.23 4.81,47.99 4.73,48.44 4.66,48.89 4.45,49.29 4.24,49.70 3.90,50.01 3.57,50.32 3.16,50.51 2.75,50.71 2.30,50.75 1.84,50.80 1.40,50.71 0.95,50.61 0.56,50.37 0.17,50.14 -0.11,49.79 -0.40,49.45 -0.57,49.02 -0.74,48.60 -0.77,48.15 -0.79,47.69 -0.67,47.25 -0.55,46.81 -0.29,46.44 -0.04,46.06 0.31,45.79 0.68,45.51 1.11,45.36 1.54,45.22 1.99,45.22 2.45,45.22 2.88,45.36 3.31,45.51 3.67,45.78 4.04,46.06 4.29,46.44 4.55,46.81 4.67,47.25 4.79,47.69 4.77,48.14 4.74,48.60 4.57,49.02 4.41,49.44 4.11,49.79 3.82,50.14 3.43,50.37 3.04,50.61 2.59,50.71 2.15,50.80 1.70,50.75 1.24,50.71 0.83,50.51 0.42,50.32 0.09,50.01 -0.23,49.70 -0.45,49.30 -0.66,48.89 -0.73,48.44 -0.81,48.00 -0.81,48.00 -0.81,48.00 -0.78,46.23 -0.74,44.47 -0.69,42.47 -0.64,40.48 -0.57,38.75 -0.51,37.02 -0.54,35.53 -0.57,34.05 -0.52,32.93 -0.48,31.81 -0.48,30.14 -0.47,28.48 -0.45,26.97 -0.43,25.47 -0.61,22.62 -0.80,19.76 -0.96,17.21 -1.12,14.66 -1.44,10.01 -1.76,5.35 -1.97,2.71 -2.18,0.07 -2.16,-0.18 -2.13,-0.44 -2.05,-0.69 -1.97,-0.94 -1.82,-1.16 -1.68,-1.38 -1.49,-1.57 -1.30,-1.75 -1.07,-1.88 -0.84,-2.01 -0.59,-2.08 -0.34,-2.15 -0.07,-2.16 0.18,-2.17 0.44,-2.12 0.70,-2.07 0.93,-1.95 1.17,-1.84 1.37,-1.67 1.58,-1.50 1.73,-1.29 1.89,-1.08 1.99,-0.84 2.10,-0.59 2.14,-0.33 2.18,-0.07 2.18,-0.07 L 2.18,-0.07 Z"></path></g><g stroke-opacity="0.4" fill-opacity="0.4" transform="translate(553.8125054373706 80) rotate(0 0.5 24)" stroke="none"><path fill="#343a40" d="M 1.69,0 Q 1.69,0 1.71,1.79 1.73,3.59 1.83,4.66 1.92,5.72 1.94,8.55 1.95,11.37 1.93,13.80 1.91,16.23 1.93,19.35 1.95,22.47 1.99,24.69 2.04,26.91 2.04,29.37 2.05,31.84 2.10,34.37 2.14,36.90 2.19,38.89 2.24,40.88 2.37,42.02 2.49,43.16 2.72,45.56 2.94,47.97 2.89,48.28 2.85,48.59 2.70,48.87 2.56,49.15 2.33,49.37 2.11,49.59 1.83,49.72 1.54,49.86 1.23,49.90 0.92,49.94 0.61,49.87 0.30,49.81 0.03,49.65 -0.23,49.50 -0.44,49.26 -0.65,49.02 -0.77,48.73 -0.89,48.44 -0.91,48.13 -0.93,47.81 -0.85,47.51 -0.77,47.21 -0.60,46.94 -0.43,46.68 -0.18,46.49 0.06,46.29 0.36,46.19 0.65,46.08 0.97,46.08 1.28,46.07 1.58,46.17 1.88,46.26 2.13,46.45 2.39,46.64 2.57,46.89 2.75,47.15 2.84,47.45 2.92,47.76 2.91,48.07 2.90,48.38 2.79,48.68 2.68,48.97 2.48,49.21 2.28,49.46 2.01,49.62 1.74,49.79 1.44,49.86 1.13,49.93 0.82,49.90 0.50,49.88 0.22,49.75 -0.06,49.62 -0.29,49.41 -0.52,49.19 -0.68,48.92 -0.83,48.64 -0.88,48.33 -0.94,48.02 -0.94,48.02 -0.94,48.02 -0.90,45.61 -0.86,43.19 -0.75,42.05 -0.65,40.91 -0.65,38.94 -0.66,36.97 -0.74,34.42 -0.82,31.87 -0.87,29.44 -0.93,27.01 -1.03,24.78 -1.14,22.54 -1.25,19.41 -1.36,16.28 -1.46,13.89 -1.57,11.49 -1.74,8.61 -1.92,5.73 -1.83,4.66 -1.73,3.59 -1.71,1.79 -1.69,0 -1.66,-0.20 -1.64,-0.40 -1.56,-0.59 -1.49,-0.78 -1.38,-0.95 -1.26,-1.12 -1.11,-1.25 -0.96,-1.39 -0.78,-1.48 -0.59,-1.58 -0.40,-1.62 -0.20,-1.67 0.00,-1.67 0.20,-1.67 0.40,-1.62 0.59,-1.58 0.78,-1.48 0.96,-1.39 1.11,-1.25 1.26,-1.12 1.38,-0.95 1.49,-0.78 1.56,-0.59 1.64,-0.40 1.66,-0.20 1.69,0.00 1.69,0.00 L 1.69,0 Z"></path></g><g stroke-opacity="0.4" fill-opacity="0.4" transform="translate(145.81250543737065 79.5) rotate(0 1 26.5)" stroke="none"><path fill="#5c940d" d="M 1.96,-0.08 Q 1.96,-0.08 1.99,2.50 2.02,5.09 2.12,10.81 2.22,16.52 2.35,18.91 2.49,21.29 2.65,25.22 2.81,29.15 2.86,31.39 2.92,33.64 2.94,36.04 2.95,38.45 3.08,39.75 3.21,41.05 3.41,42.83 3.62,44.61 3.75,45.87 3.89,47.13 4.24,50.05 4.58,52.98 4.51,53.39 4.45,53.80 4.26,54.17 4.06,54.54 3.76,54.83 3.46,55.12 3.08,55.30 2.70,55.48 2.29,55.53 1.87,55.58 1.47,55.49 1.06,55.40 0.70,55.19 0.34,54.98 0.06,54.66 -0.20,54.34 -0.36,53.96 -0.51,53.57 -0.54,53.15 -0.57,52.73 -0.46,52.33 -0.35,51.93 -0.12,51.58 0.11,51.23 0.44,50.98 0.77,50.72 1.16,50.59 1.56,50.45 1.98,50.45 2.39,50.44 2.79,50.57 3.19,50.70 3.52,50.95 3.86,51.20 4.09,51.55 4.33,51.89 4.45,52.30 4.56,52.70 4.54,53.11 4.52,53.53 4.37,53.92 4.22,54.31 3.95,54.63 3.68,54.95 3.33,55.17 2.97,55.39 2.56,55.48 2.15,55.57 1.74,55.53 1.32,55.49 0.94,55.32 0.56,55.14 0.26,54.86 -0.04,54.57 -0.24,54.21 -0.44,53.84 -0.51,53.43 -0.58,53.01 -0.58,53.01 -0.58,53.01 -0.57,51.24 -0.56,49.47 -0.63,48.31 -0.69,47.15 -0.56,45.89 -0.42,44.62 -0.24,42.86 -0.06,41.09 0.03,39.79 0.13,38.49 0.08,36.12 0.03,33.75 -0.07,31.52 -0.18,29.30 -0.40,25.42 -0.63,21.53 -0.87,19.08 -1.10,16.62 -1.33,10.93 -1.56,5.25 -1.76,2.67 -1.96,0.08 -1.94,-0.14 -1.92,-0.38 -1.85,-0.61 -1.78,-0.83 -1.65,-1.03 -1.52,-1.23 -1.35,-1.40 -1.18,-1.56 -0.98,-1.68 -0.77,-1.80 -0.55,-1.87 -0.32,-1.94 -0.08,-1.95 0.15,-1.96 0.38,-1.91 0.61,-1.86 0.83,-1.76 1.04,-1.66 1.22,-1.51 1.41,-1.36 1.55,-1.17 1.70,-0.99 1.79,-0.77 1.88,-0.55 1.92,-0.32 1.96,-0.08 1.96,-0.08 L 1.96,-0.08 Z"></path></g><g stroke-opacity="0.4" fill-opacity="0.4" transform="translate(188.81250543737065 77) rotate(0 0.5 25.5)" stroke="none"><path fill="#5c940d" d="M 1.89,0 Q 1.89,0 1.91,1.69 1.93,3.38 1.91,8.03 1.90,12.68 1.94,16.35 1.99,20.02 2.06,27.23 2.13,34.44 2.14,38.63 2.16,42.82 2.32,46.24 2.49,49.65 2.51,49.90 2.52,50.15 2.46,50.39 2.40,50.63 2.27,50.84 2.13,51.05 1.94,51.20 1.74,51.35 1.51,51.44 1.28,51.52 1.03,51.53 0.78,51.53 0.54,51.46 0.31,51.39 0.10,51.24 -0.09,51.09 -0.23,50.89 -0.37,50.69 -0.45,50.45 -0.52,50.21 -0.51,49.96 -0.50,49.72 -0.41,49.48 -0.33,49.25 -0.17,49.06 -0.01,48.87 0.19,48.73 0.40,48.60 0.64,48.54 0.88,48.48 1.13,48.51 1.37,48.53 1.60,48.63 1.83,48.73 2.01,48.89 2.20,49.06 2.32,49.28 2.44,49.49 2.48,49.74 2.53,49.98 2.49,50.23 2.46,50.47 2.35,50.70 2.24,50.92 2.06,51.09 1.88,51.27 1.66,51.38 1.44,51.48 1.19,51.52 0.94,51.55 0.70,51.50 0.46,51.45 0.24,51.33 0.03,51.20 -0.13,51.02 -0.29,50.83 -0.39,50.60 -0.49,50.38 -0.49,50.38 -0.49,50.38 -0.65,46.62 -0.81,42.86 -0.89,38.67 -0.97,34.49 -1.13,27.30 -1.29,20.11 -1.45,16.42 -1.62,12.74 -1.77,8.06 -1.93,3.38 -1.91,1.69 -1.89,0 -1.86,-0.22 -1.83,-0.45 -1.75,-0.66 -1.67,-0.87 -1.54,-1.06 -1.41,-1.25 -1.24,-1.40 -1.07,-1.55 -0.87,-1.66 -0.67,-1.77 -0.44,-1.82 -0.22,-1.87 0.00,-1.87 0.22,-1.87 0.44,-1.82 0.67,-1.77 0.87,-1.66 1.07,-1.55 1.24,-1.40 1.41,-1.25 1.54,-1.06 1.67,-0.87 1.75,-0.66 1.83,-0.45 1.86,-0.22 1.89,0.00 1.89,0.00 L 1.89,0 Z"></path></g><g stroke-opacity="0.4" fill-opacity="0.4" transform="translate(228.81250543737065 80) rotate(0 0.5 24)" stroke="none"><path fill="#5c940d" d="M 2.20,-0.03 Q 2.20,-0.03 2.17,5.36 2.13,10.76 2.08,13.66 2.03,16.56 2.06,20.18 2.09,23.80 2.15,25.65 2.20,27.49 2.30,29.16 2.40,30.84 2.61,32.60 2.82,34.36 2.95,35.54 3.08,36.72 3.10,39.40 3.12,42.07 3.18,43.16 3.25,44.26 3.37,46.07 3.49,47.89 3.44,48.29 3.39,48.69 3.22,49.05 3.04,49.42 2.76,49.71 2.48,50.00 2.12,50.18 1.77,50.37 1.37,50.43 0.97,50.49 0.57,50.42 0.17,50.35 -0.17,50.16 -0.53,49.96 -0.80,49.67 -1.08,49.37 -1.24,49.00 -1.41,48.64 -1.45,48.23 -1.49,47.83 -1.39,47.44 -1.30,47.05 -1.09,46.70 -0.88,46.36 -0.57,46.10 -0.26,45.84 0.11,45.70 0.49,45.55 0.89,45.53 1.29,45.52 1.68,45.63 2.07,45.74 2.40,45.97 2.73,46.20 2.97,46.53 3.21,46.85 3.34,47.24 3.46,47.62 3.46,48.02 3.45,48.43 3.32,48.81 3.19,49.19 2.94,49.51 2.69,49.83 2.35,50.05 2.02,50.27 1.63,50.38 1.24,50.48 0.83,50.45 0.43,50.43 0.06,50.27 -0.31,50.12 -0.61,49.85 -0.92,49.59 -1.12,49.24 -1.32,48.89 -1.41,48.50 -1.49,48.10 -1.49,48.10 -1.49,48.10 -1.54,46.22 -1.59,44.34 -1.55,43.26 -1.52,42.17 -1.59,39.46 -1.66,36.74 -1.54,35.58 -1.42,34.42 -1.29,32.69 -1.15,30.96 -1.17,29.26 -1.18,27.57 -1.21,25.73 -1.23,23.89 -1.39,20.25 -1.56,16.61 -1.68,13.72 -1.80,10.83 -2.00,5.43 -2.20,0.03 -2.18,-0.23 -2.15,-0.49 -2.06,-0.74 -1.97,-0.99 -1.82,-1.21 -1.67,-1.43 -1.47,-1.61 -1.28,-1.79 -1.04,-1.92 -0.81,-2.05 -0.55,-2.12 -0.29,-2.18 -0.03,-2.19 0.23,-2.19 0.49,-2.13 0.75,-2.07 0.98,-1.95 1.22,-1.83 1.42,-1.66 1.63,-1.49 1.78,-1.27 1.94,-1.05 2.03,-0.80 2.13,-0.56 2.17,-0.29 2.20,-0.03 2.20,-0.03 L 2.20,-0.03 Z"></path></g><g stroke-opacity="0.4" fill-opacity="0.4" transform="translate(280.81250543737065 79.5) rotate(0 0.5 23.5)" stroke="none"><path fill="#5c940d" d="M 1.83,-0.03 Q 1.83,-0.03 1.82,2.83 1.81,5.71 1.79,7.80 1.77,9.89 1.80,13.65 1.83,17.41 1.88,19.57 1.94,21.72 2.01,24.96 2.08,28.19 2.20,29.85 2.32,31.51 2.30,33.66 2.28,35.82 2.39,37.57 2.50,39.32 2.63,40.65 2.75,41.99 2.92,44.49 3.09,46.99 3.04,47.32 2.98,47.66 2.83,47.96 2.67,48.26 2.42,48.49 2.18,48.73 1.87,48.87 1.56,49.01 1.23,49.05 0.89,49.09 0.56,49.02 0.23,48.95 -0.06,48.77 -0.35,48.60 -0.57,48.34 -0.79,48.08 -0.91,47.77 -1.04,47.45 -1.06,47.11 -1.08,46.78 -0.99,46.45 -0.90,46.12 -0.71,45.84 -0.52,45.56 -0.25,45.35 0.01,45.15 0.33,45.04 0.65,44.93 0.99,44.93 1.33,44.92 1.65,45.03 1.97,45.14 2.24,45.34 2.51,45.55 2.70,45.83 2.90,46.11 2.99,46.43 3.08,46.76 3.06,47.10 3.04,47.44 2.92,47.75 2.80,48.07 2.58,48.33 2.36,48.59 2.07,48.76 1.78,48.94 1.45,49.01 1.12,49.09 0.78,49.05 0.44,49.02 0.13,48.88 -0.17,48.73 -0.41,48.50 -0.66,48.27 -0.82,47.97 -0.98,47.67 -1.04,47.34 -1.09,47.00 -1.09,47.00 -1.09,47.00 -0.96,44.54 -0.83,42.07 -0.76,40.75 -0.69,39.43 -0.71,37.64 -0.73,35.84 -0.78,33.71 -0.83,31.58 -0.80,29.93 -0.76,28.27 -0.88,25.06 -0.99,21.84 -1.11,19.65 -1.23,17.46 -1.34,13.70 -1.45,9.93 -1.51,7.86 -1.58,5.78 -1.71,2.91 -1.83,0.03 -1.81,-0.18 -1.79,-0.40 -1.71,-0.61 -1.64,-0.82 -1.52,-1.00 -1.40,-1.19 -1.23,-1.34 -1.07,-1.49 -0.88,-1.59 -0.68,-1.70 -0.47,-1.76 -0.25,-1.82 -0.03,-1.82 0.18,-1.83 0.40,-1.78 0.61,-1.73 0.81,-1.63 1.01,-1.53 1.18,-1.39 1.35,-1.24 1.48,-1.06 1.61,-0.88 1.69,-0.68 1.77,-0.47 1.80,-0.25 1.83,-0.03 1.83,-0.03 L 1.83,-0.03 Z"></path></g><g stroke-opacity="0.4" fill-opacity="0.4" transform="translate(450.81250543737065 77) rotate(0 0.5 26)" stroke="none"><path fill="#5c940d" d="M 1.84,-0.05 Q 1.84,-0.05 1.88,3.68 1.91,7.42 1.94,9.58 1.97,11.74 2.00,14.97 2.04,18.20 2.13,19.86 2.23,21.52 2.29,23.36 2.36,25.21 2.43,26.87 2.50,28.53 2.51,30.39 2.52,32.25 2.50,34.19 2.49,36.13 2.47,38.10 2.45,40.08 2.56,41.47 2.68,42.86 2.75,44.33 2.82,45.81 2.89,47.01 2.97,48.21 3.08,50.06 3.20,51.91 3.15,52.27 3.11,52.62 2.95,52.94 2.80,53.26 2.55,53.52 2.30,53.77 1.98,53.93 1.66,54.09 1.31,54.14 0.96,54.20 0.61,54.13 0.26,54.07 -0.05,53.90 -0.36,53.72 -0.60,53.46 -0.84,53.20 -0.98,52.87 -1.13,52.55 -1.16,52.19 -1.19,51.84 -1.11,51.49 -1.03,51.14 -0.84,50.84 -0.65,50.54 -0.37,50.31 -0.10,50.09 0.23,49.96 0.56,49.84 0.92,49.82 1.27,49.81 1.61,49.91 1.95,50.01 2.25,50.22 2.54,50.42 2.75,50.71 2.96,51.00 3.07,51.34 3.17,51.68 3.17,52.03 3.16,52.39 3.04,52.73 2.92,53.06 2.70,53.34 2.48,53.62 2.18,53.81 1.88,54.01 1.54,54.10 1.19,54.19 0.84,54.16 0.48,54.14 0.15,54.00 -0.16,53.86 -0.43,53.63 -0.70,53.39 -0.88,53.08 -1.05,52.77 -1.12,52.42 -1.20,52.07 -1.20,52.08 -1.20,52.08 -1.22,50.16 -1.24,48.24 -1.18,47.05 -1.11,45.85 -1.07,44.40 -1.03,42.95 -0.99,41.52 -0.95,40.08 -0.98,38.11 -1.00,36.14 -1.02,34.20 -1.04,32.27 -1.05,30.42 -1.06,28.58 -1.03,26.94 -1.00,25.30 -1.03,23.44 -1.07,21.58 -1.03,19.92 -0.99,18.27 -1.10,15.06 -1.21,11.86 -1.35,9.69 -1.48,7.52 -1.66,3.78 -1.84,0.05 -1.82,-0.16 -1.80,-0.39 -1.73,-0.60 -1.65,-0.81 -1.53,-0.99 -1.41,-1.18 -1.25,-1.33 -1.09,-1.48 -0.89,-1.59 -0.70,-1.70 -0.49,-1.76 -0.27,-1.82 -0.05,-1.83 0.16,-1.83 0.38,-1.79 0.60,-1.74 0.80,-1.64 1.00,-1.55 1.17,-1.40 1.34,-1.26 1.47,-1.08 1.61,-0.90 1.69,-0.69 1.78,-0.49 1.81,-0.27 1.84,-0.05 1.84,-0.05 L 1.84,-0.05 Z"></path></g><g stroke-opacity="0.8" fill-opacity="0.8" transform="translate(77.81250543737065 193.625) rotate(0 37 8.5)"><text x="0" y="13" font-family="Helvetica, Segoe UI Emoji" font-size="16px" fill="#000000" text-anchor="start" style="white-space: pre;" direction="ltr">0 seconds</text></g><g stroke-linecap="round"><g stroke-opacity="0.8" fill-opacity="0.8" transform="translate(112.81250543737065 183.5) rotate(0 -0.5 -27.5)"><path d="M0 0 C-0.17 -9.17, -0.83 -45.83, -1 -55 M0 0 C-0.17 -9.17, -0.83 -45.83, -1 -55" stroke="#000000" stroke-width="1" fill="none"></path></g><g stroke-opacity="0.8" fill-opacity="0.8" transform="translate(112.81250543737065 183.5) rotate(0 -0.5 -27.5)"><path d="M-1 -55 L5.59 -41.52 L-7.09 -41.29 L-1 -55" stroke="none" stroke-width="0" fill="#000000" fill-rule="evenodd"></path><path d="M-1 -55 C1.48 -49.92, 3.96 -44.84, 5.59 -41.52 M-1 -55 C0.89 -51.14, 2.77 -47.28, 5.59 -41.52 M5.59 -41.52 C1.01 -41.44, -3.57 -41.36, -7.09 -41.29 M5.59 -41.52 C0.79 -41.44, -4 -41.35, -7.09 -41.29 M-7.09 -41.29 C-5.59 -44.67, -4.09 -48.04, -1 -55 M-7.09 -41.29 C-5.53 -44.8, -3.97 -48.31, -1 -55 M-1 -55 C-1 -55, -1 -55, -1 -55 M-1 -55 C-1 -55, -1 -55, -1 -55" stroke="#000000" stroke-width="1" fill="none"></path></g></g><mask></mask><g stroke-opacity="0.8" fill-opacity="0.8" transform="translate(305.81250543737065 193.625) rotate(0 41.5 8.5)"><text x="0" y="13" font-family="Helvetica, Segoe UI Emoji" font-size="16px" fill="#000000" text-anchor="start" style="white-space: pre;" direction="ltr">40 seconds</text></g><g stroke-linecap="round"><g stroke-opacity="0.8" fill-opacity="0.8" transform="translate(344.8337387125307 192.75) rotate(0 -1.0106166375800285 -27.5)"><path d="M0 0 C-0.34 -9.17, -1.68 -45.83, -2.02 -55 M0 0 C-0.34 -9.17, -1.68 -45.83, -2.02 -55" stroke="#000000" stroke-width="1" fill="none"></path></g><g stroke-opacity="0.8" fill-opacity="0.8" transform="translate(344.8337387125307 192.75) rotate(0 -1.0106166375800285 -27.5)"><path d="M-2.02 -55 L4.81 -41.65 L-7.86 -41.18 L-2.02 -55" stroke="none" stroke-width="0" fill="#000000" fill-rule="evenodd"></path><path d="M-2.02 -55 C0.56 -49.95, 3.15 -44.91, 4.81 -41.65 M-2.02 -55 C-0.34 -51.71, 1.34 -48.42, 4.81 -41.65 M4.81 -41.65 C1.57 -41.53, -1.67 -41.41, -7.86 -41.18 M4.81 -41.65 C1.04 -41.51, -2.74 -41.37, -7.86 -41.18 M-7.86 -41.18 C-5.97 -45.65, -4.08 -50.12, -2.02 -55 M-7.86 -41.18 C-5.84 -45.96, -3.83 -50.73, -2.02 -55 M-2.02 -55 C-2.02 -55, -2.02 -55, -2.02 -55 M-2.02 -55 C-2.02 -55, -2.02 -55, -2.02 -55" stroke="#000000" stroke-width="1" fill="none"></path></g></g><mask></mask><g stroke-opacity="0.8" fill-opacity="0.8" transform="translate(520.3125054373706 193.625) rotate(0 41.5 8.5)"><text x="0" y="13" font-family="Helvetica, Segoe UI Emoji" font-size="16px" fill="#000000" text-anchor="start" style="white-space: pre;" direction="ltr">80 seconds</text></g><g stroke-linecap="round"><g stroke-opacity="0.8" fill-opacity="0.8" transform="translate(559.3337387125307 187.75) rotate(0 -1.0106166375800285 -27.5)"><path d="M0 0 C-0.34 -9.17, -1.68 -45.83, -2.02 -55 M0 0 C-0.34 -9.17, -1.68 -45.83, -2.02 -55" stroke="#000000" stroke-width="1" fill="none"></path></g><g stroke-opacity="0.8" fill-opacity="0.8" transform="translate(559.3337387125307 187.75) rotate(0 -1.0106166375800285 -27.5)"><path d="M-2.02 -55 L4.81 -41.65 L-7.86 -41.18 L-2.02 -55" stroke="none" stroke-width="0" fill="#000000" fill-rule="evenodd"></path><path d="M-2.02 -55 C-0.25 -51.54, 1.52 -48.09, 4.81 -41.65 M-2.02 -55 C0.69 -49.71, 3.4 -44.41, 4.81 -41.65 M4.81 -41.65 C-0.07 -41.47, -4.96 -41.29, -7.86 -41.18 M4.81 -41.65 C1.65 -41.53, -1.51 -41.42, -7.86 -41.18 M-7.86 -41.18 C-5.56 -46.61, -3.27 -52.04, -2.02 -55 M-7.86 -41.18 C-5.91 -45.8, -3.96 -50.41, -2.02 -55 M-2.02 -55 C-2.02 -55, -2.02 -55, -2.02 -55 M-2.02 -55 C-2.02 -55, -2.02 -55, -2.02 -55" stroke="#000000" stroke-width="1" fill="none"></path></g></g><mask></mask><g stroke-linecap="round"><g stroke-opacity="0.5" fill-opacity="0.5" transform="translate(146.81250543737065 38.5) rotate(0 150.5 0.5)"><path d="M0 0 C50.17 0.17, 250.83 0.83, 301 1" stroke="#000000" stroke-width="1.5" fill="none" stroke-dasharray="1.5 7"></path></g></g><mask></mask><g stroke-linecap="round"><g stroke-opacity="0.5" fill-opacity="0.5" transform="translate(144.81250543737065 20.5) rotate(0 0 18.5)"><path d="M0 0 C0 6.17, 0 30.83, 0 37 M0 0 C0 6.17, 0 30.83, 0 37" stroke="#000000" stroke-width="1" fill="none"></path></g></g><mask></mask><g stroke-linecap="round"><g stroke-opacity="0.5" fill-opacity="0.5" transform="translate(449.31250543737065 20.5) rotate(0 0.5 19)"><path d="M0 0 C0.17 6.33, 0.83 31.67, 1 38 M0 0 C0.17 6.33, 0.83 31.67, 1 38" stroke="#000000" stroke-width="1" fill="none"></path></g></g><mask></mask><g stroke-opacity="0.7" fill-opacity="0.7" transform="translate(225.81250543737065 10) rotate(0 69 8.5)"><text x="0" y="13" font-family="Helvetica, Segoe UI Emoji" font-size="16px" fill="#000000" text-anchor="start" style="white-space: pre;" direction="ltr">Gap more than 40s</text></g></svg>